<?xml version="1.0" encoding="UTF-8"?>
<svg width="137px" height="157px" viewBox="0 0 137 157" version="1.1" xmlns="http://www.w3.org/2000/svg" xmlns:xlink="http://www.w3.org/1999/xlink">
    <!-- Generator: Sketch 61.1 (89650) - https://sketch.com -->
    <title>1</title>
    <desc>Created with Sketch.</desc>
    <g id="Page-1" stroke="none" stroke-width="1" fill="none" fill-rule="evenodd">
        <g id="Artboard" transform="translate(-178.000000, -186.000000)">
            <g id="1" transform="translate(177.000000, 185.000000)">
                <path d="M103.7085,127.826514 L104.2835,127.826514 C104.7335,127.550641 105.1585,127.22461 105.5835,126.898578 C104.986,127.22461 104.3335,127.550641 103.7085,127.826514 M56.886,67.6109587 C56.2835,67.6109587 55.711,67.5608 55.1585,67.4103238 C51.436,66.6328635 48.636,63.2973079 48.636,59.3347683 C48.636,55.3973079 51.3835,52.1119111 55.0335,51.2842921 C55.636,51.1338159 56.261,51.0585778 56.886,51.0585778 C61.436,51.0585778 65.111,54.7703238 65.111,59.3347683 C65.111,63.8992127 61.436,67.6109587 56.886,67.6109587 M104.9085,75.2601651 C101.436,72.3509587 97.8335,71.8493714 96.0585,71.7992127 C95.836,71.8995302 95.611,71.9747683 95.3585,72.024927 C93.511,72.5014349 91.4085,71.9998476 90.736,67.7363556 C90.636,67.0341333 90.6835,66.3068317 90.836,65.6046095 C91.136,64.2252444 91.7835,61.6169905 93.136,57.4036571 C93.411,56.5258794 93.736,55.5477841 94.0835,54.5195302 C86.636,51.3846095 78.1835,49.629054 69.2085,49.629054 C64.3085,49.629054 59.561,50.1557206 55.0335,51.1588952 C42.686,53.8423873 32.061,59.9868317 24.8085,68.2128635 C18.7835,75.0595302 15.111,83.3357206 14.7335,92.3141333 C17.4585,99.0103238 22.161,105.029371 28.336,109.944927 C28.3585,109.944927 28.3585,109.970006 28.3835,109.970006 C38.761,114.459213 50.186,115.487467 56.886,115.587784 C64.2835,115.688102 76.1585,113.305562 79.1835,110.371276 C82.2085,107.43699 78.136,98.8598476 83.0335,97.1042921 C87.9335,95.3236571 92.711,98.8598476 95.111,100.33953 C97.511,101.794133 102.611,101.794133 107.511,95.8503238 C112.4085,89.8814349 109.8085,79.3230222 104.9085,75.2601651 M130.8835,4.51127619 C130.2335,3.00651429 128.9835,2.2039746 127.711,1.75254603 L127.686,1.75254603 C127.3085,1.82778413 126.9335,1.95318095 126.5835,2.07857778 C126.2085,2.2039746 125.8585,2.32937143 125.511,2.50492698 C121.886,4.08492698 118.861,7.24492698 117.511,8.79984762 C117.3085,9.0255619 117.161,9.20111746 117.0335,9.35159365 C116.9335,9.47699048 116.861,9.57730794 116.8085,9.62746667 C116.7835,9.6776254 116.761,9.70270476 116.761,9.70270476 L116.7335,9.70270476 C116.7335,9.70270476 116.7335,9.72778413 116.7085,9.75286349 C116.661,9.85318095 116.4835,10.0538159 116.261,10.3547683 C116.136,10.5303238 115.9835,10.7309587 115.836,10.956673 C115.6835,11.1573079 115.511,11.3830222 115.3335,11.6338159 C115.211,11.8093714 115.086,11.984927 114.9335,12.1855619 C114.8085,12.3611175 114.686,12.536673 114.561,12.7373079 C114.5335,12.7623873 114.5085,12.812546 114.486,12.8376254 L114.486,12.8627048 C114.4335,12.9128635 114.4085,12.9881016 114.3335,13.0633397 C112.286,16.0477841 109.0835,20.8630222 105.836,26.8068317 C105.836,29.1642921 106.5085,31.3461968 108.8835,31.7976254 C113.936,32.7255619 116.361,30.4934984 122.511,23.7722286 C122.586,23.6969905 122.6585,23.596673 122.7585,23.4963556 C122.786,23.4461968 122.811,23.4211175 122.8585,23.3709587 L122.886,23.3709587 L122.886,23.3458794 C123.336,22.8442921 123.8085,22.3176254 124.3085,21.7658794 C131.8085,13.4896889 132.5335,8.37349841 130.8835,4.51127619 M76.0585,145.306832 C69.0085,138.710959 60.011,145.908737 37.086,136.779848 C23.836,131.513181 15.1335,122.158578 10.211,115.236673 C21.7835,140.667149 43.961,157.846514 69.386,157.846514 C69.886,157.846514 70.411,157.846514 70.911,157.821435 C76.136,155.188102 80.836,149.796038 76.0585,145.306832" id="Fill-351" fill="#CAD9FF"></path>
                <path d="M103.7085,127.826514 L104.2835,127.826514 C104.7335,127.550641 105.1585,127.22461 105.5835,126.898578 C104.986,127.22461 104.3335,127.550641 103.7085,127.826514 M56.886,67.6109587 C56.2835,67.6109587 55.711,67.5608 55.1585,67.4103238 C51.436,66.6328635 48.636,63.2973079 48.636,59.3347683 C48.636,55.3973079 51.3835,52.1119111 55.0335,51.2842921 C55.636,51.1338159 56.261,51.0585778 56.886,51.0585778 C61.436,51.0585778 65.111,54.7703238 65.111,59.3347683 C65.111,63.8992127 61.436,67.6109587 56.886,67.6109587 M104.9085,75.2601651 C101.436,72.3509587 97.8335,71.8493714 96.0585,71.7992127 C95.836,71.8995302 95.611,71.9747683 95.3585,72.024927 C93.511,72.5014349 91.4085,71.9998476 90.736,67.7363556 C90.636,67.0341333 90.6835,66.3068317 90.836,65.6046095 C91.136,64.2252444 91.7835,61.6169905 93.136,57.4036571 C93.411,56.5258794 93.736,55.5477841 94.0835,54.5195302 C86.636,51.3846095 78.1835,49.629054 69.2085,49.629054 C64.3085,49.629054 59.561,50.1557206 55.0335,51.1588952 C42.686,53.8423873 32.061,59.9868317 24.8085,68.2128635 C18.7835,75.0595302 15.111,83.3357206 14.7335,92.3141333 C17.4585,99.0103238 22.161,105.029371 28.336,109.944927 C28.3585,109.944927 28.3585,109.970006 28.3835,109.970006 C38.761,114.459213 50.186,115.487467 56.886,115.587784 C64.2835,115.688102 76.1585,113.305562 79.1835,110.371276 C82.2085,107.43699 78.136,98.8598476 83.0335,97.1042921 C87.9335,95.3236571 92.711,98.8598476 95.111,100.33953 C97.511,101.794133 102.611,101.794133 107.511,95.8503238 C112.4085,89.8814349 109.8085,79.3230222 104.9085,75.2601651 M130.8835,4.51127619 C130.2335,3.00651429 128.9835,2.2039746 127.711,1.75254603 L127.686,1.75254603 C127.3085,1.82778413 126.9335,1.95318095 126.5835,2.07857778 C126.2085,2.2039746 125.8585,2.32937143 125.511,2.50492698 C121.886,4.08492698 118.861,7.24492698 117.511,8.79984762 C117.3085,9.0255619 117.161,9.20111746 117.0335,9.35159365 C116.9335,9.47699048 116.861,9.57730794 116.8085,9.62746667 C116.7835,9.6776254 116.761,9.70270476 116.761,9.70270476 L116.7335,9.70270476 C116.7335,9.70270476 116.7335,9.72778413 116.7085,9.75286349 C116.661,9.85318095 116.4835,10.0538159 116.261,10.3547683 C116.136,10.5303238 115.9835,10.7309587 115.836,10.956673 C115.6835,11.1573079 115.511,11.3830222 115.3335,11.6338159 C115.211,11.8093714 115.086,11.984927 114.9335,12.1855619 C114.8085,12.3611175 114.686,12.536673 114.561,12.7373079 C114.5335,12.7623873 114.5085,12.812546 114.486,12.8376254 L114.486,12.8627048 C114.4335,12.9128635 114.4085,12.9881016 114.3335,13.0633397 C112.286,16.0477841 109.0835,20.8630222 105.836,26.8068317 C105.836,29.1642921 106.5085,31.3461968 108.8835,31.7976254 C113.936,32.7255619 116.361,30.4934984 122.511,23.7722286 C122.586,23.6969905 122.6585,23.596673 122.7585,23.4963556 C122.786,23.4461968 122.811,23.4211175 122.8585,23.3709587 L122.886,23.3709587 L122.886,23.3458794 C123.336,22.8442921 123.8085,22.3176254 124.3085,21.7658794 C131.8085,13.4896889 132.5335,8.37349841 130.8835,4.51127619" id="Fill-353" fill="#FFD249"></path>
                <path d="M136.40875,84.5901905 C136.40875,84.7406667 136.38375,84.9162222 136.38375,85.0666984 C136.33625,85.8190794 136.25875,86.5714603 136.15875,87.3238413 C136.08375,87.8505079 136.03625,88.3520952 135.93625,88.8787619 C133.41125,104.854317 121.90875,118.59781 105.58375,126.899079 C104.98625,127.225111 104.33375,127.548635 103.70875,127.827016 C93.60875,132.617175 81.80875,135.375905 69.20875,135.375905 C55.81125,135.375905 43.31125,132.266063 32.81125,126.899079 C17.75875,119.249873 6.83375,106.986063 3.21125,92.6155873 C2.58625,89.0292381 2.16125,85.3425714 1.93375,81.5806667 C2.28625,52.4133651 32.26125,28.8387619 69.20875,28.8387619 C80.91125,28.8387619 91.90875,31.1962222 101.48375,35.3593968 C101.43625,35.4597143 101.38375,35.5851111 101.33625,35.6854286 C100.51125,37.4660635 99.70875,39.2968571 98.98375,41.1778095 C90.31125,37.0647937 80.13375,34.682254 69.20875,34.682254 C37.68625,34.682254 12.10875,54.5200317 12.10875,78.9974921 C12.10875,83.6371746 13.03375,88.1013016 14.73375,92.3146349 C17.45875,99.0108254 22.16125,105.029873 28.33625,109.945429 C28.35875,109.945429 28.35875,109.970508 28.38375,109.970508 C38.75875,118.19654 53.21125,123.31273 69.20875,123.31273 C94.76125,123.31273 116.38375,110.27146 123.65875,92.3146349 C125.35875,88.1013016 126.28375,83.6371746 126.28375,78.9974921 C126.28375,70.4203492 123.13375,62.3949524 117.68625,55.5984444 L117.65875,55.5984444 C116.86125,54.5701905 115.98375,53.5670159 115.05875,52.5889206 C115.53375,52.1374921 116.08375,51.7362222 116.68375,51.4352698 C118.80875,50.3317778 120.83625,49.8803492 122.60875,49.7549524 L122.65875,49.7549524 C124.93375,52.0873333 126.96125,54.5701905 128.68375,57.2035238 C132.68625,63.1724127 135.28625,69.8184444 136.13625,76.8406667 L136.40875,84.5901905 Z" id="Fill-355" fill="#E5EBF8"></path>
                <path d="M98.9845,41.1778095 C98.9345,41.278127 98.9095,41.3784444 98.8595,41.4787619 C98.6845,41.8549524 98.5595,42.2060635 98.412,42.582254 C96.5845,47.3724127 95.1595,51.309873 94.0845,54.5200317 C86.637,51.3851111 78.1845,49.6295556 69.2095,49.6295556 C64.3095,49.6295556 59.5595,50.1562222 55.0345,51.1593968 C42.6845,53.8428889 32.0595,59.9873333 24.8095,68.2133651 C18.7845,75.0600317 15.1095,83.3362222 14.7345,92.3146349 C13.0345,88.1013016 12.1095,83.6371746 12.1095,78.9974921 C12.1095,54.5200317 37.6845,34.682254 69.2095,34.682254 C80.1345,34.682254 90.3095,37.0647937 98.9845,41.1778095" id="Fill-357" fill="#92B5FF"></path>
                <path d="M126.28425,78.9977429 C126.28425,83.6374254 125.35925,88.1015524 123.65925,92.3148857 C123.23425,82.232981 118.63425,73.028854 111.25925,65.7558381 C111.23425,63.1726635 111.43675,58.4326635 113.28425,54.9466317 C113.75925,54.068854 114.33425,53.2412349 115.05925,52.5891714 C115.98425,53.5672667 116.85925,54.5704413 117.65925,55.5986952 L117.68675,55.5986952 C123.13425,62.3952032 126.28425,70.4206 126.28425,78.9977429" id="Fill-359" fill="#9AB3FA"></path>
                <path d="M135.935,88.8787619 C135.36,93.3428889 134.46,97.6565397 133.31,101.842286 L132.785,103.650508 C132.785,103.750825 132.7575,103.823556 132.71,103.901302 C132.4575,104.754 132.185,105.60419 131.91,106.459397 C131.61,107.337175 131.3075,108.189873 131.01,109.042571 C130.085,111.550508 129.085,114.008286 127.96,116.390825 C127.585,117.168286 127.21,117.943238 126.8325,118.698127 C126.8325,118.723206 126.81,118.723206 126.81,118.748286 C126.76,118.848603 126.7325,118.923841 126.685,118.999079 C126.285,119.77654 125.91,120.528921 125.51,121.278794 C124.885,122.409873 124.2325,123.513365 123.585,124.616857 C122.91,125.720349 122.235,126.773683 121.535,127.827016 C121.16,128.403841 120.76,128.955587 120.385,129.507333 C108.235,146.458476 90.61,157.29527 70.91,157.821937 C76.135,155.188603 80.835,149.79654 76.06,145.307333 C69.0075,138.71146 60.01,145.909238 37.085,136.780349 C23.835,131.513683 15.135,122.159079 10.21,115.237175 C10.135,115.136857 10.0575,115.03654 9.985,114.936222 C9.81,114.560032 9.66,114.181333 9.485,113.807651 C8.0825,110.497175 6.8325,107.086381 5.7825,103.55019 C5.4825,102.46927 5.1575,101.368286 4.885,100.264794 C4.71,99.6127302 4.5325,98.9355873 4.385,98.2584444 C4.3325,98.158127 4.31,98.0578095 4.31,97.9574921 C4.11,97.129873 3.9075,96.2771746 3.735,95.3993968 C3.535,94.4965397 3.36,93.5686032 3.21,92.6155873 C6.8325,106.986063 17.7575,119.249873 32.81,126.899079 C43.31,132.266063 55.81,135.375905 69.21,135.375905 C81.81,135.375905 93.6075,132.617175 103.7075,127.827016 L104.285,127.827016 C104.735,127.548635 105.1575,127.225111 105.5825,126.899079 C121.91,118.59781 133.41,104.854317 135.935,88.8787619" id="Fill-361" fill="#94B4FF"></path>
                <path d="M136.86025,12.2103905 C136.56025,13.0881683 136.16025,13.965946 135.71025,14.8437238 C135.48275,15.3202317 135.23525,15.7716603 134.98525,16.2230889 C133.93525,18.0288032 132.68525,19.8094381 131.40775,21.5148349 C130.43525,22.7938825 129.43275,24.0227714 128.51025,25.1513429 C127.53525,26.2799143 126.63525,27.3081683 125.81025,28.2110254 L125.81025,28.2361048 L125.78275,28.2361048 C125.66025,28.386581 125.53525,28.5119778 125.38525,28.662454 C125.38525,28.662454 125.38525,28.6875333 125.41025,28.6875333 C124.48525,29.765946 123.73525,30.5935651 123.26025,31.1453111 C122.28525,32.3491206 120.25775,35.1329302 117.78525,38.6942 L117.75775,38.6942 C117.28525,39.3713429 116.80775,40.0484857 116.33525,40.7507079 C116.10775,41.1268984 115.86025,41.4780095 115.58275,41.8542 C115.33525,42.2053111 115.08525,42.5815016 114.81025,42.9576921 L114.83275,42.9576921 C114.81025,42.9576921 114.81025,42.9827714 114.81025,42.9827714 C113.56025,44.8135651 112.26025,46.7697556 110.96025,48.725946 C110.96025,48.725946 110.96025,48.7510254 110.93525,48.7510254 C109.73275,50.5316603 108.58275,52.3373746 107.45775,54.0929302 C107.08525,54.7199143 106.68525,55.321819 106.30775,55.9237238 C105.45775,57.2780095 104.66025,58.5821365 103.93525,59.785946 C103.51025,60.5132476 103.11025,61.2154698 102.73525,61.8675333 C102.23275,62.7453111 101.78525,63.5478508 101.40775,64.2751524 L100.76025,65.6545175 L99.28525,68.7142 C98.63525,70.0434063 97.58525,71.1468984 96.23525,71.7237238 C96.18275,71.7488032 96.13525,71.7738825 96.06025,71.7989619 C95.83525,71.8992794 95.61025,71.9745175 95.35775,72.0246762 C93.51025,72.5011841 91.40775,71.9995968 90.73525,67.7361048 C90.63525,67.0338825 90.6826124,66.306581 90.83525,65.6043587 C91.13525,64.2249937 91.78525,61.6167397 93.13525,57.4034063 C93.41025,56.5256286 93.73525,55.5475333 94.08525,54.5192794 C95.15775,51.3091206 96.58525,47.3716603 98.41025,42.5815016 C98.56025,42.2053111 98.68275,41.8542 98.86025,41.4780095 C98.90775,41.3776921 98.93525,41.2773746 98.98525,41.1770571 C99.71025,39.2961048 100.51025,37.4653111 101.33525,35.6846762 C101.38525,35.5843587 101.43525,35.4589619 101.48525,35.3586444 C102.88525,32.3240413 104.36025,29.4399143 105.83525,26.806581 C105.83525,29.1640413 106.50775,31.345946 108.88525,31.7973746 C113.93525,32.7253111 116.36025,30.4932476 122.51025,23.7719778 C122.61025,23.646581 122.73525,23.4961048 122.85775,23.3707079 L122.88525,23.3707079 L122.88525,23.3456286 C123.33525,22.8440413 123.80775,22.3173746 124.30775,21.7656286 C131.80775,13.4894381 132.53525,8.37324762 130.88275,4.5110254 C130.23525,3.00626349 128.98525,2.20372381 127.71025,1.75229524 C128.76025,1.50150159 129.85775,1.40118413 130.96025,1.55166032 C131.23525,1.57673968 131.50775,1.62689841 131.78525,1.70213651 C132.06025,1.7773746 132.33275,1.8526127 132.61025,1.95293016 C133.16025,2.15356508 133.70775,2.4294381 134.26025,2.75546984 C134.51025,2.9310254 134.78525,3.13166032 135.05775,3.33229524 C137.91025,5.5142 138.03525,8.72435873 136.86025,12.2103905" id="Fill-363" fill="#96A3CD"></path>
                <path d="M114.8095,42.9581937 C115.0845,42.5820032 115.3345,42.2058127 115.5845,41.8547016 C115.3345,42.2058127 115.0845,42.5820032 114.8345,42.9581937 L114.8095,42.9581937 Z" id="Fill-365" fill="#96A3CD"></path>
                <path d="M117.75875,38.6942 L117.78625,38.6942 C117.33375,39.3713429 116.83375,40.0484857 116.33625,40.7507079 C116.80875,40.0484857 117.28625,39.3713429 117.75875,38.6942" id="Fill-367" fill="#96A3CD"></path>
                <path d="M132.60975,1.95318095 C133.15975,2.12873651 133.70725,2.40460952 134.25975,2.75572063 C133.70725,2.42968889 133.15975,2.15381587 132.60975,1.95318095" id="Fill-369" fill="#96A3CD"></path>
                <path d="M136.9335,12.2103905 C136.636,13.0881683 136.236,13.965946 135.7835,14.8437238 C135.5585,15.3202317 135.311,15.7716603 135.0585,16.2230889 C134.0085,18.0288032 132.7585,19.8094381 131.4835,21.5148349 C130.511,22.7938825 129.5085,24.0227714 128.5585,25.1513429 C127.586,26.2799143 126.6835,27.3081683 125.8585,28.2110254 L125.8585,28.2361048 L125.836,28.2361048 C125.711,28.386581 125.5835,28.5119778 125.4335,28.662454 L125.411,28.6875333 C125.386,28.6875333 125.386,28.662454 125.386,28.662454 C125.5335,28.5119778 125.6585,28.386581 125.7835,28.2361048 L125.811,28.2361048 L125.811,28.2110254 C126.636,27.3081683 127.5335,26.2799143 128.511,25.1513429 C129.4335,24.0227714 130.4335,22.7938825 131.4085,21.5148349 C132.686,19.8094381 133.936,18.0288032 134.986,16.2230889 C135.2335,15.7716603 135.4835,15.3202317 135.711,14.8437238 C136.1585,13.965946 136.561,13.0881683 136.861,12.2103905 C138.0335,8.72435873 137.911,5.5142 135.0585,3.33229524 C134.786,3.13166032 134.5085,2.9310254 134.261,2.75546984 C134.561,2.90594603 134.8335,3.10658095 135.1335,3.33229524 C138.011,5.5142 138.1335,8.72435873 136.9335,12.2103905" id="Fill-371" fill="#96A3CD"></path>
                <path d="M124.309,21.7656286 C123.809,22.3173746 123.334,22.8440413 122.8865,23.3456286 L122.8865,23.3707079 L122.859,23.3707079 C122.734,23.4961048 122.609,23.646581 122.509,23.7719778 C116.359,30.4932476 113.9365,32.7253111 108.884,31.7973746 C106.509,31.345946 105.834,29.1640413 105.834,26.806581 C109.084,20.8627714 112.284,16.0475333 114.334,13.0630889 C114.409,12.9878508 114.434,12.9126127 114.484,12.862454 C114.484,12.862454 114.484,12.8373746 114.509,12.8373746 C114.6615,12.6116603 114.809,12.385946 114.934,12.1853111 C115.0865,11.9846762 115.209,11.8091206 115.334,11.6335651 C115.509,11.3827714 115.684,11.1570571 115.834,10.9564222 C115.984,10.7307079 116.134,10.530073 116.259,10.3545175 C116.484,10.0535651 116.659,9.85293016 116.709,9.7526127 C116.734,9.72753333 116.759,9.70245397 116.759,9.70245397 C116.759,9.70245397 116.784,9.6773746 116.809,9.62721587 C116.8615,9.57705714 116.934,9.47673968 117.034,9.35134286 C117.1615,9.20086667 117.309,9.02531111 117.509,8.79959683 C118.859,7.24467619 121.884,4.08467619 125.509,2.50467619 C125.859,2.32912063 126.209,2.20372381 126.584,2.07832698 C126.934,1.95293016 127.309,1.82753333 127.6865,1.75229524 L127.709,1.75229524 C128.984,2.20372381 130.234,3.00626349 130.884,4.5110254 C132.534,8.37324762 131.809,13.4894381 124.309,21.7656286" id="Fill-373" fill="#CDD4E7"></path>
                <path d="M65.10975,59.3345175 C65.10975,63.8989619 61.43475,67.6107079 56.88475,67.6107079 C56.28475,67.6107079 55.70975,67.5605492 55.15975,67.410073 C51.43475,66.6326127 48.63475,63.2970571 48.63475,59.3345175 C48.63475,55.3970571 51.38475,52.1116603 55.03475,51.2840413 C55.63475,51.1335651 56.25975,51.058327 56.88475,51.058327 C61.43475,51.058327 65.10975,54.770073 65.10975,59.3345175" id="Fill-375" fill="#FFFFCF"></path>
                <path d="M79.84875,85.1976127 C79.84875,87.3719937 78.09375,89.1325651 75.92875,89.1325651 C73.75875,89.1325651 72.00375,87.3719937 72.00375,85.1976127 C72.00375,83.0257397 73.75875,81.2626603 75.92875,81.2626603 C78.09375,81.2626603 79.84875,83.0257397 79.84875,85.1976127" id="Fill-377" fill="#FFA337"></path>
                <path d="M63.82825,98.4806476 C63.82825,101.92906 61.04325,104.722902 57.60575,104.722902 C54.16825,104.722902 51.38075,101.92906 51.38075,98.4806476 C51.38075,95.0322349 54.16825,92.2358857 57.60575,92.2358857 C61.04325,92.2358857 63.82825,95.0322349 63.82825,98.4806476" id="Fill-379" fill="#FFA337"></path>
                <path d="M122.60975,49.7547016 C120.83475,49.8800984 118.80725,50.331527 116.68475,51.435019 C116.08475,51.7359714 115.53475,52.1372413 115.05725,52.5886698 C113.78475,51.2594635 112.40975,49.9804159 110.93475,48.751527 C110.95975,48.751527 110.95975,48.7264476 110.95975,48.7264476 C112.25975,46.7702571 113.55975,44.8140667 114.80975,42.983273 C114.80975,42.983273 114.80975,42.9581937 114.83475,42.9581937 C115.53475,43.4848603 116.23475,44.011527 116.93225,44.563273 C118.28475,45.6667651 119.55975,46.7953365 120.80975,47.9489873 L121.70975,48.8518444 C122.03475,49.1527968 122.33475,49.4537492 122.60975,49.7547016" id="Fill-381" fill="#99B4FD"></path>
                <path d="M115.0585,52.588419 C114.3335,53.2404825 113.7585,54.0681016 113.2835,54.9458794 C111.436,58.4319111 111.236,63.1719111 111.2585,65.7550857 C109.061,63.5982603 106.6085,61.5919111 103.936,59.7861968 C104.661,58.5823873 105.4585,57.2782603 106.3085,55.9239746 C106.6835,55.3220698 107.086,54.7201651 107.4585,54.093181 C108.5835,52.3376254 109.7335,50.5319111 110.936,48.7512762 C112.4085,49.9801651 113.7835,51.2592127 115.0585,52.588419" id="Fill-383" fill="#648BFF"></path>
                <path d="M123.65975,92.3136317 C116.38475,110.270457 94.75975,123.311727 69.20975,123.311727 C53.20975,123.311727 38.75975,118.195537 28.38475,109.969505 C38.75975,114.458711 50.18475,115.486965 56.88475,115.587283 C64.28475,115.6876 76.15975,113.30506 79.18475,110.370775 C82.20975,107.436489 78.13475,98.859346 83.03475,97.1037905 C87.93475,95.3231556 92.70975,98.859346 95.10975,100.339029 C97.50975,101.793632 102.60975,101.793632 107.50975,95.8498222 C112.40975,89.8809333 109.80975,79.3225206 104.90975,75.2596635 C101.43475,72.3504571 97.83475,71.8488698 96.05975,71.7987111 C96.13475,71.7736317 96.18475,71.7485524 96.23475,71.723473 C97.58475,71.1466476 98.63475,70.0431556 99.28475,68.7139492 L100.75975,65.6542667 L101.40975,64.2749016 C101.78475,63.5476 102.23475,62.7450603 102.73475,61.8672825 C103.10975,61.215219 103.50975,60.5129968 103.93475,59.7856952 C106.60975,61.5914095 109.05975,63.5977587 111.25975,65.7545841 C118.63475,73.0276 123.23475,82.231727 123.65975,92.3136317" id="Fill-385" fill="#FFA337"></path>
                <path d="M55.15875,67.4105746 C53.05875,67.9623206 49.88625,69.1410508 45.48375,71.7493048 C36.58375,77.0159714 34.46125,79.1226381 29.08375,76.6147016 C25.88375,75.135019 24.43375,71.7994635 24.80875,68.2131143 C32.06125,59.9870825 42.68625,53.8426381 55.03375,51.159146 L55.03375,51.2845429 C51.38375,52.1121619 48.63625,55.3975587 48.63625,59.335019 C48.63625,63.2975587 51.43625,66.6331143 55.15875,67.4105746" id="Fill-387" fill="#FFE96F"></path>
            </g>
        </g>
    </g>
</svg>