<?xml version="1.0" encoding="UTF-8"?>
<svg width="135px" height="138px" viewBox="0 0 135 138" version="1.1" xmlns="http://www.w3.org/2000/svg" xmlns:xlink="http://www.w3.org/1999/xlink">
    <!-- Generator: Sketch 61.1 (89650) - https://sketch.com -->
    <title>2</title>
    <desc>Created with Sketch.</desc>
    <g id="Page-1" stroke="none" stroke-width="1" fill="none" fill-rule="evenodd">
        <g id="Artboard" transform="translate(-432.000000, -194.000000)">
            <g id="2" transform="translate(430.000000, 194.000000)">
                <path d="M31.3245,123.25925 C33.6495,125.70925 36.4495,127.70925 39.5495,129.13425 C36.6745,127.40925 33.9245,125.43425 31.3245,123.25925 L31.3245,123.25925 Z M60.7245,129.53425 C59.2495,128.43425 58.3495,127.05925 58.3495,125.55925 C58.3495,122.23425 62.7245,119.50925 68.3745,119.13425 C54.2245,119.50925 42.2495,113.08425 38.2995,112.80925 C34.1995,112.53425 35.5495,116.48425 35.5495,116.48425 C37.1745,119.20925 42.9745,127.48425 57.1745,130.73425 L57.1995,130.73425 C60.4995,131.48425 64.2495,131.98425 68.5245,132.03425 C65.3495,131.83425 62.5745,130.90925 60.7245,129.53425 L60.7245,129.53425 Z M97.6745,114.03425 C97.6745,114.03425 86.5245,117.58425 73.2995,118.80925 C72.0995,118.90925 70.8995,119.00925 69.6745,119.08425 C70.7995,119.08425 71.8995,119.18425 72.9495,119.35925 C77.6245,120.15925 81.0245,122.63425 81.0245,125.55925 C81.0245,128.93425 76.5745,131.68425 70.8495,132.03425 C93.5245,131.58425 103.5495,117.53425 102.9995,114.85925 C102.4495,112.13425 97.6745,114.03425 97.6745,114.03425 L97.6745,114.03425 Z M104.0245,23.38425 C102.3995,23.98425 101.0245,24.90925 100.5495,26.00925 C99.8995,27.45925 100.3495,29.58425 100.7745,30.98425 C102.1745,31.60925 103.4745,32.35925 104.6745,33.25925 C105.4995,31.85925 106.2245,30.55925 106.6995,29.33425 C107.1495,28.15925 107.3495,26.90925 107.4495,25.60925 C107.4745,24.65925 107.4745,23.70925 107.4495,22.75925 C106.3245,22.78425 105.0995,23.00925 104.0245,23.38425 L104.0245,23.38425 Z M87.6245,22.98425 C85.5495,19.33425 78.8745,18.30925 76.3745,16.43425 C75.5995,15.85925 75.0995,15.15925 74.8995,14.48425 C73.1745,14.35925 71.4245,14.28425 69.6495,14.28425 C56.9245,14.28425 45.1745,17.55925 35.7245,23.10925 C36.0245,23.48425 36.2245,23.90925 36.2745,24.33425 C36.4495,25.83425 35.0745,28.75925 33.7995,32.83425 C32.9995,35.28425 32.2495,38.18425 31.8995,41.43425 C31.2245,47.48425 33.2995,52.18425 34.5995,54.43425 C36.9745,53.53425 39.5245,53.03425 42.2245,53.03425 C54.1745,53.03425 63.8745,62.73425 63.8745,74.68425 C63.8745,77.00925 63.4995,79.23425 62.8245,81.33425 C65.0245,82.45925 67.0495,83.88425 68.8245,85.55925 C68.7495,84.85925 68.7245,84.15925 68.7245,83.43425 C68.7245,76.10925 72.1245,69.55925 77.4245,65.33425 C73.4995,61.50925 71.0495,56.15925 71.0495,50.23425 C71.0495,40.63425 77.4745,32.50925 86.2745,29.98425 C87.2245,29.68425 88.1995,29.48425 89.1745,29.35925 C89.1745,27.83425 88.9495,25.30925 87.6245,22.98425 L87.6245,22.98425 Z M41.4495,74.33425 L41.4745,74.35925 L41.4745,74.33425 L41.4495,74.33425 Z M18.9745,39.13425 L18.9745,38.80925 C15.1245,44.80925 12.9495,51.55925 12.9495,58.73425 C12.9495,63.85925 14.0495,68.78425 16.1245,73.38425 C16.3745,68.03425 17.7495,62.70925 18.1495,61.53425 C18.7745,59.75925 18.7745,57.15925 18.1495,55.05925 C17.5245,52.98425 18.3495,49.33425 19.4995,47.68425 C20.6495,46.00925 19.1995,43.80925 18.9745,39.13425 L18.9745,39.13425 Z" id="Fill-1" fill="#FFFFFC"></path>
                <path d="M136.825,63.2105 C136.775,64.9605 136.625,66.7105 136.35,68.4105 C136.55,66.6855 136.725,64.9605 136.825,63.2105" id="Fill-3" fill="#89D74F"></path>
                <path d="M70.8495,132.035 C70.4495,132.06 70.0745,132.06 69.6745,132.06 C69.2995,132.06 68.8995,132.06 68.5245,132.035 C64.2495,131.985 60.4995,131.485 57.1995,130.735 L57.1745,130.735 C42.9745,127.485 37.1745,119.21 35.5495,116.485 C35.5495,116.485 34.1995,112.535 38.2995,112.81 C42.2495,113.085 54.2245,119.51 68.3745,119.135 C68.7995,119.135 69.2495,119.11 69.6745,119.085 C70.8995,119.01 72.0995,118.91 73.2995,118.81 C86.5245,117.585 97.6745,114.035 97.6745,114.035 C97.6745,114.035 102.4495,112.135 102.9995,114.86 C103.5495,117.535 93.5245,131.585 70.8495,132.035 M75.3995,114.56 C73.4995,114.685 71.5995,114.76 69.6495,114.76 C57.6495,114.76 46.3745,112.285 36.6245,107.935 C32.1745,105.985 28.0495,103.635 24.3245,100.935 C16.3495,95.235 10.1495,88.035 6.4245,79.885 C4.7495,76.235 3.5745,72.41 2.9745,68.41 C3.4995,72.585 4.2745,76.66 5.2745,80.585 C9.1245,95.51 16.4245,108.56 26.0745,118.41 C27.7495,120.135 29.4995,121.76 31.3245,123.26 C33.9245,125.435 36.6745,127.41 39.5495,129.135 C48.5995,134.61 58.8245,137.685 69.6495,137.685 C103.4995,137.685 131.5495,107.61 136.3495,68.41 C132.5745,93.06 107.1495,112.46 75.3995,114.56" id="Fill-5" fill="#B6D3FF"></path>
                <path d="M91.4745,83.4095 L91.4745,99.5845 C84.3495,99.4095 78.3495,94.5845 76.4245,88.0345 C75.9745,86.5845 75.7495,85.0345 75.7495,83.4345 L75.7495,83.4095 L91.4745,83.4095 Z" id="Fill-7" fill="#95E180"></path>
                <path d="M101.25,39.31025 C100.275,41.21025 99.35,43.33525 98.575,45.78525 C97.225,43.81025 94.975,42.51025 92.425,42.43525 C92.325,42.41025 92.25,42.41025 92.15,42.41025 C87.85,42.41025 84.35,45.91025 84.35,50.23525 C84.35,53.51025 86.4,56.33525 89.275,57.48525 C90.15,57.83525 91.125,58.03525 92.15,58.03525 C93.7,58.03525 95.175,57.58525 96.4,56.78525 C96.25,58.11025 96.15,59.38525 96.075,60.61025 C94.725,60.36025 93.35,60.23525 91.925,60.23525 L91.475,60.23525 C90.525,60.26025 89.575,60.33525 88.65,60.48525 C86.95,60.71025 85.325,61.13525 83.75,61.71025 C80.225,59.11025 77.95,54.93525 77.95,50.23525 C77.95,43.01025 83.325,37.03525 90.325,36.13525 C90.925,36.06025 91.525,36.01025 92.15,36.01025 C95.6,36.01025 98.775,37.26025 101.25,39.31025" id="Fill-9" fill="#FFFDCA"></path>
                <path d="M78.90025,102.61 C78.32525,102.685 77.72525,102.76 77.12525,102.81 C74.67525,103.085 72.17525,103.21 69.65025,103.21 C58.27525,103.21 47.65025,100.585 38.77525,96.035 C38.67525,96.01 38.57525,95.96 38.47525,95.885 C34.97525,94.085 31.77525,91.985 28.87525,89.635 C27.82525,88.785 26.82525,87.91 25.87525,87.01 C24.62525,85.835 23.47525,84.61 22.40025,83.335 C20.75025,81.36 19.27525,79.31 18.05025,77.135 C18.97525,77.185 19.87525,77.285 20.77525,77.435 C23.75025,77.96 26.52525,79.085 28.95025,80.71 C28.95025,80.735 28.97525,80.735 28.97525,80.735 C29.30025,80.91 29.57525,81.11 29.90025,81.36 C31.20025,82.31 32.40025,83.435 33.45025,84.66 C35.80025,82.635 38.52525,81.06 41.47525,79.96 C42.85025,79.46 44.30025,79.06 45.77525,78.81 C47.02525,78.56 48.27525,78.435 49.57525,78.385 C49.92525,78.36 50.27525,78.36 50.62525,78.36 C52.52525,78.36 54.40025,78.56 56.20025,78.96 C58.52525,79.435 60.75025,80.26 62.82525,81.335 C65.02525,82.46 67.05025,83.885 68.82525,85.56 C68.97525,87.31 69.35025,89.035 69.87525,90.66 C71.22525,94.76 73.67525,98.385 76.92525,101.11 L76.92525,101.135 C77.55025,101.66 78.20025,102.16 78.90025,102.61" id="Fill-11" fill="#389D4D"></path>
                <path d="M136.8505,62.035 C136.8505,62.435 136.8505,62.81 136.8255,63.21 C136.7255,64.96 136.5505,66.685 136.3505,68.41 C132.5755,93.06 107.1505,112.46 75.4005,114.56 C73.5005,114.685 71.6005,114.76 69.6505,114.76 C57.6505,114.76 46.3755,112.285 36.6255,107.935 C32.1755,105.985 28.0505,103.635 24.3255,100.935 C16.3505,95.235 10.1505,88.035 6.4255,79.885 C4.7505,76.235 3.5755,72.41 2.9755,68.41 C2.7005,66.71 2.5505,64.96 2.5005,63.21 C2.4755,62.81 2.4755,62.435 2.4755,62.035 C2.4755,32.91 32.5505,9.285 69.6505,9.285 C76.5755,9.285 83.2505,10.11 89.5255,11.635 L89.5505,11.635 C90.2505,12.285 90.8005,12.96 90.9505,13.71 C91.3255,15.41 90.9505,16.685 89.9005,17.21 C89.1755,17.585 88.1005,17.585 86.7005,17.06 C85.9755,16.785 85.3255,16.385 84.7255,15.885 C82.5255,14.16 80.8755,11.535 77.9505,11.535 C75.3755,11.535 74.4005,12.985 74.9005,14.485 C73.1755,14.36 71.4255,14.285 69.6505,14.285 C56.9255,14.285 45.1755,17.56 35.7255,23.11 C34.3755,21.335 30.7255,20.31 26.8005,22.885 C22.1005,25.935 18.9255,34.06 18.9755,38.81 C15.1255,44.81 12.9505,51.56 12.9505,58.735 C12.9505,63.86 14.0505,68.785 16.1255,73.385 C16.6755,74.66 17.3005,75.91 18.0505,77.135 C19.2755,79.31 20.7505,81.36 22.4005,83.335 C23.4755,84.61 24.6255,85.835 25.8755,87.01 C26.8255,87.91 27.8255,88.785 28.8755,89.635 C31.7755,91.985 34.9755,94.085 38.4755,95.885 C38.5755,95.96 38.6755,96.01 38.7755,96.035 C47.6505,100.585 58.2755,103.21 69.6505,103.21 C72.1755,103.21 74.6755,103.085 77.1255,102.81 C77.7255,102.76 78.3255,102.685 78.9005,102.61 C83.3005,102.06 87.5005,101.11 91.4755,99.785 C91.6505,99.735 91.8505,99.685 92.0255,99.61 L92.0755,99.61 C96.3755,98.16 100.3755,96.31 104.0505,94.085 L104.0755,94.085 C106.3255,92.76 108.4005,91.285 110.3505,89.685 C112.0255,88.36 113.5755,86.935 115.0255,85.41 C120.0005,80.235 123.5755,74.16 125.2505,67.535 C126.0005,64.685 126.3755,61.76 126.3755,58.735 C126.3755,57.835 126.3505,56.91 126.2505,56.035 L126.2505,56.01 C126.4255,55.535 126.5755,55.11 126.7005,54.66 C128.7755,46.835 121.9005,35.81 117.3005,32.685 C117.3005,32.685 117.0005,32.06 118.4505,29.56 C118.8505,28.86 119.3005,27.91 119.6755,26.81 C130.3505,36.16 136.8505,48.485 136.8505,62.035" id="Fill-13" fill="#E3E9F2"></path>
                <path d="M108.1005,83.4095 L91.4755,83.4095 L91.4755,67.2845 C91.6255,67.2595 91.7755,67.2595 91.9255,67.2595 C93.3005,67.2595 94.6005,67.4345 95.8755,67.7595 C97.4755,68.1345 98.9755,68.7845 100.3505,69.6595 C100.6255,69.7845 100.8755,69.9595 101.1255,70.1595 C103.3755,71.6845 105.2005,73.8095 106.4255,76.2845 C107.5005,78.4345 108.1005,80.8345 108.1005,83.4095" id="Fill-15" fill="#95E180"></path>
                <path d="M34.5995,54.435 C33.2995,54.91 32.0495,55.535 30.8745,56.26 C29.4495,57.135 28.1245,58.185 26.9495,59.36 C23.0245,63.285 20.5995,68.71 20.5995,74.685 C20.5995,75.61 20.6495,76.535 20.7745,77.435 C19.8745,77.285 18.9745,77.185 18.0495,77.135 C17.2995,75.91 16.6745,74.66 16.1245,73.385 C16.3745,68.035 17.7495,62.71 18.1495,61.535 C18.7745,59.76 18.7745,57.16 18.1495,55.06 C17.5245,52.985 18.3495,49.335 19.4995,47.685 C20.6495,46.01 19.1995,43.81 18.9745,39.135 L18.9745,38.81 C18.9245,34.06 22.0995,25.935 26.7995,22.885 C30.7245,20.31 34.3745,21.335 35.7245,23.11 C36.0245,23.485 36.2245,23.91 36.2745,24.335 C36.4495,25.835 35.0745,28.76 33.7995,32.835 C32.9995,35.285 32.2495,38.185 31.8995,41.435 C31.2245,47.485 33.2995,52.185 34.5995,54.435" id="Fill-17" fill="#317E46"></path>
                <path d="M45.77525,78.81 C44.30025,79.06 42.85025,79.46 41.47525,79.96 C38.52525,81.06 35.80025,82.635 33.45025,84.66 C32.40025,83.435 31.20025,82.31 29.90025,81.36 C29.57525,81.11 29.30025,80.91 28.97525,80.735 C28.97525,80.735 28.95025,80.735 28.95025,80.71 C28.12525,78.885 27.65025,76.835 27.65025,74.685 C27.65025,74.56 27.65025,74.46 27.67525,74.335 L41.45025,74.335 L41.47525,74.36 L45.77525,78.81 Z" id="Fill-19" fill="#FF714D"></path>
                <path d="M41.45025,74.33475 L27.67525,74.33475 C27.75025,70.48475 29.32525,66.98475 31.85025,64.43475 L35.40025,68.08475 L41.45025,74.33475 Z" id="Fill-21" fill="#FFD249"></path>
                <path d="M91.4745,67.28525 L91.4745,83.41025 L75.7495,83.41025 C75.7495,77.51025 78.9495,72.33525 83.6995,69.53525 C84.7495,68.88525 85.8995,68.36025 87.0995,67.98525 C88.4745,67.56025 89.9495,67.31025 91.4745,67.28525" id="Fill-23" fill="#D0FEC4"></path>
                <path d="M98.5755,45.785 C98.2255,46.86 97.9005,48.01 97.6255,49.235 C97.0505,51.735 96.6755,54.31 96.4005,56.785 C95.1755,57.585 93.7005,58.035 92.1505,58.035 C91.1255,58.035 90.1505,57.835 89.2755,57.485 C86.4005,56.335 84.3505,53.51 84.3505,50.235 C84.3505,45.91 87.8505,42.41 92.1505,42.41 C92.2505,42.41 92.3255,42.41 92.4255,42.435 C94.9755,42.51 97.2255,43.81 98.5755,45.785" id="Fill-25" fill="#FFD249"></path>
                <path d="M63.8745,74.68525 C63.8745,77.01025 63.4995,79.23525 62.8245,81.33525 C60.7495,80.26025 58.5245,79.43525 56.1995,78.96025 C56.5995,77.61025 56.8245,76.18525 56.8245,74.68525 C56.8245,66.63525 50.2995,60.08525 42.2245,60.08525 C40.4245,60.08525 38.6995,60.41025 37.1245,61.01025 L37.1245,61.03525 C36.5745,61.21025 36.0245,61.43525 35.5245,61.73525 L35.4995,61.73525 C34.1495,62.43525 32.8995,63.36025 31.8495,64.43525 C29.3245,66.98525 27.7495,70.48525 27.6745,74.33525 C27.6495,74.46025 27.6495,74.56025 27.6495,74.68525 C27.6495,76.83525 28.1245,78.88525 28.9495,80.71025 C26.5245,79.08525 23.7495,77.96025 20.7745,77.43525 C20.6495,76.53525 20.5995,75.61025 20.5995,74.68525 C20.5995,68.71025 23.0245,63.28525 26.9495,59.36025 C28.1245,58.18525 29.4495,57.13525 30.8745,56.26025 C32.0495,55.53525 33.2995,54.91025 34.5995,54.43525 C36.9745,53.53525 39.5245,53.03525 42.2245,53.03525 C54.1745,53.03525 63.8745,62.73525 63.8745,74.68525" id="Fill-27" fill="#FFA439"></path>
                <path d="M56.825,74.68525 C56.825,76.18525 56.6,77.61025 56.2,78.96025 C54.4,78.56025 52.525,78.36025 50.625,78.36025 C50.275,78.36025 49.925,78.36025 49.575,78.38525 C48.275,78.43525 47.025,78.56025 45.775,78.81025 L41.475,74.36025 L41.475,74.33525 L41.45,74.33525 L35.4,68.08525 L31.85,64.43525 C32.9,63.36025 34.15,62.43525 35.5,61.73525 L35.525,61.73525 C36.025,61.43525 36.575,61.21025 37.125,61.03525 L37.125,61.01025 C38.7,60.41025 40.425,60.08525 42.225,60.08525 C50.3,60.08525 56.825,66.63525 56.825,74.68525" id="Fill-29" fill="#FFFDCA"></path>
                <path d="M71.04975,50.2345 C71.04975,56.1595 73.49975,61.5095 77.42475,65.3345 C72.12475,69.5595 68.72475,76.1095 68.72475,83.4345 C68.72475,84.1595 68.74975,84.8595 68.82475,85.5595 C67.04975,83.8845 65.02475,82.4595 62.82475,81.3345 C63.49975,79.2345 63.87475,77.0095 63.87475,74.6845 C63.87475,62.7345 54.17475,53.0345 42.22475,53.0345 C39.52475,53.0345 36.97475,53.5345 34.59975,54.4345 C33.29975,52.1845 31.22475,47.4845 31.89975,41.4345 C32.24975,38.1845 32.99975,35.2845 33.79975,32.8345 C37.27475,31.2095 43.02475,29.7845 51.37475,31.6345 C51.37475,31.6345 58.44975,19.4345 72.82475,21.7345 C78.72475,22.6845 83.12475,26.1845 86.27475,29.9845 C77.47475,32.5095 71.04975,40.6345 71.04975,50.2345" id="Fill-31" fill="#89D74F"></path>
                <path d="M115.1245,83.43525 C115.1245,84.11025 115.0995,84.76025 115.0245,85.41025 C113.5745,86.93525 112.0245,88.36025 110.3495,89.68525 C108.3995,91.28525 106.3245,92.76025 104.0745,94.08525 C105.5495,92.41025 106.6745,90.46025 107.3495,88.28525 C107.8495,86.76025 108.0995,85.13525 108.0995,83.43525 L108.0995,83.41025 C108.0995,80.83525 107.4995,78.43525 106.4245,76.28525 C105.1995,73.81025 103.3745,71.68525 101.1245,70.16025 C100.8745,69.96025 100.6245,69.78525 100.3495,69.66025 C98.9745,68.78525 97.4745,68.13525 95.8745,67.76025 C94.5995,67.43525 93.2995,67.26025 91.9245,67.26025 C91.7745,67.26025 91.6245,67.26025 91.4745,67.28525 C89.9495,67.31025 88.4745,67.56025 87.0995,67.98525 C85.8995,68.36025 84.7495,68.88525 83.6995,69.53525 C78.9495,72.33525 75.7495,77.51025 75.7495,83.41025 L75.7495,83.43525 C75.7495,85.03525 75.9745,86.58525 76.4245,88.03525 C78.3495,94.58525 84.3495,99.41025 91.4745,99.58525 C91.6245,99.61025 91.7745,99.61025 91.9245,99.61025 L92.0245,99.61025 C91.8495,99.68525 91.6495,99.73525 91.4745,99.78525 C87.4995,101.11025 83.2995,102.06025 78.8995,102.61025 C78.1995,102.16025 77.5495,101.66025 76.9245,101.13525 L76.9245,101.11025 C73.6745,98.38525 71.2245,94.76025 69.8745,90.66025 C69.3495,89.03525 68.9745,87.31025 68.8245,85.56025 C68.7495,84.86025 68.7245,84.16025 68.7245,83.43525 C68.7245,76.11025 72.1245,69.56025 77.4245,65.33525 C79.2995,63.81025 81.4495,62.58525 83.7495,61.71025 C85.3245,61.13525 86.9495,60.71025 88.6495,60.48525 C89.5745,60.33525 90.5245,60.26025 91.4745,60.23525 L91.9245,60.23525 C93.3495,60.23525 94.7245,60.36025 96.0745,60.61025 C97.5745,60.88525 98.9995,61.28525 100.3745,61.83525 C101.9245,62.43525 103.3745,63.18525 104.7495,64.11025 C105.4245,64.56025 106.0495,65.03525 106.6745,65.53525 C109.6495,67.96025 111.9745,71.13525 113.4495,74.73525 C114.5245,77.41025 115.1245,80.36025 115.1245,83.43525" id="Fill-33" fill="#4BB500"></path>
                <path d="M108.1005,83.4095 L108.1005,83.4345 C108.1005,85.1345 107.8505,86.7595 107.3505,88.2845 C106.6755,90.4595 105.5505,92.4095 104.0755,94.0845 L104.0505,94.0845 C100.3755,96.3095 96.3755,98.1595 92.0755,99.6095 L92.0255,99.6095 L91.9255,99.6095 C91.7755,99.6095 91.6255,99.6095 91.4755,99.5845 L91.4755,83.4095 L108.1005,83.4095 Z" id="Fill-35" fill="#D0FEC4"></path>
                <path d="M115.02575,85.41025 C115.10075,84.76025 115.12575,84.11025 115.12575,83.43525 C115.12575,80.36025 114.52575,77.41025 113.45075,74.73525 C111.97575,71.13525 109.65075,67.96025 106.67575,65.53525 C106.05075,65.03525 105.42575,64.56025 104.75075,64.11025 C105.62575,64.11025 106.65075,64.18525 107.72575,64.46025 L107.75075,64.46025 C110.07575,65.03525 112.70075,66.41025 114.92575,69.43525 C114.92575,69.43525 115.75075,68.83525 117.02575,68.23525 L117.05075,68.21025 C119.12575,67.23525 122.35075,66.23525 125.25075,67.53525 C123.57575,74.16025 120.00075,80.23525 115.02575,85.41025" id="Fill-37" fill="#2EA454"></path>
                <path d="M126.25,56.0095 L126.25,56.0345 C126.35,56.9095 126.375,57.8345 126.375,58.7345 C126.375,61.7595 126,64.6845 125.25,67.5345 C122.35,66.2345 119.125,67.2345 117.05,68.2095 L117.025,68.2345 C115.75,68.8345 114.925,69.4345 114.925,69.4345 C112.7,66.4095 110.075,65.0345 107.75,64.4595 L107.725,64.4595 C106.65,64.1845 105.625,64.1095 104.75,64.1095 C103.375,63.1845 101.925,62.4345 100.375,61.8345 C99,61.2845 97.575,60.8845 96.075,60.6095 C96.15,59.3845 96.25,58.1095 96.4,56.7845 C96.675,54.3095 97.05,51.7345 97.625,49.2345 C97.9,48.0095 98.225,46.8595 98.575,45.7845 C99.35,43.3345 100.275,41.2095 101.25,39.3095 C102.425,36.9845 103.65,35.0095 104.675,33.2595 C105.5,31.8595 106.225,30.5595 106.7,29.3345 C107.15,28.1595 107.35,26.9095 107.45,25.6095 C107.475,24.6595 107.475,23.7095 107.45,22.7595 C107.4,21.2595 107.3,19.7595 107.325,18.3595 C107.35,17.2845 107.45,16.2345 107.7,15.3095 C107.725,15.1595 107.775,15.0095 107.825,14.8595 C109.2,10.8095 114.3,11.9595 118.15,16.5345 C120.95,19.8595 120.625,23.8845 119.675,26.8095 C119.3,27.9095 118.85,28.8595 118.45,29.5595 C117,32.0595 117.3,32.6845 117.3,32.6845 C121.9,35.8095 128.775,46.8345 126.7,54.6595 C126.575,55.1095 126.425,55.5345 126.25,56.0095" id="Fill-39" fill="#307D45"></path>
                <path d="M113.6755,8.70975 C110.2255,10.80975 107.7255,10.58475 106.7005,12.35975 C105.9255,13.65975 107.0255,14.68475 107.7005,15.30975 C107.4505,16.23475 107.3505,17.28475 107.3255,18.35975 C107.3005,19.75975 107.4005,21.25975 107.4505,22.75975 C106.3255,22.78475 105.1005,23.00975 104.0255,23.38475 C102.4005,23.98475 101.0255,24.90975 100.5505,26.00975 C99.9005,27.45975 100.3505,29.58475 100.7755,30.98475 C98.1505,29.78475 95.2255,29.13475 92.1505,29.13475 C91.1505,29.13475 90.1505,29.20975 89.1755,29.35975 C89.1755,27.83475 88.9505,25.30975 87.6255,22.98475 C85.5505,19.33475 78.8755,18.30975 76.3755,16.43475 C75.6005,15.85975 75.1005,15.15975 74.9005,14.48475 C74.4005,12.98475 75.3755,11.53475 77.9505,11.53475 C80.8755,11.53475 82.5255,14.15975 84.7255,15.88475 C85.3255,16.38475 85.9755,16.78475 86.7005,17.05975 C88.1005,17.58475 89.1755,17.58475 89.9005,17.20975 C90.9505,16.68475 91.3255,15.40975 90.9505,13.70975 C90.8005,12.95975 90.2505,12.28475 89.5505,11.63475 L89.5255,11.63475 C87.5255,9.85975 84.2255,8.40975 83.9755,6.43475 C83.6755,3.70975 86.9005,2.15975 91.8005,3.70975 C96.7005,5.28475 97.9505,9.43475 98.5505,10.90975 C99.2005,12.35975 100.3255,10.18475 100.3255,10.18475 C101.8005,7.35975 107.3005,3.08475 110.1255,1.30975 C112.9505,-0.44025 116.0505,-0.66525 117.1005,2.05975 C118.1505,4.75975 117.1005,6.63475 113.6755,8.70975" id="Fill-41" fill="#389D59"></path>
                <path d="M104.67525,33.25925 C103.65025,35.00925 102.42525,36.98425 101.25025,39.30925 C98.77525,37.25925 95.60025,36.00925 92.15025,36.00925 C91.52525,36.00925 90.92525,36.05925 90.32525,36.13425 C83.32525,37.03425 77.95025,43.00925 77.95025,50.23425 C77.95025,54.93425 80.22525,59.10925 83.75025,61.70925 C81.45025,62.58425 79.30025,63.80925 77.42525,65.33425 C73.50025,61.50925 71.05025,56.15925 71.05025,50.23425 C71.05025,40.63425 77.47525,32.50925 86.27525,29.98425 C87.22525,29.68425 88.20025,29.48425 89.17525,29.35925 C90.15025,29.20925 91.15025,29.13425 92.15025,29.13425 C95.22525,29.13425 98.15025,29.78425 100.77525,30.98425 C102.17525,31.60925 103.47525,32.35925 104.67525,33.25925" id="Fill-43" fill="#FF714D"></path>
                <path d="M81.0255,125.56025 C81.0255,128.93525 76.5755,131.68525 70.8505,132.03525 C70.4505,132.06025 70.0755,132.06025 69.6755,132.06025 C69.3005,132.06025 68.9005,132.06025 68.5255,132.03525 C65.3505,131.83525 62.5755,130.91025 60.7255,129.53525 C59.2505,128.43525 58.3505,127.06025 58.3505,125.56025 C58.3505,122.23525 62.7255,119.51025 68.3755,119.13525 C68.8005,119.13525 69.2505,119.11025 69.6755,119.08525 C70.8005,119.08525 71.9005,119.18525 72.9505,119.36025 C77.6255,120.16025 81.0255,122.63525 81.0255,125.56025" id="Fill-45" fill="#FFFFFF"></path>
                <path d="M68.5255,132.035 C64.2505,131.985 60.5005,131.485 57.2005,130.735 L57.1755,130.735 C42.9755,127.485 37.1755,119.21 35.5505,116.485 C35.5505,116.485 34.2005,112.535 38.3005,112.81 C42.2505,113.085 54.2255,119.51 68.3755,119.135 C62.7255,119.51 58.3505,122.235 58.3505,125.56 C58.3505,127.06 59.2505,128.435 60.7255,129.535 C62.5755,130.91 65.3505,131.835 68.5255,132.035" id="Fill-47" fill="#E7ECF9"></path>
                <path d="M103.0005,114.85975 C103.5505,117.53475 93.5255,131.58475 70.8505,132.03475 C76.5755,131.68475 81.0255,128.93475 81.0255,125.55975 C81.0255,122.63475 77.6255,120.15975 72.9505,119.35975 C71.9005,119.18475 70.8005,119.08475 69.6755,119.08475 C70.9005,119.00975 72.1005,118.90975 73.3005,118.80975 C86.5255,117.58475 97.6755,114.03475 97.6755,114.03475 C97.6755,114.03475 102.4505,112.13475 103.0005,114.85975" id="Fill-49" fill="#5BB491"></path>
            </g>
        </g>
    </g>
</svg>