<?xml version="1.0" encoding="UTF-8"?>
<svg width="140px" height="122px" viewBox="0 0 140 122" version="1.1" xmlns="http://www.w3.org/2000/svg" xmlns:xlink="http://www.w3.org/1999/xlink">
    <!-- Generator: Sketch 61.1 (89650) - https://sketch.com -->
    <title>3</title>
    <desc>Created with Sketch.</desc>
    <g id="Page-1" stroke="none" stroke-width="1" fill="none" fill-rule="evenodd">
        <g id="Artboard" transform="translate(-683.000000, -203.000000)">
            <g id="3" transform="translate(683.000000, 203.000000)">
                <path d="M129.561185,90.0336638 C119.787111,108.748983 96.7674815,121.883451 69.9056296,121.883451 C42.9945185,121.883451 19.9204444,108.697068 10.1722963,89.9557915 C22.4093333,104.959196 44.5785926,114.952813 69.9056296,114.952813 C95.1574815,114.952813 117.300815,104.985153 129.561185,90.0336638" id="Fill-123" fill="#FFFFFF"></path>
                <path d="M100.422519,68.9050809 L100.422519,69.5799745 C100.344741,69.5799745 100.290296,69.6059319 100.215111,69.6059319 C94.0162222,70.306783 89.3495556,72.6429532 84.1151111,77.6008255 C83.804,76.9778468 83.6458519,76.2769957 83.6458519,75.5501872 L83.6458519,68.9050809 C83.6458519,66.2055064 85.8521481,63.9991234 88.5484444,63.9991234 L95.5199259,63.9991234 C98.2162222,63.9991234 100.422519,66.2055064 100.422519,68.9050809" id="Fill-125" fill="#FFFFFF"></path>
                <path d="M118.205889,63.9988638 C114.705889,66.1273745 111.001074,67.4252468 107.705889,68.2558851 C107.993667,65.8678 110.065148,63.9988638 112.530704,63.9988638 L118.205889,63.9988638 Z" id="Fill-127" fill="#FFFFFF"></path>
                <path d="M63.8908148,56.8860043 L63.5278519,56.9638766 L63.5278519,56.8600468 C63.6315556,56.8860043 63.7611852,56.9119617 63.8908148,56.8860043" id="Fill-129" fill="#FFFFFF"></path>
                <path d="M51.576,77.6519617 C51.5241481,77.7038766 51.4748889,77.7557915 51.3971111,77.7817489 C51.3711852,77.729834 51.3426667,77.6519617 51.3711852,77.6000468 C51.4204444,77.6260043 51.5008148,77.6519617 51.576,77.6519617" id="Fill-131" fill="#FFFFFF"></path>
                <path d="M100.422519,20.7799745 L100.422519,27.4250809 C100.422519,28.3855064 100.137333,29.294017 99.6421481,30.0727404 L96.5336296,27.2433787 C95.4447407,26.2829532 94.0965926,25.7897617 92.7484444,25.7897617 C91.3199259,25.7897617 89.8706667,26.3348681 88.7817778,27.4250809 C87.5114074,28.6710383 86.9151111,30.3582723 86.966963,32.0455064 C85.0458519,31.3965702 83.6458519,29.5795489 83.6458519,27.4250809 L83.6458519,20.7799745 C83.6458519,20.5723149 83.6095556,19.2744426 83.6588148,19.0927404 C83.9465926,18.8072085 84.0528889,18.6073362 84.3380741,18.3218043 C84.364,18.3218043 84.631037,17.9739745 84.631037,17.9739745 C86.0828889,16.6501447 86.534,16.8344426 88.1647407,15.874017 L95.5199259,15.874017 C98.2162222,15.874017 100.422519,18.0804 100.422519,20.7799745" id="Fill-133" fill="#D24E55"></path>
                <path d="M100.422519,48.4763106 L100.422519,52.0065234 C100.422519,54.7060979 98.2162222,56.9124809 95.5199259,56.9124809 L92.0484444,56.9124809 L99.5928889,49.0733319 C99.8262222,48.8137574 100.111407,48.6060979 100.422519,48.4763106" id="Fill-135" fill="#FFFFFF"></path>
                <path d="M124.404,45.3608979 L124.404,52.0060043 C124.404,54.7055787 122.197704,56.9119617 119.501407,56.9119617 L112.529926,56.9119617 C109.83363,56.9119617 107.627333,54.7055787 107.627333,52.0060043 L107.627333,51.3830255 C108.018815,51.4868553 108.43363,51.5387702 108.819926,51.5387702 C110.170667,51.5387702 111.516222,50.9677064 112.501407,49.8515362 C114.707704,47.3336638 114.500296,43.5179191 112.011407,41.2855787 L111.282889,40.6366426 C111.67437,40.5068553 112.089185,40.4549404 112.529926,40.4549404 L119.501407,40.4549404 C122.197704,40.4549404 124.404,42.6613234 124.404,45.3608979" id="Fill-137" fill="#FFFFFF"></path>
                <path d="M49.6847037,104.881843 C28.1143333,99.0673745 11.9624815,84.1418426 8.74766667,65.9975872 C13.2328519,75.9912043 23.2921111,82.9737574 34.9587778,82.9737574 C38.9254444,82.9737574 42.6847037,82.1690766 46.1328519,80.7154596 C46.2106296,80.6895021 46.2884074,80.6375872 46.3661852,80.6116298 L46.4698889,82.0133319 L46.4698889,82.0392894 L47.4550741,98.2886511 C47.4550741,98.2886511 47.4550741,101.45546 49.6847037,104.881843" id="Fill-139" fill="#FFFFFF"></path>
                <path d="M41.3878889,71.8634511 C39.3915926,72.6421745 37.2164074,73.0315362 34.9608519,73.0315362 C24.5904815,73.0315362 16.1645556,64.6213234 16.1645556,54.2383447 C16.1645556,49.2804723 18.0804815,44.7379191 21.2434444,41.3894085 L35.9201111,54.7055787 C35.761963,55.6919617 35.6841852,56.7043021 35.6841852,57.7166426 C35.6841852,63.2196213 37.836037,68.1774936 41.3878889,71.8634511" id="Fill-141" fill="#FFFFFF"></path>
                <path d="M51.6542963,62.8048213 C51.1642963,63.7912043 50.5913333,64.6997149 49.9172593,65.5563106 C50.4617037,64.6997149 51.0320741,63.7912043 51.6542963,62.8048213" id="Fill-143" fill="#FFFFFF"></path>
                <path d="M61.5841852,43.2848213 C61.5841852,43.3107787 61.5582593,43.3626936 61.5323333,43.3886511 C61.5323333,43.3367362 61.5064074,43.2848213 61.4804815,43.2588638 C61.5323333,43.2588638 61.5582593,43.2588638 61.5841852,43.2848213" id="Fill-145" fill="#FFFFFF"></path>
                <path d="M64.1767778,17.0156255 C63.1423333,17.0156255 62.1545556,16.807966 61.2471481,16.4705191 C62.2064074,16.6003064 63.1915926,16.7820085 64.1767778,17.0156255" id="Fill-147" fill="#FFFFFF"></path>
                <path d="M66.6908148,1.31188936 C66.0971111,1.15614468 65.4722963,1.05231489 64.8785926,0.974442553 C64.7463704,0.948485106 64.6426667,0.92252766 64.513037,0.92252766 C64.6167407,0.896570213 64.7463704,0.92252766 64.8500741,0.948485106 C65.4722963,0.974442553 66.0971111,1.10422979 66.6908148,1.31188936" id="Fill-149" fill="#FFFFFF"></path>
                <path d="M72.395037,11.0978468 L71.9542963,11.0978468 L71.9542963,11.0718894 C72.1124444,11.0718894 72.2394815,11.0718894 72.395037,11.0978468" id="Fill-151" fill="#FFFFFF"></path>
                <path d="M117.611148,89.9043957 C108.69263,98.4184383 96.1185556,104.466523 81.7815185,106.646949 C82.2741111,106.075885 82.7148519,105.478864 83.0778148,104.80397 C87.5344815,96.8090766 97.5704074,94.2912043 102.130778,93.9537574 C104.440778,93.7980128 111.103741,92.8635447 117.611148,89.9043957" id="Fill-153" fill="#FFFFFF"></path>
                <path d="M100.422519,68.9050809 L100.422519,69.5799745 C100.344741,69.5799745 100.290296,69.6059319 100.215111,69.6059319 C94.0162222,70.306783 89.3495556,72.6429532 84.1151111,77.6008255 C83.804,76.9778468 83.6458519,76.2769957 83.6458519,75.5501872 L83.6458519,68.9050809 C83.6458519,66.2055064 85.8521481,63.9991234 88.5484444,63.9991234 L95.5199259,63.9991234 C98.2162222,63.9991234 100.422519,66.2055064 100.422519,68.9050809" id="Fill-155" fill="#FFFFFF"></path>
                <path d="M118.205889,63.9988638 C114.705889,66.1273745 111.001074,67.4252468 107.705889,68.2558851 C107.993667,65.8678 110.065148,63.9988638 112.530704,63.9988638 L118.205889,63.9988638 Z" id="Fill-157" fill="#FFFFFF"></path>
                <path d="M63.8908148,56.8860043 L63.5278519,56.9638766 L63.5278519,56.8600468 C63.6315556,56.8860043 63.7611852,56.9119617 63.8908148,56.8860043" id="Fill-159" fill="#FFFFFF"></path>
                <path d="M51.576,77.6519617 C51.5241481,77.7038766 51.4748889,77.7557915 51.3971111,77.7817489 C51.3711852,77.729834 51.3426667,77.6519617 51.3711852,77.6000468 C51.4204444,77.6260043 51.5008148,77.6519617 51.576,77.6519617" id="Fill-161" fill="#FFFFFF"></path>
                <path d="M100.422519,48.4763106 L100.422519,52.0065234 C100.422519,54.7060979 98.2162222,56.9124809 95.5199259,56.9124809 L92.0484444,56.9124809 L99.5928889,49.0733319 C99.8262222,48.8137574 100.111407,48.6060979 100.422519,48.4763106" id="Fill-163" fill="#FFFFFF"></path>
                <path d="M124.404,45.3608979 L124.404,52.0060043 C124.404,54.7055787 122.197704,56.9119617 119.501407,56.9119617 L112.529926,56.9119617 C109.83363,56.9119617 107.627333,54.7055787 107.627333,52.0060043 L107.627333,51.3830255 C108.018815,51.4868553 108.43363,51.5387702 108.819926,51.5387702 C110.170667,51.5387702 111.516222,50.9677064 112.501407,49.8515362 C114.707704,47.3336638 114.500296,43.5179191 112.011407,41.2855787 L111.282889,40.6366426 C111.67437,40.5068553 112.089185,40.4549404 112.529926,40.4549404 L119.501407,40.4549404 C122.197704,40.4549404 124.404,42.6613234 124.404,45.3608979" id="Fill-165" fill="#FFFFFF"></path>
                <path d="M49.6847037,104.881843 C28.1143333,99.0673745 11.9624815,84.1418426 8.74766667,65.9975872 C13.2328519,75.9912043 23.2921111,82.9737574 34.9587778,82.9737574 C38.9254444,82.9737574 42.6847037,82.1690766 46.1328519,80.7154596 C46.2106296,80.6895021 46.2884074,80.6375872 46.3661852,80.6116298 L46.4698889,82.0133319 L46.4698889,82.0392894 L47.4550741,98.2886511 C47.4550741,98.2886511 47.4550741,101.45546 49.6847037,104.881843" id="Fill-167" fill="#FFFFFF"></path>
                <path d="M41.3878889,71.8634511 C39.3915926,72.6421745 37.2164074,73.0315362 34.9608519,73.0315362 C24.5904815,73.0315362 16.1645556,64.6213234 16.1645556,54.2383447 C16.1645556,49.2804723 18.0804815,44.7379191 21.2434444,41.3894085 L35.9201111,54.7055787 C35.761963,55.6919617 35.6841852,56.7043021 35.6841852,57.7166426 C35.6841852,63.2196213 37.836037,68.1774936 41.3878889,71.8634511" id="Fill-169" fill="#FFFFFF"></path>
                <path d="M51.6542963,62.8048213 C51.1642963,63.7912043 50.5913333,64.6997149 49.9172593,65.5563106 C50.4617037,64.6997149 51.0320741,63.7912043 51.6542963,62.8048213" id="Fill-171" fill="#FFFFFF"></path>
                <path d="M61.5841852,43.2848213 C61.5841852,43.3107787 61.5582593,43.3626936 61.5323333,43.3886511 C61.5323333,43.3367362 61.5064074,43.2848213 61.4804815,43.2588638 C61.5323333,43.2588638 61.5582593,43.2588638 61.5841852,43.2848213" id="Fill-173" fill="#FFFFFF"></path>
                <path d="M64.1767778,17.0156255 C63.1423333,17.0156255 62.1545556,16.807966 61.2471481,16.4705191 C62.2064074,16.6003064 63.1915926,16.7820085 64.1767778,17.0156255" id="Fill-175" fill="#FFFFFF"></path>
                <path d="M117.611148,89.9043957 C108.69263,98.4184383 96.1185556,104.466523 81.7815185,106.646949 C82.2741111,106.075885 82.7148519,105.478864 83.0778148,104.80397 C87.5344815,96.8090766 97.5704074,94.2912043 102.130778,93.9537574 C104.440778,93.7980128 111.103741,92.8635447 117.611148,89.9043957" id="Fill-177" fill="#FFFFFF"></path>
                <path d="M100.422519,68.9050809 L100.422519,69.5799745 C100.344741,69.5799745 100.290296,69.6059319 100.215111,69.6059319 C94.0162222,70.306783 89.3495556,72.6429532 84.1151111,77.6008255 C83.804,76.9778468 83.6458519,76.2769957 83.6458519,75.5501872 L83.6458519,68.9050809 C83.6458519,66.2055064 85.8521481,63.9991234 88.5484444,63.9991234 L95.5199259,63.9991234 C98.2162222,63.9991234 100.422519,66.2055064 100.422519,68.9050809" id="Fill-179" fill="#FFFFFF"></path>
                <path d="M118.205889,63.9988638 C114.705889,66.1273745 111.001074,67.4252468 107.705889,68.2558851 C107.993667,65.8678 110.065148,63.9988638 112.530704,63.9988638 L118.205889,63.9988638 Z" id="Fill-181" fill="#FFFFFF"></path>
                <path d="M63.8908148,56.8860043 L63.5278519,56.9638766 L63.5278519,56.8600468 C63.6315556,56.8860043 63.7611852,56.9119617 63.8908148,56.8860043" id="Fill-183" fill="#FFFFFF"></path>
                <path d="M51.576,77.6519617 C51.5241481,77.7038766 51.4748889,77.7557915 51.3971111,77.7817489 C51.3711852,77.729834 51.3426667,77.6519617 51.3711852,77.6000468 C51.4204444,77.6260043 51.5008148,77.6519617 51.576,77.6519617" id="Fill-185" fill="#FFFFFF"></path>
                <path d="M100.422519,48.4763106 L100.422519,52.0065234 C100.422519,54.7060979 98.2162222,56.9124809 95.5199259,56.9124809 L92.0484444,56.9124809 L99.5928889,49.0733319 C99.8262222,48.8137574 100.111407,48.6060979 100.422519,48.4763106" id="Fill-187" fill="#FFFFFF"></path>
                <path d="M124.404,45.3608979 L124.404,52.0060043 C124.404,54.7055787 122.197704,56.9119617 119.501407,56.9119617 L112.529926,56.9119617 C109.83363,56.9119617 107.627333,54.7055787 107.627333,52.0060043 L107.627333,51.3830255 C108.018815,51.4868553 108.43363,51.5387702 108.819926,51.5387702 C110.170667,51.5387702 111.516222,50.9677064 112.501407,49.8515362 C114.707704,47.3336638 114.500296,43.5179191 112.011407,41.2855787 L111.282889,40.6366426 C111.67437,40.5068553 112.089185,40.4549404 112.529926,40.4549404 L119.501407,40.4549404 C122.197704,40.4549404 124.404,42.6613234 124.404,45.3608979" id="Fill-189" fill="#FFFFFF"></path>
                <path d="M49.6847037,104.881843 C28.1143333,99.0673745 11.9624815,84.1418426 8.74766667,65.9975872 C13.2328519,75.9912043 23.2921111,82.9737574 34.9587778,82.9737574 C38.9254444,82.9737574 42.6847037,82.1690766 46.1328519,80.7154596 C46.2106296,80.6895021 46.2884074,80.6375872 46.3661852,80.6116298 L46.4698889,82.0133319 L46.4698889,82.0392894 L47.4550741,98.2886511 C47.4550741,98.2886511 47.4550741,101.45546 49.6847037,104.881843" id="Fill-191" fill="#FFFFFF"></path>
                <path d="M41.3878889,71.8634511 C39.3915926,72.6421745 37.2164074,73.0315362 34.9608519,73.0315362 C24.5904815,73.0315362 16.1645556,64.6213234 16.1645556,54.2383447 C16.1645556,49.2804723 18.0804815,44.7379191 21.2434444,41.3894085 L35.9201111,54.7055787 C35.761963,55.6919617 35.6841852,56.7043021 35.6841852,57.7166426 C35.6841852,63.2196213 37.836037,68.1774936 41.3878889,71.8634511" id="Fill-193" fill="#FFFFFF"></path>
                <path d="M51.6542963,62.8048213 C51.1642963,63.7912043 50.5913333,64.6997149 49.9172593,65.5563106 C50.4617037,64.6997149 51.0320741,63.7912043 51.6542963,62.8048213" id="Fill-195" fill="#FFFFFF"></path>
                <path d="M61.5841852,43.2848213 C61.5841852,43.3107787 61.5582593,43.3626936 61.5323333,43.3886511 C61.5323333,43.3367362 61.5064074,43.2848213 61.4804815,43.2588638 C61.5323333,43.2588638 61.5582593,43.2588638 61.5841852,43.2848213" id="Fill-197" fill="#FFFFFF"></path>
                <path d="M64.1767778,17.0156255 C63.1423333,17.0156255 62.1545556,16.807966 61.2471481,16.4705191 C62.2064074,16.6003064 63.1915926,16.7820085 64.1767778,17.0156255" id="Fill-199" fill="#FFFFFF"></path>
                <path d="M72.395037,11.0978468 L71.9542963,11.0978468 L71.9542963,11.0718894 C72.1124444,11.0718894 72.2394815,11.0718894 72.395037,11.0978468" id="Fill-201" fill="#FFFFFF"></path>
                <path d="M117.611148,89.9043957 C108.69263,98.4184383 96.1185556,104.466523 81.7815185,106.646949 C82.2741111,106.075885 82.7148519,105.478864 83.0778148,104.80397 C87.5344815,96.8090766 97.5704074,94.2912043 102.130778,93.9537574 C104.440778,93.7980128 111.103741,92.8635447 117.611148,89.9043957" id="Fill-203" fill="#FFFFFF"></path>
                <path d="M129.561185,90.0336638 C119.787111,108.748983 96.7674815,121.883451 69.9056296,121.883451 C42.9945185,121.883451 19.9204444,108.697068 10.1722963,89.9557915 C22.4093333,104.959196 44.5785926,114.952813 69.9056296,114.952813 C95.1574815,114.952813 117.300815,104.985153 129.561185,90.0336638" id="Fill-205" fill="#93B5FC"></path>
                <path d="M100.422519,68.9050809 L100.422519,69.5799745 C100.344741,69.5799745 100.290296,69.6059319 100.215111,69.6059319 C94.0162222,70.306783 89.3495556,72.6429532 84.1151111,77.6008255 C83.804,76.9778468 83.6458519,76.2769957 83.6458519,75.5501872 L83.6458519,68.9050809 C83.6458519,66.2055064 85.8521481,63.9991234 88.5484444,63.9991234 L95.5199259,63.9991234 C98.2162222,63.9991234 100.422519,66.2055064 100.422519,68.9050809" id="Fill-207" fill="#FFFFFF"></path>
                <path d="M118.205889,63.9988638 C114.705889,66.1273745 111.001074,67.4252468 107.705889,68.2558851 C107.993667,65.8678 110.065148,63.9988638 112.530704,63.9988638 L118.205889,63.9988638 Z" id="Fill-209" fill="#FFFFFF"></path>
                <path d="M63.8908148,56.8860043 L63.5278519,56.9638766 L63.5278519,56.8600468 C63.6315556,56.8860043 63.7611852,56.9119617 63.8908148,56.8860043" id="Fill-211" fill="#FFFFFF"></path>
                <path d="M51.576,77.6519617 C51.5241481,77.7038766 51.4748889,77.7557915 51.3971111,77.7817489 C51.3711852,77.729834 51.3426667,77.6519617 51.3711852,77.6000468 C51.4204444,77.6260043 51.5008148,77.6519617 51.576,77.6519617" id="Fill-213" fill="#FFFFFF"></path>
                <path d="M100.422519,48.4763106 L100.422519,52.0065234 C100.422519,54.7060979 98.2162222,56.9124809 95.5199259,56.9124809 L92.0484444,56.9124809 L99.5928889,49.0733319 C99.8262222,48.8137574 100.111407,48.6060979 100.422519,48.4763106" id="Fill-215" fill="#FFFFFF"></path>
                <path d="M124.404,45.3608979 L124.404,52.0060043 C124.404,54.7055787 122.197704,56.9119617 119.501407,56.9119617 L112.529926,56.9119617 C109.83363,56.9119617 107.627333,54.7055787 107.627333,52.0060043 L107.627333,51.3830255 C108.018815,51.4868553 108.43363,51.5387702 108.819926,51.5387702 C110.170667,51.5387702 111.516222,50.9677064 112.501407,49.8515362 C114.707704,47.3336638 114.500296,43.5179191 112.011407,41.2855787 L111.282889,40.6366426 C111.67437,40.5068553 112.089185,40.4549404 112.529926,40.4549404 L119.501407,40.4549404 C122.197704,40.4549404 124.404,42.6613234 124.404,45.3608979" id="Fill-217" fill="#FFFFFF"></path>
                <path d="M49.6847037,104.881843 C28.1143333,99.0673745 11.9624815,84.1418426 8.74766667,65.9975872 C13.2328519,75.9912043 23.2921111,82.9737574 34.9587778,82.9737574 C38.9254444,82.9737574 42.6847037,82.1690766 46.1328519,80.7154596 C46.2106296,80.6895021 46.2884074,80.6375872 46.3661852,80.6116298 L46.4698889,82.0133319 L46.4698889,82.0392894 L47.4550741,98.2886511 C47.4550741,98.2886511 47.4550741,101.45546 49.6847037,104.881843" id="Fill-219" fill="#FFFFFF"></path>
                <path d="M41.3878889,71.8634511 C39.3915926,72.6421745 37.2164074,73.0315362 34.9608519,73.0315362 C24.5904815,73.0315362 16.1645556,64.6213234 16.1645556,54.2383447 C16.1645556,49.2804723 18.0804815,44.7379191 21.2434444,41.3894085 L35.9201111,54.7055787 C35.761963,55.6919617 35.6841852,56.7043021 35.6841852,57.7166426 C35.6841852,63.2196213 37.836037,68.1774936 41.3878889,71.8634511" id="Fill-221" fill="#FFFFFF"></path>
                <path d="M51.6542963,62.8048213 C51.1642963,63.7912043 50.5913333,64.6997149 49.9172593,65.5563106 C50.4617037,64.6997149 51.0320741,63.7912043 51.6542963,62.8048213" id="Fill-223" fill="#FFFFFF"></path>
                <path d="M61.5841852,43.2848213 C61.5841852,43.3107787 61.5582593,43.3626936 61.5323333,43.3886511 C61.5323333,43.3367362 61.5064074,43.2848213 61.4804815,43.2588638 C61.5323333,43.2588638 61.5582593,43.2588638 61.5841852,43.2848213" id="Fill-225" fill="#FFFFFF"></path>
                <path d="M117.611148,89.9043957 C108.69263,98.4184383 96.1185556,104.466523 81.7815185,106.646949 C82.2741111,106.075885 82.7148519,105.478864 83.0778148,104.80397 C87.5344815,96.8090766 97.5704074,94.2912043 102.130778,93.9537574 C104.440778,93.7980128 111.103741,92.8635447 117.611148,89.9043957" id="Fill-227" fill="#C4DBFC"></path>
                <path d="M46.1323333,80.7152 C42.6841852,82.168817 38.9249259,82.9734979 34.9582593,82.9734979 C23.2915926,82.9734979 13.2349259,75.9909447 8.74714815,65.9973277 C8.74714815,65.9973277 8.74714815,65.9713702 8.72122222,65.9454128 C8.69788889,65.8934979 8.66937037,65.841583 8.61751852,65.7377532 C8.59418519,65.6598809 8.56566667,65.5820085 8.53974074,65.5041362 C7.65825926,63.4794553 7.01011111,61.3249872 6.64974074,59.0666894 L6.64974074,59.0407319 C6.36196296,57.4832851 6.23233333,55.8739234 6.23233333,54.2386043 C6.23233333,46.6849872 9.13603704,39.8322213 13.8545556,34.6926468 L15.6175185,36.2760511 L18.236037,38.6641362 L21.2434444,41.3896681 C18.0804815,44.7381787 16.161963,49.2807319 16.161963,54.2386043 C16.161963,64.621583 24.5878889,73.0317957 34.9582593,73.0317957 C37.2164074,73.0317957 39.3915926,72.642434 41.3878889,71.8637106 C42.6841852,73.2654128 44.2138148,74.4594553 45.899,75.4198809 C45.7175185,77.1330723 45.7693704,78.9241362 46.1323333,80.7152" id="Fill-229" fill="#FF4B48"></path>
                <path d="M41.3878889,71.8634511 C39.3915926,72.6421745 37.2164074,73.0315362 34.9608519,73.0315362 C24.5904815,73.0315362 16.1645556,64.6213234 16.1645556,54.2383447 C16.1645556,49.2804723 18.0804815,44.7379191 21.2434444,41.3894085 L35.9201111,54.7055787 C35.761963,55.6919617 35.6841852,56.7043021 35.6841852,57.7166426 C35.6841852,63.2196213 37.836037,68.1774936 41.3878889,71.8634511" id="Fill-231" fill="#FFFFFF"></path>
                <path d="M51.6542963,62.8048213 C51.1642963,63.7912043 50.5913333,64.6997149 49.9172593,65.5563106 C50.4617037,64.6997149 51.0320741,63.7912043 51.6542963,62.8048213" id="Fill-233" fill="#FFFFFF"></path>
                <path d="M51.576,77.6519617 C51.5241481,77.7038766 51.4748889,77.7557915 51.3971111,77.7817489 C51.3711852,77.729834 51.3426667,77.6519617 51.3711852,77.6000468 C51.4204444,77.6260043 51.5008148,77.6519617 51.576,77.6519617" id="Fill-235" fill="#FFFFFF"></path>
                <path d="M76.0005556,68.9050809 L76.0005556,75.5501872 C76.0005556,78.2497617 73.7942593,80.4561447 71.097963,80.4561447 L64.1264815,80.4561447 C62.2572222,80.4561447 60.6238889,79.3918894 59.8227778,77.8344426 C59.4312963,77.1595489 59.2238889,76.3808255 59.2238889,75.5501872 L59.2238889,68.9050809 C59.2238889,67.0880596 60.2375926,65.4786979 61.7127778,64.6480596 C62.4153704,64.2327404 63.2424074,63.9991234 64.1264815,63.9991234 L71.097963,63.9991234 C72.6275926,63.9991234 74.0016667,64.6999745 74.8831481,65.8161447 L74.8831481,65.8421021 C75.5857407,66.6727404 76.0005556,67.7369957 76.0005556,68.9050809" id="Fill-237" fill="#D24E55"></path>
                <path d="M41.3878889,71.8634511 C39.3915926,72.6421745 37.2164074,73.0315362 34.9608519,73.0315362 C24.5904815,73.0315362 16.1645556,64.6213234 16.1645556,54.2383447 C16.1645556,49.2804723 18.0804815,44.7379191 21.2434444,41.3894085 L35.9201111,54.7055787 C35.761963,55.6919617 35.6841852,56.7043021 35.6841852,57.7166426 C35.6841852,63.2196213 37.836037,68.1774936 41.3878889,71.8634511" id="Fill-239" fill="#D63C3E"></path>
                <path d="M51.6542963,62.8048213 C51.1642963,63.7912043 50.5913333,64.6997149 49.9172593,65.5563106 C50.4617037,64.6997149 51.0320741,63.7912043 51.6542963,62.8048213" id="Fill-241" fill="#FFFFFF"></path>
                <path d="M63.9945185,38.8196213 C63.6574815,39.4166426 63.3204444,40.0136638 63.0093333,40.5847277 L63.0093333,40.6106851 C62.5193333,41.5191957 62.0500741,42.4017489 61.5834074,43.2843021 C61.5600741,43.2583447 61.5341481,43.2583447 61.4797037,43.2583447 C60.9897037,43.0506851 60.4945185,42.8949404 59.976,42.7651532 C58.7574815,42.4277064 57.4611852,42.2719617 56.1415556,42.2719617 C54.0674815,42.2719617 52.0945185,42.6872809 50.3082222,43.4140894 C47.0674815,44.7379191 44.3945185,47.1260043 42.6834074,50.1370681 C41.4415556,52.3694085 40.7156296,54.9651532 40.7156296,57.7166426 C40.7156296,62.388983 42.7871111,66.5681319 46.0537778,69.3715362 C46.4193333,69.708983 46.8056296,69.9945149 47.1971111,70.2800468 C46.5722963,71.7855787 46.1082222,73.5506851 45.9008148,75.4196213 C44.213037,74.4591957 42.6834074,73.2651532 41.3871111,71.8634511 C37.8352593,68.1774936 35.6834074,63.2196213 35.6834074,57.7166426 C35.6834074,56.7043021 35.7611852,55.6919617 35.9193333,54.7055787 C36.876,48.0864298 41.0008148,42.5315362 46.7019259,39.5464298 C49.5304444,38.0928128 52.7426667,37.2621745 56.1415556,37.2621745 C56.838963,37.2621745 57.513037,37.2881319 58.1897037,37.3660043 L58.2156296,37.3660043 C60.2378519,37.5736638 62.1822963,38.0668553 63.9945185,38.8196213" id="Fill-243" fill="#4DB003"></path>
                <path d="M51.6542963,62.8048213 C51.1642963,63.7912043 50.5913333,64.6997149 49.9172593,65.5563106 C50.4617037,64.6997149 51.0320741,63.7912043 51.6542963,62.8048213" id="Fill-245" fill="#FFFFFF"></path>
                <path d="M61.5841852,43.2848213 C61.5841852,43.3107787 61.5582593,43.3626936 61.5323333,43.3886511 C61.5323333,43.3367362 61.5064074,43.2848213 61.4804815,43.2588638 C61.5323333,43.2588638 61.5582593,43.2588638 61.5841852,43.2848213" id="Fill-247" fill="#FFFFFF"></path>
                <path d="M63.8908148,56.8860043 L63.5278519,56.9638766 L63.5278519,56.8600468 C63.6315556,56.8860043 63.7611852,56.9119617 63.8908148,56.8860043" id="Fill-249" fill="#FFFFFF"></path>
                <path d="M54.8167407,57.2242298 C53.7822963,59.1450809 52.7426667,60.9361447 51.7574815,62.6233787 C51.7341481,62.6493362 51.7082222,62.7012511 51.7082222,62.7272085 C51.6797037,62.753166 51.6797037,62.7791234 51.6537778,62.8050809 C51.0315556,63.7914638 50.4611852,64.6999745 49.9167407,65.5565702 C49.8934074,65.5825277 49.8674815,65.6344426 49.8674815,65.6604 C49.4267407,66.3352936 49.0119259,66.9582723 48.5971111,67.5552936 C48.076,68.3080596 47.586,69.2425277 47.1971111,70.2808255 C46.8056296,69.9952936 46.4193333,69.7097617 46.0537778,69.3723149 C42.7871111,66.5689106 40.7156296,62.3897617 40.7156296,57.7174213 C40.7156296,54.9659319 41.4415556,52.3701872 42.6834074,50.1378468 L53.5748889,56.4974213 L54.8167407,57.2242298 Z" id="Fill-251" fill="#98E285"></path>
                <path d="M51.6542963,62.8048213 C51.1642963,63.7912043 50.5913333,64.6997149 49.9172593,65.5563106 C50.4617037,64.6997149 51.0320741,63.7912043 51.6542963,62.8048213" id="Fill-253" fill="#FFFFFF"></path>
                <path d="M61.5841852,43.2848213 C61.5841852,43.3107787 61.5582593,43.3626936 61.5323333,43.3886511 C61.5323333,43.3367362 61.5064074,43.2848213 61.4804815,43.2588638 C61.5323333,43.2588638 61.5582593,43.2588638 61.5841852,43.2848213" id="Fill-255" fill="#FFFFFF"></path>
                <path d="M63.8908148,56.8860043 L63.5278519,56.9638766 L63.5278519,56.8600468 C63.6315556,56.8860043 63.7611852,56.9119617 63.8908148,56.8860043" id="Fill-257" fill="#FFFFFF"></path>
                <path d="M61.5841852,43.2848213 C61.5841852,43.3107787 61.5582593,43.3626936 61.5323333,43.3886511 C61.5323333,43.3367362 61.5064074,43.2848213 61.4804815,43.2588638 C61.5323333,43.2588638 61.5582593,43.2588638 61.5841852,43.2848213" id="Fill-259" fill="#FFFFFF"></path>
                <path d="M79.6537778,16.5997872 C79.0600741,17.1448936 78.4352593,17.7159574 77.8415556,18.3389362 C76.0500741,20.1559574 74.2897037,22.2325532 72.5785926,24.5687234 C72.5785926,24.5687234 67.9352593,31.7589362 63.9945185,38.8193617 C62.1822963,38.0665957 60.2378519,37.5734043 58.213037,37.3657447 L58.1897037,37.3657447 C57.513037,37.2878723 56.838963,37.2619149 56.1415556,37.2619149 C52.7426667,37.2619149 49.5304444,38.0925532 46.7019259,39.5461702 C41.0008148,42.5312766 36.876,48.0861702 35.9193333,54.7053191 L21.2452593,41.3891489 L18.2378519,38.663617 L15.6193333,36.2755319 L13.8537778,34.6921277 L12.4537778,33.4202128 L11.676,32.7193617 C10.0426667,31.2657447 9.70822222,28.8257447 10.8748889,26.982766 C13.4674815,22.8814894 18.7563704,15.7431915 27.0241481,9.90276596 L27.0241481,9.9287234 C27.0241481,9.9287234 21.0871111,14.8346809 25.2871111,20.7789362 C25.7019259,21.35 26.1193333,21.817234 26.5834074,22.2325532 C27.1822963,22.803617 27.8563704,23.2189362 28.5278519,23.5044681 C31.7945185,24.9321277 35.6082222,23.4785106 38.276,21.5057447 C40.1167407,20.13 42.0611852,18.9359574 44.213037,18.157234 C48.0267407,16.7814894 54.0674815,15.3797872 61.2463704,16.47 C62.1537778,16.8074468 63.1415556,17.0151064 64.176,17.0151064 C67.8834074,17.0151064 71.0204444,14.497234 71.9537778,11.0968085 L72.3945185,11.0968085 C72.2415556,11.0708511 72.1119259,11.0708511 71.9537778,11.0708511 C72.1378519,10.3959574 72.2415556,9.69510638 72.2415556,8.96829787 C72.2415556,5.38617021 69.9056296,2.34914894 66.6908148,1.31085106 C66.976,1.33680851 67.2352593,1.3887234 67.5204444,1.46659574 L67.4426667,1.57042553 C67.4426667,1.57042553 72.5785926,2.92021277 77.2193333,11.3304255 C77.2426667,11.356383 77.2426667,11.3823404 77.2685926,11.4082979 C78.0982222,12.8878723 78.9019259,14.6270213 79.6537778,16.5997872" id="Fill-261" fill="#FFD249"></path>
                <path d="M64.1767778,17.0156255 C63.1423333,17.0156255 62.1545556,16.807966 61.2471481,16.4705191 C62.2064074,16.6003064 63.1915926,16.7820085 64.1767778,17.0156255" id="Fill-263" fill="#FFFFFF"></path>
                <path d="M72.395037,11.0978468 L71.9542963,11.0978468 L71.9542963,11.0718894 C72.1124444,11.0718894 72.2394815,11.0718894 72.395037,11.0978468" id="Fill-265" fill="#FFFFFF"></path>
                <path d="M63.8908148,56.8860043 L63.5278519,56.9638766 L63.5278519,56.8600468 C63.6315556,56.8860043 63.7611852,56.9119617 63.8908148,56.8860043" id="Fill-267" fill="#FFFFFF"></path>
                <path d="M72.2407778,8.96855745 C72.2407778,9.69536596 72.1370741,10.396217 71.9555926,11.0711106 L71.9555926,11.0970681 C71.0196667,14.4974936 67.8826296,17.015366 64.1778148,17.015366 C63.1926296,16.7817489 62.2074444,16.6000468 61.2481852,16.4702596 C59.2233704,15.6655787 57.615963,14.1081319 56.8148519,12.135366 C56.7604074,12.0834511 56.7370741,12.0315362 56.7370741,11.9796213 C56.3481852,11.0451532 56.1407778,10.0328128 56.1407778,8.96855745 C56.1407778,4.5038766 59.7444815,0.895791489 64.1778148,0.895791489 C64.2815185,0.895791489 64.4085556,0.895791489 64.5148519,0.921748936 C64.6418889,0.921748936 64.7455926,0.947706383 64.8778148,0.97366383 C65.4741111,1.05153617 66.0963333,1.15536596 66.690037,1.31111064 C69.9074444,2.34940851 72.2407778,5.38642979 72.2407778,8.96855745" id="Fill-269" fill="#FDFFC7"></path>
                <path d="M64.1767778,17.0156255 C63.1423333,17.0156255 62.1545556,16.807966 61.2471481,16.4705191 C62.2064074,16.6003064 63.1915926,16.7820085 64.1767778,17.0156255" id="Fill-271" fill="#FFFFFF"></path>
                <path d="M66.6908148,1.31188936 C66.0971111,1.15614468 65.4722963,1.05231489 64.8785926,0.974442553 C64.7463704,0.948485106 64.6426667,0.92252766 64.513037,0.92252766 C64.6167407,0.896570213 64.7463704,0.92252766 64.8500741,0.948485106 C65.4722963,0.974442553 66.0971111,1.10422979 66.6908148,1.31188936" id="Fill-273" fill="#FFFFFF"></path>
                <path d="M88.781,9.98115745 C87.5365556,10.6300936 86.2921111,11.408817 85.0217407,12.2913702 C84.918037,12.3432851 84.8376667,12.3952 84.7624815,12.4471149 C83.0772963,13.6152 81.3661852,14.9909447 79.6524815,16.6003064 C78.9006296,14.6275404 78.0995185,12.8883915 77.2698889,11.408817 C77.243963,11.3828596 77.243963,11.3569021 77.218037,11.3309447 C72.5772963,2.92073191 67.443963,1.57094468 67.443963,1.57094468 L67.5217407,1.46711489 C75.0921111,3.0764766 82.2995185,6.24328511 88.781,9.98115745" id="Fill-275" fill="#FFA237"></path>
                <path d="M56.1407778,8.96855745 C56.1407778,10.0328128 56.3481852,11.0451532 56.7344815,11.9796213 C56.7344815,12.0315362 56.7604074,12.0834511 56.8148519,12.135366 C57.615963,14.1081319 59.2233704,15.6655787 61.2481852,16.4702596 C54.0667037,15.3800468 48.025963,16.7817489 44.2122593,18.1574936 C42.0604074,18.936217 40.115963,20.1302596 38.2752222,21.5060043 C35.6074444,23.4787702 31.7937407,24.9323872 28.5296667,23.5047277 C27.8555926,23.2191957 27.1815185,22.8038766 26.5852222,22.2328128 C26.1185556,21.8174936 25.7037407,21.3502596 25.2889259,20.7791957 C21.0863333,14.8349404 27.025963,9.92898298 27.025963,9.92898298 L27.025963,9.90302553 C34.2333704,4.78940851 43.7222593,0.662174468 55.6715185,0.32472766 C58.6555926,0.246855319 61.6085556,0.454514894 64.5122593,0.921748936 C64.4085556,0.895791489 64.2815185,0.895791489 64.1778148,0.895791489 C59.7444815,0.895791489 56.1407778,4.5038766 56.1407778,8.96855745" id="Fill-277" fill="#FFE96F"></path>
                <path d="M64.8780741,0.974702128 C64.7458519,0.948744681 64.6421481,0.922787234 64.5125185,0.922787234 C64.6162222,0.896829787 64.7458519,0.922787234 64.8495556,0.948744681 L64.8780741,0.974702128 Z" id="Fill-279" fill="#FFFFFF"></path>
                <path d="M46.4691111,82.0130723 C46.3135556,81.5717957 46.2098519,81.1564766 46.1320741,80.7152 C46.2098519,80.6892426 46.2902222,80.6373277 46.3654074,80.6113702 L46.4691111,82.0130723 Z" id="Fill-281" fill="#FFFFFF"></path>
                <path d="M51.6542963,62.8048213 C51.1642963,63.7912043 50.5913333,64.6997149 49.9172593,65.5563106 C50.4617037,64.6997149 51.0320741,63.7912043 51.6542963,62.8048213" id="Fill-283" fill="#FFFFFF"></path>
                <path d="M100.422519,68.9050809 L100.422519,69.5799745 C100.344741,69.5799745 100.290296,69.6059319 100.215111,69.6059319 C94.0162222,70.306783 89.3495556,72.6429532 84.1151111,77.6008255 C83.804,76.9778468 83.6458519,76.2769957 83.6458519,75.5501872 L83.6458519,68.9050809 C83.6458519,66.2055064 85.8521481,63.9991234 88.5484444,63.9991234 L95.5199259,63.9991234 C98.2162222,63.9991234 100.422519,66.2055064 100.422519,68.9050809" id="Fill-285" fill="#FFFFFF"></path>
                <path d="M118.205889,63.9988638 C114.705889,66.1273745 111.001074,67.4252468 107.705889,68.2558851 C107.993667,65.8678 110.065148,63.9988638 112.530704,63.9988638 L118.205889,63.9988638 Z" id="Fill-287" fill="#FFFFFF"></path>
                <path d="M63.8908148,56.8860043 L63.5278519,56.9638766 L63.5278519,56.8600468 C63.6315556,56.8860043 63.7611852,56.9119617 63.8908148,56.8860043" id="Fill-289" fill="#FFFFFF"></path>
                <path d="M51.576,77.6519617 C51.5241481,77.7038766 51.4748889,77.7557915 51.3971111,77.7817489 C51.3711852,77.729834 51.3426667,77.6519617 51.3711852,77.6000468 C51.4204444,77.6260043 51.5008148,77.6519617 51.576,77.6519617" id="Fill-291" fill="#FFFFFF"></path>
                <path d="M100.422519,48.4763106 L100.422519,52.0065234 C100.422519,54.7060979 98.2162222,56.9124809 95.5199259,56.9124809 L92.0484444,56.9124809 L99.5928889,49.0733319 C99.8262222,48.8137574 100.111407,48.6060979 100.422519,48.4763106" id="Fill-293" fill="#FFFFFF"></path>
                <path d="M124.404,45.3608979 L124.404,52.0060043 C124.404,54.7055787 122.197704,56.9119617 119.501407,56.9119617 L112.529926,56.9119617 C109.83363,56.9119617 107.627333,54.7055787 107.627333,52.0060043 L107.627333,51.3830255 C108.018815,51.4868553 108.43363,51.5387702 108.819926,51.5387702 C110.170667,51.5387702 111.516222,50.9677064 112.501407,49.8515362 C114.707704,47.3336638 114.500296,43.5179191 112.011407,41.2855787 L111.282889,40.6366426 C111.67437,40.5068553 112.089185,40.4549404 112.529926,40.4549404 L119.501407,40.4549404 C122.197704,40.4549404 124.404,42.6613234 124.404,45.3608979" id="Fill-295" fill="#FFFFFF"></path>
                <path d="M76.0005556,75.5504468 C76.0005556,78.2500213 73.7942593,80.4564043 71.097963,80.4564043 L64.1264815,80.4564043 C62.2572222,80.4564043 60.6238889,79.3921489 59.8227778,77.8347021 C59.4312963,77.1598085 59.2238889,76.3810851 59.2238889,75.5504468 L59.2238889,68.9053404 C59.2238889,67.0883191 60.2375926,65.4789574 61.7127778,64.6483191 C62.4153704,64.233 63.2424074,63.999383 64.1264815,63.999383 L71.097963,63.999383 C72.6275926,63.999383 74.0016667,64.700234 74.8831481,65.8164043 L74.8831481,65.8423617 C75.5857407,66.673 76.0005556,67.7372553 76.0005556,68.9053404 L76.0005556,75.5504468 Z M131.145,37.9640638 C131.119074,37.4189574 132.848333,33.3124894 132.796481,32.7414255 C132.796481,32.7414255 129.719074,27.9704468 124.404259,21.2734255 L124.404259,27.4253404 C124.404259,28.3078936 124.168333,29.1385319 123.727593,29.8653404 C123.133889,30.9555532 122.094259,31.7861915 120.878333,32.0976809 C120.437593,32.2534255 119.970926,32.3312979 119.501667,32.3312979 L112.530185,32.3312979 C111.985741,32.3312979 111.467222,32.2534255 110.972037,32.045766 C109.131296,31.4487447 107.759815,29.7615106 107.656111,27.7368298 C107.627593,27.633 107.627593,27.5291702 107.627593,27.4253404 L107.627593,20.780234 C107.627593,20.2870426 107.70537,19.8198085 107.863519,19.3785319 C108.433889,17.3538511 110.323889,15.8742766 112.530185,15.8742766 L118.335,15.8742766 C117.453519,15.3551277 116.688704,14.2441489 115.680185,13.8547872 C107.902407,10.817766 100.710556,10.288234 94.5401852,12.4167447 C94.3872222,12.4686596 94.2290741,12.5205745 94.0761111,12.5724894 C93.7883333,12.6763191 93.7287037,12.5984468 93.4435185,12.728234 L93.1661111,12.9099362 C92.8835185,13.0397234 92.0590741,12.8009149 91.7738889,12.9307021 C90.7394444,13.3719787 89.3446296,15.2772553 88.3853704,15.8742766 L95.5201852,15.8742766 C98.2164815,15.8742766 100.422778,18.0806596 100.422778,20.780234 L100.422778,27.4253404 C100.422778,28.385766 100.137593,29.2942766 99.6424074,30.073 L104.752407,34.6934255 L109.496852,39.0283191 L109.522778,39.0283191 L111.283148,40.6376809 C111.67463,40.5078936 112.089444,40.4559787 112.530185,40.4559787 L119.501667,40.4559787 C122.197963,40.4559787 124.404259,42.6623617 124.404259,45.3619362 L124.404259,52.0070426 C124.404259,54.706617 122.197963,56.913 119.501667,56.913 L112.530185,56.913 C109.833889,56.913 107.627593,54.706617 107.627593,52.0070426 L107.627593,51.3840638 C106.953519,51.2283191 106.331296,50.9168298 105.760926,50.4755532 L103.635,48.7883191 C102.704259,48.0355532 101.433889,47.9576809 100.422778,48.4768298 L100.422778,52.0070426 C100.422778,54.706617 98.2164815,56.913 95.5201852,56.913 L92.0461111,56.913 L90.4931481,58.5223617 C88.3672222,60.7547021 84.8387037,60.9104468 82.5338889,58.8338511 C81.1857407,57.6398085 80.5090741,56.0044894 80.5090741,54.3432128 C80.5090741,54.005766 80.5375926,53.6683191 80.6127778,53.3308723 C80.7709259,52.2406596 81.2609259,51.2023617 82.0672222,50.3198085 L83.6461111,48.5806596 L89.7905556,41.7798085 C90.0524074,41.4942766 90.2598148,41.1568298 90.3894444,40.819383 C90.4387037,40.7155532 90.4931481,40.585766 90.5190741,40.4559787 C90.8301852,39.365766 90.5683333,38.1198085 89.7412963,37.2372553 L88.6524074,36.1210851 C87.5635185,34.953 87.0190741,33.499383 86.9646296,32.045766 C85.0461111,31.3968298 83.6461111,29.5798085 83.6461111,27.4253404 L83.6461111,20.780234 C83.6461111,20.5725745 83.6824074,18.6880638 83.7316667,18.5063617 L82.5987037,18.8360213 C81.9764815,19.459 80.5790741,19.682234 79.9542593,20.3830851 C74.8727778,26.0911277 71.6968519,36.1210851 69.1794444,40.4559787 L71.097963,40.4559787 C73.7942593,40.4559787 76.0005556,42.6623617 76.0005556,45.3619362 L76.0005556,52.0070426 C76.0005556,52.2406596 75.972037,52.4483191 75.9227778,52.6559787 L75.9227778,52.6819362 C75.8683333,53.3308723 75.6609259,53.9278936 75.3238889,54.4470426 C74.5461111,55.8227872 73.1461111,56.7572553 71.4894444,56.8610851 C71.3598148,56.913 71.2275926,56.913 71.097963,56.913 L64.1264815,56.913 C64.0487037,56.913 63.9683333,56.913 63.8905556,56.8870426 L63.5275926,56.9649149 L63.5275926,56.8610851 C62.9338889,56.8091702 62.0731481,56.5158511 61.5805556,56.2303191 L59.8824074,57.1518085 C58.1712963,60.552234 57.4609259,63.633383 55.5398148,66.1512553 C53.8312963,68.4095532 52.8227778,70.8781064 52.0709259,72.5653404 C51.8116667,73.1623617 51.6042593,73.759383 51.4746296,74.3044894 L51.4461111,74.3304468 C51.1635185,75.446617 51.135,76.5108723 51.3709259,77.6010851 C51.4227778,77.6270426 51.5005556,77.653 51.5757407,77.653 C51.5264815,77.7049149 51.4746296,77.7568298 51.3968519,77.7827872 C51.7831481,79.7295957 52.9264815,81.8061915 54.8709259,84.4538511 C60.1338889,91.6700213 71.8757407,91.0989574 79.3164815,82.6368298 C81.0042593,80.7159787 82.5857407,79.0287447 84.1153704,77.6010851 C83.8042593,76.9781064 83.6461111,76.2772553 83.6461111,75.5504468 L83.6461111,68.9053404 C83.6461111,66.205766 85.8524074,63.999383 88.5487037,63.999383 L95.5201852,63.999383 C98.2164815,63.999383 100.422778,66.205766 100.422778,68.9053404 L100.422778,69.580234 C102.209074,69.3725745 104.801667,69.0091702 107.70537,68.2564043 C107.993148,65.8683191 110.067222,63.999383 112.530185,63.999383 L118.20537,63.999383 C123.004259,61.1181064 126.537963,62.7015106 128.767593,55.9525745 C128.767593,55.9525745 130.281667,53.598234 130.281667,53.5722766 C130.43463,53.1050426 129.926481,48.9700213 130.056111,48.4508723 C130.782037,45.7772553 131.168333,42.7661915 131.168333,39.3398085 C131.168333,38.8985319 131.145,38.4312979 131.145,37.9640638 L131.145,37.9640638 Z" id="Fill-297" fill="#A23A41"></path>
                <path d="M100.422519,68.9050809 L100.422519,69.5799745 C100.344741,69.5799745 100.290296,69.6059319 100.215111,69.6059319 C94.0162222,70.306783 89.3495556,72.6429532 84.1151111,77.6008255 C83.804,76.9778468 83.6458519,76.2769957 83.6458519,75.5501872 L83.6458519,68.9050809 C83.6458519,66.2055064 85.8521481,63.9991234 88.5484444,63.9991234 L95.5199259,63.9991234 C98.2162222,63.9991234 100.422519,66.2055064 100.422519,68.9050809" id="Fill-299" fill="#FFFFFF"></path>
                <path d="M118.205889,63.9988638 C114.705889,66.1273745 111.001074,67.4252468 107.705889,68.2558851 C107.993667,65.8678 110.065148,63.9988638 112.530704,63.9988638 L118.205889,63.9988638 Z" id="Fill-301" fill="#FFFFFF"></path>
                <path d="M63.8908148,56.8860043 L63.5278519,56.9638766 L63.5278519,56.8600468 C63.6315556,56.8860043 63.7611852,56.9119617 63.8908148,56.8860043" id="Fill-303" fill="#A23A41"></path>
                <path d="M51.576,77.6519617 C51.5241481,77.7038766 51.4748889,77.7557915 51.3971111,77.7817489 C51.3711852,77.729834 51.3426667,77.6519617 51.3711852,77.6000468 C51.4204444,77.6260043 51.5008148,77.6519617 51.576,77.6519617" id="Fill-305" fill="#FFFFFF"></path>
                <path d="M100.422519,48.4763106 L100.422519,52.0065234 C100.422519,54.7060979 98.2162222,56.9124809 95.5199259,56.9124809 L92.0484444,56.9124809 L99.5928889,49.0733319 C99.8262222,48.8137574 100.111407,48.6060979 100.422519,48.4763106" id="Fill-307" fill="#FFFFFF"></path>
                <path d="M124.404,45.3608979 L124.404,52.0060043 C124.404,54.7055787 122.197704,56.9119617 119.501407,56.9119617 L112.529926,56.9119617 C109.83363,56.9119617 107.627333,54.7055787 107.627333,52.0060043 L107.627333,51.3830255 C108.018815,51.4868553 108.43363,51.5387702 108.819926,51.5387702 C110.170667,51.5387702 111.516222,50.9677064 112.501407,49.8515362 C114.707704,47.3336638 114.500296,43.5179191 112.011407,41.2855787 L111.282889,40.6366426 C111.67437,40.5068553 112.089185,40.4549404 112.529926,40.4549404 L119.501407,40.4549404 C122.197704,40.4549404 124.404,42.6613234 124.404,45.3608979" id="Fill-309" fill="#FFFFFF"></path>
                <path d="M131.609593,59.8454128 C131.479963,71.2407319 126.245519,81.7275404 117.612185,89.9041362 C111.104778,92.8632851 104.441815,93.7977532 102.131815,93.9534979 C97.5688519,94.2909447 87.5355185,96.808817 83.0762593,104.803711 C82.7158889,105.478604 82.2751481,106.075626 81.779963,106.646689 C78.4303333,110.807668 72.9210741,112.41703 69.5818148,113.029626 C67.8421852,113.348902 66.0636667,113.372264 64.3162593,113.104902 C56.0121852,111.838179 51.7966296,108.230094 49.6836667,104.881583 C47.454037,101.4552 47.454037,98.2883915 47.454037,98.2883915 L46.4688519,82.0390298 C47.4281111,85.2837106 49.5307037,88.3466894 53.3910741,90.5271149 C63.6577407,96.341583 66.647,94.8334553 76.0088519,90.1351574 C82.1792222,87.0462213 84.1262593,81.7898383 87.6781111,78.3634553 C89.5188519,76.5723915 92.6403333,74.7969021 96.4488519,73.7066894 C97.3847778,73.4471149 99.8088519,73.1486043 100.926259,72.9149872 C103.078111,72.4477532 105.966259,71.9052426 108.558852,71.3341787 C113.951444,70.1660936 116.087741,69.1641362 121.192556,65.7117957 C124.047,63.8169021 129.589963,63.0900936 131.609593,59.8454128" id="Fill-311" fill="#A23A41"></path>
                <path d="M100.422519,68.9050809 L100.422519,69.5799745 C100.344741,69.5799745 100.290296,69.6059319 100.215111,69.6059319 C94.0162222,70.306783 89.3495556,72.6429532 84.1151111,77.6008255 C83.804,76.9778468 83.6458519,76.2769957 83.6458519,75.5501872 L83.6458519,68.9050809 C83.6458519,66.2055064 85.8521481,63.9991234 88.5484444,63.9991234 L95.5199259,63.9991234 C98.2162222,63.9991234 100.422519,66.2055064 100.422519,68.9050809" id="Fill-313" fill="#FFFFFF"></path>
                <path d="M118.205889,63.9988638 C114.705889,66.1273745 111.001074,67.4252468 107.705889,68.2558851 C107.993667,65.8678 110.065148,63.9988638 112.530704,63.9988638 L118.205889,63.9988638 Z" id="Fill-315" fill="#FFFFFF"></path>
                <path d="M51.576,77.6519617 C51.5241481,77.7038766 51.4748889,77.7557915 51.3971111,77.7817489 C51.3711852,77.729834 51.3426667,77.6519617 51.3711852,77.6000468 C51.4204444,77.6260043 51.5008148,77.6519617 51.576,77.6519617" id="Fill-317" fill="#FFFFFF"></path>
                <path d="M100.422519,48.4763106 L100.422519,52.0065234 C100.422519,54.7060979 98.2162222,56.9124809 95.5199259,56.9124809 L92.0484444,56.9124809 L99.5928889,49.0733319 C99.8262222,48.8137574 100.111407,48.6060979 100.422519,48.4763106" id="Fill-319" fill="#FFFFFF"></path>
                <path d="M124.404,45.3608979 L124.404,52.0060043 C124.404,54.7055787 122.197704,56.9119617 119.501407,56.9119617 L112.529926,56.9119617 C109.83363,56.9119617 107.627333,54.7055787 107.627333,52.0060043 L107.627333,51.3830255 C108.018815,51.4868553 108.43363,51.5387702 108.819926,51.5387702 C110.170667,51.5387702 111.516222,50.9677064 112.501407,49.8515362 C114.707704,47.3336638 114.500296,43.5179191 112.011407,41.2855787 L111.282889,40.6366426 C111.67437,40.5068553 112.089185,40.4549404 112.529926,40.4549404 L119.501407,40.4549404 C122.197704,40.4549404 124.404,42.6613234 124.404,45.3608979" id="Fill-321" fill="#FFFFFF"></path>
                <path d="M118.205889,63.9988638 C114.705889,66.1273745 111.001074,67.4252468 107.705889,68.2558851 C107.993667,65.8678 110.065148,63.9988638 112.530704,63.9988638 L118.205889,63.9988638 Z" id="Fill-323" fill="#D24E55"></path>
                <path d="M100.422519,68.9050809 L100.422519,69.5799745 C100.344741,69.5799745 100.290296,69.6059319 100.215111,69.6059319 C94.0162222,70.306783 89.3495556,72.6429532 84.1151111,77.6008255 C83.804,76.9778468 83.6458519,76.2769957 83.6458519,75.5501872 L83.6458519,68.9050809 C83.6458519,66.2055064 85.8521481,63.9991234 88.5484444,63.9991234 L95.5199259,63.9991234 C98.2162222,63.9991234 100.422519,66.2055064 100.422519,68.9050809" id="Fill-325" fill="#D24E55"></path>
                <path d="M61.5336296,43.3889106 C60.9114074,44.6089106 60.366963,45.7769957 59.9002963,46.8412511 C59.6928889,47.3344426 59.456963,47.8535915 59.2236296,48.346783 C57.8521481,51.4616766 56.3484444,54.4208255 54.8162222,57.2242298 L53.5743704,56.4974213 L42.6828889,50.1378468 C44.3965926,47.126783 47.066963,44.7386979 50.3077037,43.4148681 C52.094,42.6880596 54.066963,42.2727404 56.141037,42.2727404 C57.4632593,42.2727404 58.7595556,42.4284851 59.9754815,42.7659319 C60.4965926,42.8957191 60.9891852,43.0514638 61.4791852,43.2591234 C61.5051111,43.2850809 61.5336296,43.3369957 61.5336296,43.3889106" id="Fill-327" fill="#D3FCC0"></path>
                <path d="M61.5841852,43.2848213 C61.5841852,43.3107787 61.5582593,43.3626936 61.5323333,43.3886511 C61.5323333,43.3367362 61.5064074,43.2848213 61.4804815,43.2588638 C61.5323333,43.2588638 61.5582593,43.2588638 61.5841852,43.2848213" id="Fill-329" fill="#FFFFFF"></path>
                <path d="M76.0005556,45.3608979 L76.0005556,52.0060043 C76.0005556,52.2396213 75.972037,52.4472809 75.9227778,52.6549404 L75.9227778,52.6808979 C75.8683333,53.329834 75.6609259,53.9268553 75.3238889,54.4460043 C74.5461111,55.8217489 73.1461111,56.756217 71.4894444,56.8600468 C71.3598148,56.9119617 71.2275926,56.9119617 71.097963,56.9119617 L64.1264815,56.9119617 C64.0487037,56.9119617 63.9683333,56.9119617 63.8905556,56.8860043 C63.7609259,56.9119617 63.6312963,56.8860043 63.5275926,56.8600468 C62.9338889,56.8081319 61.9072222,56.4940468 61.4172222,56.2059191 C62.0368519,54.9340043 62.7083333,53.7633234 63.2812963,52.5692809 C63.2812963,52.5433234 63.232037,52.1669404 63.232037,52.1669404 C64.3753704,49.6750255 65.7053704,47.8528128 66.382037,46.2174936 C67.0561111,44.556217 67.4424074,43.5438766 67.4424074,43.5438766 C67.4424074,43.5438766 67.8572222,42.7911106 68.5857407,41.4932383 C68.7672222,41.1817489 68.9461111,40.8443021 69.1794444,40.4549404 L71.097963,40.4549404 C73.7942593,40.4549404 76.0005556,42.6613234 76.0005556,45.3608979" id="Fill-331" fill="#D24E55"></path>
                <path d="M124.404,45.3608979 L124.404,52.0060043 C124.404,54.7055787 122.197704,56.9119617 119.501407,56.9119617 L112.529926,56.9119617 C109.83363,56.9119617 107.627333,54.7055787 107.627333,52.0060043 L107.627333,51.3830255 C108.018815,51.4868553 108.43363,51.5387702 108.819926,51.5387702 C110.170667,51.5387702 111.516222,50.9677064 112.501407,49.8515362 C114.707704,47.3336638 114.500296,43.5179191 112.011407,41.2855787 L111.282889,40.6366426 C111.67437,40.5068553 112.089185,40.4549404 112.529926,40.4549404 L119.501407,40.4549404 C122.197704,40.4549404 124.404,42.6613234 124.404,45.3608979" id="Fill-333" fill="#D24E55"></path>
                <path d="M100.422519,48.4763106 L100.422519,52.0065234 C100.422519,54.7060979 98.2162222,56.9124809 95.5199259,56.9124809 L92.0484444,56.9124809 L99.5928889,49.0733319 C99.8262222,48.8137574 100.111407,48.6060979 100.422519,48.4763106" id="Fill-335" fill="#D24E55"></path>
                <path d="M124.404,21.2729064 L124.404,27.4248213 C124.404,28.3073745 124.168074,29.1380128 123.727333,29.8648213 C123.13363,30.955034 122.094,31.7856723 120.878074,32.0971617 C120.437333,32.2529064 119.970667,32.3307787 119.501407,32.3307787 L112.529926,32.3307787 C111.985481,32.3307787 111.466963,32.2529064 110.971778,32.0452468 C109.131037,31.4482255 107.759556,29.7609915 107.655852,27.7363106 C107.627333,27.6324809 107.627333,27.5286511 107.627333,27.4248213 L107.627333,20.7797149 C107.627333,20.2865234 107.707704,19.8192894 107.863259,19.3780128 C108.43363,17.3533319 110.32363,15.8737574 112.529926,15.8737574 L118.334741,15.8737574 C120.797704,17.3273745 122.796593,19.2222681 124.404,21.2729064" id="Fill-337" fill="#D24E55"></path>
                <path d="M103.766963,42.5320553 C103.170667,43.9078 101.926222,44.9460979 100.394,45.2316298 C100.111407,45.3095021 99.8236296,45.3354596 99.5125185,45.3354596 C99.4088148,45.3354596 99.3051111,45.3354596 99.2299259,45.3095021 C96.766963,45.1797149 94.8484444,43.1290766 94.8484444,40.6631191 C94.8484444,40.5852468 94.8484444,40.5333319 94.8717778,40.4554596 C94.8717778,39.8324809 95.0299259,39.261417 95.2632593,38.7422681 C95.9891852,37.1329064 97.6225185,35.9907787 99.5125185,35.9907787 C100.056963,35.9907787 100.578074,36.0946085 101.070667,36.2763106 C102.856963,36.8992894 104.153259,38.6384383 104.153259,40.6631191 C104.153259,41.3380128 104.026222,41.9609915 103.766963,42.5320553 M112.011407,41.2860979 L111.282889,40.6371617 L109.522519,39.0278 L109.496593,39.0278 L104.752148,34.6929064 L99.6421481,30.0724809 L96.5336296,27.2431191 C95.4447407,26.2826936 94.0965926,25.7895021 92.7484444,25.7895021 C91.3199259,25.7895021 89.8706667,26.3346085 88.7817778,27.4248213 C87.5088148,28.6707787 86.9151111,30.3580128 86.966963,32.0452468 C87.0188148,33.4988638 87.5632593,34.9524809 88.6521481,36.120566 L89.741037,37.2367362 C90.5680741,38.1192894 90.8299259,39.3652468 90.5188148,40.4554596 C90.4928889,40.5852468 90.4384444,40.715034 90.3891852,40.8188638 C90.2595556,41.1563106 90.0521481,41.4937574 89.7902963,41.7792894 L83.6458519,48.5801404 L82.066963,50.3192894 C81.2606667,51.2018426 80.7706667,52.2401404 80.6125185,53.3303532 C80.5373333,53.6678 80.5088148,54.0052468 80.5088148,54.3426936 C80.5088148,56.0039702 81.1854815,57.6392894 82.5336296,58.8333319 C84.8384444,60.9099277 88.366963,60.754183 90.4928889,58.5218426 L92.0458519,56.9124809 L99.5928889,49.0733319 C99.8236296,48.8137574 100.111407,48.6060979 100.422519,48.4763106 C101.43363,47.9571617 102.704,48.035034 103.634741,48.7878 L105.763259,50.475034 C106.331037,50.9163106 106.953259,51.2278 107.627333,51.3835447 C108.018815,51.4873745 108.43363,51.5392894 108.819926,51.5392894 C110.170667,51.5392894 111.516222,50.9682255 112.501407,49.8520553 C114.707704,47.334183 114.500296,43.5184383 112.011407,41.2860979" id="Fill-339" fill="#FCE7C8"></path>
                <path d="M104.154296,40.6626 C104.154296,41.3374936 104.024667,41.9604723 103.768,42.5315362 C103.169111,43.9072809 101.927259,44.9455787 100.395037,45.2311106 C100.109852,45.308983 99.8246667,45.3349404 99.5135556,45.3349404 C99.4098519,45.3349404 99.3061481,45.3349404 99.230963,45.308983 C96.7654074,45.1791957 94.8468889,43.1285574 94.8468889,40.6626 C94.8468889,40.5847277 94.8468889,40.5328128 94.8728148,40.4549404 C94.8728148,39.8319617 95.0283704,39.2608979 95.2617037,38.7417489 C95.9902222,37.1323872 97.620963,35.9902596 99.5135556,35.9902596 C100.058,35.9902596 100.576519,36.0940894 101.071704,36.2757915 C102.858,36.8987702 104.154296,38.6379191 104.154296,40.6626" id="Fill-341" fill="#FFB895"></path>
                <path d="M8.53974074,65.5046553 C8.56566667,65.5825277 8.59418519,65.6604 8.61751852,65.7382723 C8.28048148,65.0893362 7.37307407,63.3501872 6.20640741,60.9880596 L6.20640741,60.9621021 C4.88418519,58.3923149 3.27677778,55.147634 1.66937037,51.7212511 C3.63974074,45.0242298 7.37307407,38.8463574 12.4545556,33.4212511 L13.8545556,34.693166 C9.13603704,39.8327404 6.23233333,46.6855064 6.23233333,54.2391234 C6.23233333,55.8744426 6.36196296,57.4838043 6.64974074,59.0412511 L6.64974074,59.0672085 C7.01011111,61.3255064 7.65825926,63.4799745 8.53974074,65.5046553" id="Fill-343" fill="#90B5FF"></path>
                <path d="M139.777296,62.9862638 C139.777296,72.9020085 136.043963,82.168817 129.562481,90.0339234 C117.299519,104.985413 95.1587778,114.953072 69.9069259,114.953072 C44.5772963,114.953072 22.408037,104.959455 10.1735926,89.9560511 C10.1735926,89.9300936 10.1735926,89.9300936 10.1476667,89.9300936 C6.64766667,85.6471149 3.95137037,80.9747745 2.24025926,75.9909447 C0.788407407,71.8377532 0.0106296296,67.4769021 0.0106296296,62.9862638 C0.0106296296,59.1186043 0.581,55.328817 1.6672963,51.7207319 C3.2772963,55.1471149 4.8847037,58.3917957 6.20433333,60.961583 L6.20433333,60.9875404 C7.37359259,63.3496681 8.281,65.088817 8.61803704,65.7377532 C8.66988889,65.841583 8.69581481,65.8934979 8.72174074,65.9454128 C8.74766667,65.9713702 8.74766667,65.9973277 8.74766667,65.9973277 C11.9624815,84.141583 28.1143333,99.0671149 49.6847037,104.881583 C51.9921111,108.541583 56.8143333,112.513072 66.743963,113.395626 C66.743963,113.395626 76.7254444,112.928391 81.781,106.646689 C96.118037,104.466264 108.692111,98.4181787 117.61063,89.9041362 C126.243963,81.7275404 131.481,71.2407319 131.61063,59.8454128 L131.61063,59.8194553 C132.05137,59.1705191 132.440259,58.521583 132.803222,57.7947745 C133.788407,55.847966 134.618037,53.641583 135.185815,51.1756255 C135.577296,49.6441362 135.862481,47.9828596 136.043963,46.2177532 C138.481,51.4871149 139.777296,57.1198809 139.777296,62.9862638" id="Fill-345" fill="#E8EDF9"></path>
                <path d="M117.611148,89.9043957 C117.611148,89.9043957 130.496333,84.9361404 133.197815,70.5531191 C135.896704,56.1675021 136.76263,43.1887787 136.76263,43.1887787 L133.952259,45.2446085 L128.118926,59.5212043 L120.450037,67.8483532 L118.396704,81.8004809 L117.611148,89.9043957 Z" id="Fill-347" fill="#A23A41"></path>
                <path d="M67.8403704,43.5599702 C67.3866667,44.6398 64.3844444,51.6820553 59.1318519,61.242183 C58.3488889,62.6698426 57.5192593,64.0637574 56.7,65.4369064 C51.2166667,74.6518 48.942963,79.3812468 57.1174074,86.1327787 C57.317037,86.2677574 65.7014815,92.1678851 73.4533333,86.5221404 C76.9481481,83.9809064 79.0896296,81.4708213 81.1611111,79.0438 C84.5937037,75.0229915 87.837037,71.2228213 95.5214815,69.8652468 C105.106296,68.1702255 125.051111,64.6452043 128.688519,52.7411191 C132.834074,39.1472043 131.097037,28.4631191 123.524074,20.9873745 C114.823333,12.3980553 109.041852,11.1962255 100.087037,11.8529489 C91.0233333,12.5174596 82.5351852,19.9672468 79.3151852,23.8141404 C76.8133333,26.7992468 70.2462963,38.9629064 67.8403704,43.5599702 M66.1137037,95.1555872 C60.6744444,95.1555872 55.8574074,92.9206511 53.3037037,91.0491191 C40.4988889,80.4844383 46.2674074,70.7971191 51.3566667,62.2467362 C52.1344444,60.9358851 52.9303704,59.6042681 53.6796296,58.2389064 C59.0955556,48.3828638 62.1185185,41.1173745 62.147037,41.0446936 L62.2662963,40.7929064 C63.1607407,39.0719277 71.1355556,23.8842255 74.5474074,19.8115021 C78.6333333,14.9315021 88.5188889,6.45639574 99.6359259,5.64133191 C111.603333,4.76397021 118.740741,7.51545957 127.892593,16.5512468 C137.114444,25.6545234 139.447778,38.7993745 134.638519,54.5607362 C129.891481,70.117034 108.235556,73.9457574 96.6025926,76.0015872 C91.1166667,76.9698 89.0374074,79.4072043 85.89,83.0931617 C83.6914815,85.6681404 81.1974074,88.5857574 77.1140741,91.5630766 C73.4896296,94.2003532 69.6681481,95.1555872 66.1137037,95.1555872" id="Fill-349" fill="#FEB28B"></path>
            </g>
        </g>
    </g>
</svg>