<?xml version="1.0" encoding="UTF-8"?>
<svg width="140px" height="129px" viewBox="0 0 140 129" version="1.1" xmlns="http://www.w3.org/2000/svg" xmlns:xlink="http://www.w3.org/1999/xlink">
    <!-- Generator: Sketch 61.1 (89650) - https://sketch.com -->
    <title>4</title>
    <desc>Created with Sketch.</desc>
    <g id="Page-1" stroke="none" stroke-width="1" fill="none" fill-rule="evenodd">
        <g id="Artboard" transform="translate(-177.000000, -439.000000)">
            <g id="4" transform="translate(177.000000, 439.000000)">
                <path d="M92.2073793,99.0258148 C91.8694483,99.6011852 90.3487586,100.109148 89.8901379,99.5313704 C89.4315172,98.9535926 89.7694483,97.4369259 90.5901379,96.278963 C91.4349655,95.1258148 91.8211724,96.7147037 91.8211724,96.7147037 C91.8211724,96.7147037 92.5211724,98.448037 92.2073793,99.0258148" id="Fill-511" fill="#935541"></path>
                <path d="M108.16231,96.7618889 C108.16231,96.7618889 109.369207,99.4341111 108.40369,99.9878148 C107.438172,100.519852 107.100241,99.6026296 105.869207,98.3989259 C104.638172,97.2192963 103.96231,98.1822593 102.996793,98.4952222 C102.031276,98.7841111 101.524379,98.1822593 101.886448,97.4142963 C102.224379,96.6415185 104.107138,95.4137407 104.058862,94.5470741 C104.034724,93.6563333 103.50369,93.2470741 103.383,92.5489259 C103.26231,91.8748519 103.865759,91.6341111 103.865759,91.6341111 C104.710586,91.5137407 105.265759,92.5994815 106.134724,93.3939259 C107.027828,94.210037 107.510586,93.560037 108.86231,93.4396667 C110.214034,93.3192963 110.624379,93.5118889 110.479552,94.1137407 C110.310586,94.7396667 109.586448,94.9563333 108.669207,95.6087407 C107.751966,96.2563333 108.16231,96.7618889 108.16231,96.7618889" id="Fill-513" fill="#AD1C3C"></path>
                <path d="M115.162069,85.3267037 C114.655172,83.9063333 113.737931,84.3878148 112.868966,84.2698519 C112,84.1470741 111.831034,83.473 112.410345,82.9915185 C112.965517,82.5341111 114.92069,82.2692963 115.234483,81.5711481 C115.548276,80.8513333 115.282759,80.3192963 115.451724,79.7174444 C115.644828,79.1396667 116.2,79.1878148 116.2,79.1878148 C116.924138,79.4285556 116.924138,80.4878148 117.310345,81.4531852 C117.696552,82.4378148 118.348276,82.1007778 119.458621,82.5341111 C120.568966,82.9698519 120.834483,83.2804074 120.472414,83.6896667 C120.110345,84.123 119.434483,84.0267037 118.468966,84.1735556 C117.47931,84.3396667 117.624138,84.8933704 117.624138,84.8933704 C117.624138,84.8933704 117.527586,87.4717037 116.562069,87.5174444 C115.596552,87.5896667 115.693103,86.723 115.162069,85.3267037" id="Fill-515" fill="#B01C3E"></path>
                <path d="M77.8931034,104.8515 C76.8068966,106.510204 75.6482759,106.823167 75.1413793,106.317611 C74.6344828,105.790389 75.0206897,102.468167 75.4068966,101.577426 C75.7931034,100.686685 76.3,101.07187 76.3,101.07187 C76.8793103,101.577426 79.0034483,103.166315 77.8931034,104.8515" id="Fill-517" fill="#90543B"></path>
                <path d="M121.076345,45.2436111 C120.159103,46.0621296 119.048759,46.3028704 118.566,45.7732407 C118.083241,45.2436111 118.44531,44.1602778 119.362552,43.3417593 C120.279793,42.5232407 121.390138,42.2825 121.872897,42.7880556 C122.355655,43.3176852 121.993586,44.4250926 121.076345,45.2436111" id="Fill-519" fill="#845040"></path>
                <path d="M95.2728966,79.3563333 C93.703931,81.1618889 91.8694483,82.1489259 91.1935862,81.5470741 C90.5177241,80.9692963 91.2418621,79.0433704 92.8108276,77.2378148 C94.3797931,75.4322593 96.1901379,74.4452222 96.866,75.023 C97.5418621,75.6248519 96.8177241,77.5507778 95.2728966,79.3563333" id="Fill-521" fill="#845040"></path>
                <path d="M20.8071379,60.8436111 C20.8071379,61.0121296 20.7588621,61.1806481 20.6381724,61.3010185 L20.5416207,61.4213889 L12.7692069,70.4010185 C12.5278276,70.6899074 12.0692069,70.7139815 11.8036897,70.4732407 C11.6347241,70.3287963 11.5623103,70.1362037 11.5623103,69.9436111 C11.5623103,69.7750926 11.6105862,69.6306481 11.7312759,69.5102778 L18.4174828,61.7584259 L18.5140345,61.6621296 L19.6002414,60.3862037 C19.745069,60.2176852 19.9623103,60.145463 20.1554138,60.145463 C20.1795517,60.145463 20.2278276,60.145463 20.2519655,60.169537 C20.3726552,60.169537 20.4692069,60.2417593 20.5657586,60.3139815 C20.7347241,60.4584259 20.8071379,60.6510185 20.8071379,60.8436111" id="Fill-523" fill="#E7EBF7"></path>
                <path d="M27.9271034,78.9237222 C27.9271034,79.0681667 27.8788276,79.2366852 27.7822759,79.3570556 L19.9133103,88.4546481 C19.6477931,88.7459444 19.2133103,88.7676111 18.9236552,88.5292778 C18.7546897,88.4089074 18.6822759,88.1922407 18.6822759,87.9996481 C18.6822759,87.8527963 18.7305517,87.6866852 18.8512414,87.5639074 L26.7202069,78.4422407 C26.9857241,78.1533519 27.4202069,78.1292778 27.7098621,78.3700185 C27.8546897,78.514463 27.9271034,78.7070556 27.9271034,78.9237222" id="Fill-525" fill="#E7EBF7"></path>
                <path d="M30.6307931,96.2799259 C30.6307931,96.9780741 30.0514828,97.5341852 29.3514828,97.5341852 C28.6514828,97.5341852 28.0963103,96.9780741 28.0963103,96.2799259 C28.0963103,95.5817778 28.6514828,95.0064074 29.3514828,95.0064074 C30.0514828,95.0064074 30.6307931,95.5817778 30.6307931,96.2799259" id="Fill-527" fill="#E7EBF7"></path>
                <path d="M44.2202069,90.550537 C44.2202069,90.6973889 44.171931,90.8635 44.0753793,90.9862778 L36.2064138,100.08387 C35.9408966,100.372759 35.5064138,100.396833 35.2167586,100.156093 C35.0477931,100.035722 34.9753793,99.8431296 34.9753793,99.650537 C34.9753793,99.4820185 35.0236552,99.3159074 35.1443448,99.1931296 L43.0133103,90.095537 C43.2788276,89.8042407 43.7133103,89.7560926 44.0029655,90.0209074 C44.1477931,90.1653519 44.2202069,90.3579444 44.2202069,90.550537" id="Fill-529" fill="#E7EBF7"></path>
                <path d="M62.2034483,96.8348333 C62.3724138,96.9552037 62.4448276,97.1477963 62.4448276,97.3403889 C62.4448276,97.3861296 62.4448276,97.4366852 62.4206897,97.4848333 C62.4206897,97.6052037 62.3724138,97.7015 62.2758621,97.7953889 L54.4068966,106.897796 C54.1655172,107.186685 53.7068966,107.234833 53.4413793,106.970019 C53.2724138,106.823167 53.2,106.632981 53.2,106.440389 C53.2,106.295944 53.2482759,106.127426 53.3689655,106.007056 L61.1655172,96.9792778 L61.237931,96.9070556 C61.4793103,96.6181667 61.9137931,96.5916852 62.2034483,96.8348333" id="Fill-531" fill="#E7EBF7"></path>
                <path d="M82.6972759,71.3875741 C82.6972759,75.6486852 79.2214138,79.0912778 74.9731379,79.0912778 C71.9800345,79.0912778 69.3972759,77.4060926 68.1179655,74.926463 C67.5627931,73.8672037 67.249,72.6635 67.249,71.3875741 C67.249,67.126463 70.7007241,63.6838704 74.9731379,63.6838704 C76.6627931,63.6838704 78.2076207,64.2375741 79.486931,65.1523889 C81.4179655,66.5486852 82.6972759,68.8116481 82.6972759,71.3875741" id="Fill-533" fill="#E2BF60"></path>
                <path d="M125.589172,34.3866852 C125.130552,34.988537 124.527103,35.614463 123.75469,36.0718704 C122.982276,36.5292778 121.944345,36.8903889 120.834,37.2755741 C118.806414,37.9977963 116.537448,38.7681667 115.065034,40.2848333 C114.220207,41.1515 113.665034,41.8255741 113.25469,42.4996481 C112.506414,43.6792778 112.096069,44.9070556 111.299517,47.2181667 C110.502966,49.5292778 110.285724,51.6959444 108.861586,53.5015 C108.016759,54.5848333 106.737448,55.5237222 104.661586,56.3181667 C103.092621,56.8959444 101.692621,57.4255741 100.509862,57.9070556 C97.4684828,59.1829815 95.6581379,60.338537 95.0064138,62.3366852 C94.8133103,62.914463 94.6443448,63.564463 94.4753793,64.214463 C93.8477931,66.6700185 93.2684828,69.4626111 91.8443448,71.364463 C91.071931,72.3996481 89.8408966,73.3626111 88.6581379,74.1329815 C88.296069,74.3737222 87.9098621,74.614463 87.571931,74.8070556 C87.7891724,74.3496481 88.0064138,73.8681667 88.1995172,73.4107593 C89.9615862,69.2459444 90.6857241,65.3459444 90.6857241,65.3459444 C90.6857241,65.3459444 90.8788276,64.4311296 90.9995172,63.0829815 C91.0236552,62.7459444 91.0477931,62.3848333 91.071931,61.9996481 C91.796069,60.2422407 92.9305517,58.388537 94.7891724,57.1366852 C97.4202069,55.3552037 99.5202069,54.9459444 101.402966,54.3200185 C102.682276,53.9107593 103.865034,53.3811296 105.047793,52.2496481 C105.192621,52.1292778 105.31331,51.9848333 105.409862,51.8403889 C107.630552,49.1922407 107.558138,43.8959444 110.189172,40.3570556 C110.551241,39.8755741 110.961586,39.4181667 111.444345,39.0089074 C114.534,36.3607593 116.51331,36.288537 118.420207,35.5181667 C119.047793,35.2533519 119.699517,34.8922407 120.351241,34.338537 L122.982276,32.1718704 L125.589172,34.3866852 Z" id="Fill-535" fill="#8A4E42"></path>
                <path d="M17.5965517,51.3350741 C17.4517241,51.311 17.3310345,51.311 17.1862069,51.311 C17.2827586,51.1906296 17.3551724,51.0702593 17.4758621,50.9498889 L17.5965517,51.3350741 Z" id="Fill-537" fill="#E7EBF7"></path>
                <path d="M35.6034483,22.469537 C35.6034483,23.5047222 34.7586207,24.3473148 33.7448276,24.3473148 C32.7068966,24.3473148 31.862069,23.5047222 31.862069,22.469537 C31.862069,21.4584259 32.7068966,20.6158333 33.7448276,20.6158333 C34.7586207,20.6158333 35.6034483,21.4584259 35.6034483,22.469537" id="Fill-539" fill="#E7EBF7"></path>
                <path d="M35.2652759,54.0068148 C35.2652759,54.7771852 34.6618276,55.379037 33.9135517,55.379037 C33.1652759,55.379037 32.5376897,54.7771852 32.5376897,54.0068148 C32.5376897,53.2605185 33.1652759,52.6586667 33.9135517,52.6586667 C34.6618276,52.6586667 35.2652759,53.2605185 35.2652759,54.0068148" id="Fill-541" fill="#E7EBF7"></path>
                <path d="M41.2278276,70.0875741 C41.2278276,71.0746111 40.4312759,71.8449815 39.4657586,71.8449815 C38.5002414,71.8449815 37.7036897,71.0746111 37.7036897,70.0875741 C37.7036897,69.1246111 38.5002414,68.3301667 39.4657586,68.3301667 C40.4312759,68.3301667 41.2278276,69.1246111 41.2278276,70.0875741" id="Fill-543" fill="#E7EBF7"></path>
                <path d="M62.9036897,32.0991667 C62.9036897,33.2547222 61.9623103,34.1936111 60.8036897,34.1936111 C59.645069,34.1936111 58.7278276,33.2547222 58.7278276,32.0991667 C58.7278276,30.9436111 59.645069,30.0287963 60.8036897,30.0287963 C61.9623103,30.0287963 62.9036897,30.9436111 62.9036897,32.0991667" id="Fill-545" fill="#E7EBF7"></path>
                <path d="M118.420931,35.5174444 C116.514034,36.2878148 114.534724,36.360037 111.445069,39.0081852 C110.96231,39.4174444 110.551966,39.8748519 110.189897,40.3563333 C109.610586,39.9470741 109.007138,39.5618889 108.379552,39.2007778 C110.96231,38.4063333 113.979552,36.8896667 116.248517,34.0489259 C116.996793,34.5304074 117.720931,35.0118889 118.420931,35.5174444" id="Fill-547" fill="#E7EBF7"></path>
                <path d="M139.348276,71.1232407 C139.348276,78.7547222 136.934483,86.0010185 132.637931,92.4769444 C123.465517,106.343611 105.603448,116.695463 84.0965517,119.945463 C79.437931,120.643611 74.6344828,121.004722 69.6862069,121.004722 C41.9034483,121.004722 17.9344828,109.376944 6.75862069,92.5250926 C2.4137931,86.0491667 0,78.7787963 0,71.1232407 C0,61.7825 3.59655172,53.019537 9.87241379,45.5565741 C13.4931034,47.6510185 16.7275862,48.3732407 16.7275862,48.3732407 L17.4758621,50.9491667 C17.3551724,51.069537 17.2827586,51.1899074 17.1862069,51.3102778 C16.3413793,51.2621296 15.4241379,51.3102778 14.4344828,51.4547222 C3.37931034,53.1399074 5.26206897,64.5510185 5.26206897,64.5510185 C5.26206897,64.5510185 5.79310345,69.3899074 8.18275862,75.9139815 C10.4517241,82.245463 14.4586207,90.1417593 21.2896552,96.7139815 C31.8137931,106.825093 45.4517241,110.41213 53.0068966,111.471389 C58.2931034,112.578796 63.8931034,113.156574 69.6862069,113.156574 C74.4896552,113.156574 79.1724138,112.749722 83.637931,111.976944 C90.8793103,110.773241 97.5655172,108.606574 103.503448,105.693611 C104.275862,105.910278 105.096552,106.006574 105.941379,106.006574 C110.986207,106.006574 115.186207,102.347315 115.982759,97.5325 C124.068966,90.4547222 128.993103,81.5232407 129.186207,71.7732407 C129.210345,71.5565741 129.210345,71.3399074 129.210345,71.1232407 C129.210345,70.1843519 129.162069,69.245463 129.065517,68.3306481 C129.644828,68.3787963 130.465517,68.5232407 132.058621,68.595463 C134.206897,68.7158333 137.151724,68.1139815 139.155172,67.6325 C139.3,68.7880556 139.348276,69.9436111 139.348276,71.1232407" id="Fill-549" fill="#E5E8F8"></path>
                <path d="M80.3551724,68.6922407 C80.3551724,72.9533519 76.9034483,76.3959444 72.6310345,76.3959444 C70.9413793,76.3959444 69.3965517,75.8422407 68.1172414,74.9274259 C67.562069,73.8681667 67.2482759,72.664463 67.2482759,71.388537 C67.2482759,67.1274259 70.7,63.6848333 74.9724138,63.6848333 C76.662069,63.6848333 78.2068966,64.238537 79.4862069,65.1533519 C80.0413793,66.2126111 80.3551724,67.4163148 80.3551724,68.6922407" id="Fill-551" fill="#FED307"></path>
                <path d="M108.668966,95.607537 C107.751724,96.257537 108.162069,96.7606852 108.162069,96.7606852 C108.162069,96.7606852 109.368966,99.4353148 108.403448,99.9866111 C107.437931,100.518648 107.1,99.6014259 105.868966,98.3977222 C104.637931,97.2205 103.962069,98.1810556 102.996552,98.4940185 C102.031034,98.7829074 101.524138,98.1810556 101.886207,97.4130926 C102.224138,96.6427222 104.106897,95.4149444 104.058621,94.5482778 C104.034483,93.6551296 103.503448,93.2482778 103.382759,92.5477222 C103.262069,91.8736481 103.865517,91.6353148 103.865517,91.6353148 C104.710345,91.5149444 105.265517,92.5982778 106.134483,93.3927222 C107.027586,94.2112407 107.510345,93.5588333 108.862069,93.4408704 C110.213793,93.3205 110.624138,93.5130926 110.47931,94.1149444 C110.310345,94.7408704 109.586207,94.9551296 108.668966,95.607537 M115.089655,91.3945741 C114.051724,89.2760556 112.289655,87.5643889 110.141379,86.6038333 C109.634483,86.3606852 109.07931,86.1705 108.524138,86.0260556 C107.703448,85.8093889 106.834483,85.6890185 105.941379,85.6890185 C101.306897,85.6890185 97.3965517,88.7945741 96.1655172,93.007537 C95.9,93.8982778 95.7551724,94.8588333 95.7551724,95.8482778 C95.7551724,100.614944 99.062069,104.635315 103.503448,105.692167 C104.275862,105.908833 105.096552,106.00513 105.941379,106.00513 C110.986207,106.00513 115.186207,102.348278 115.982759,97.533463 C116.07931,97.0038333 116.127586,96.4260556 116.127586,95.8482778 C116.127586,94.2353148 115.765517,92.7427222 115.089655,91.3945741" id="Fill-553" fill="#FF5756"></path>
                <path d="M121.076345,45.2436111 C120.159103,46.0621296 119.048759,46.3028704 118.566,45.7732407 C118.083241,45.2436111 118.44531,44.1602778 119.362552,43.3417593 C120.279793,42.5232407 121.390138,42.2825 121.872897,42.7880556 C122.355655,43.3176852 121.993586,44.4250926 121.076345,45.2436111 L121.076345,45.2436111 Z M99.0142759,66.2362037 C98.5797931,66.2362037 98.1935862,65.8750926 97.9522069,65.2732407 C97.8073793,64.9121296 97.7108276,64.4547222 97.7108276,63.9491667 C97.7108276,62.6732407 98.2901379,61.6621296 99.0142759,61.6621296 C99.0866897,61.6621296 99.1349655,61.6621296 99.2073793,61.6862037 C99.8108276,61.8547222 100.293586,62.7936111 100.293586,63.9491667 C100.293586,65.2250926 99.7142759,66.2362037 99.0142759,66.2362037 L99.0142759,66.2362037 Z M95.2728966,79.3565741 C93.703931,81.1621296 91.8694483,82.1491667 91.1935862,81.5473148 C90.5177241,80.969537 91.2418621,79.0436111 92.8108276,77.2380556 C94.3797931,75.4325 96.1901379,74.445463 96.866,75.0232407 C97.5418621,75.6250926 96.8177241,77.5510185 95.2728966,79.3565741 L95.2728966,79.3565741 Z M125.590138,34.3862037 C125.131517,34.9880556 124.528069,35.6139815 123.755655,36.0713889 C122.983241,36.5287963 121.94531,36.8899074 120.834966,37.2750926 C118.807379,37.9973148 116.538414,38.7676852 115.066,40.2843519 C114.221172,41.1510185 113.666,41.8250926 113.255655,42.4991667 C112.507379,43.6787963 112.097034,44.9065741 111.300483,47.2176852 C110.503931,49.5287963 110.28669,51.695463 108.862552,53.5010185 C108.017724,54.5843519 106.738414,55.5232407 104.662552,56.3176852 C103.093586,56.895463 101.693586,57.4250926 100.510828,57.9065741 C97.4694483,59.1825 95.6591034,60.3380556 95.0073793,62.3362037 C94.8142759,62.9139815 94.6453103,63.5639815 94.4763448,64.2139815 C93.8487586,66.669537 93.2694483,69.4621296 91.8453103,71.3639815 C91.0728966,72.3991667 89.8418621,73.3621296 88.6591034,74.1325 C88.2970345,74.3732407 87.9108276,74.6139815 87.5728966,74.8065741 L87.5487586,74.8306481 C86.1728966,77.7436111 84.2901379,80.5843519 81.7797931,82.1732407 C79.9694483,83.3047222 78.1349655,83.8102778 76.3728966,83.8825 C76.3728966,83.9306481 76.3728966,84.0028704 76.3487586,84.0750926 C76.3246207,84.195463 76.3004828,84.2917593 76.2763448,84.4362037 L76.2763448,84.4626852 C76.0591034,85.3750926 75.6728966,86.6028704 74.9487586,88.2880556 C74.2487586,89.8793519 73.428069,91.1047222 72.6315172,92.019537 L74.5625517,93.7287963 L80.5970345,99.0973148 C81.1522069,98.1825 81.803931,97.0510185 82.3349655,96.1121296 C83.4694483,94.0923148 83.6866897,87.0121296 89.0453103,85.1343519 C94.403931,83.2589815 96.0694483,81.9565741 99.2315172,78.6584259 C102.393586,75.3362037 101.717724,70.2325 104.807379,66.7658333 C107.897034,63.2991667 112.434966,63.3713889 115.983241,60.6028704 C116.562552,60.145463 117.069448,59.5676852 117.479793,58.9176852 C119.14531,56.3899074 119.748759,52.7065741 121.052207,49.8899074 C121.414276,49.0713889 121.848759,48.3491667 122.379793,47.7232407 C124.262552,45.5565741 126.579793,45.0510185 128.559103,44.4973148 C129.597034,44.2084259 130.538414,43.919537 131.28669,43.3658333 C132.155655,42.7399074 132.879793,41.8732407 133.434966,41.0787963 L125.590138,34.3862037 Z" id="Fill-555" fill="#DA6F3E"></path>
                <path d="M139.154931,67.6332222 C137.151483,68.1147037 134.206655,68.7165556 132.058379,68.5961852 C130.465276,68.523963 129.644586,68.3795185 129.065276,68.3313704 C128.848034,65.7072963 128.244586,63.1554444 127.351483,60.6758148 C126.554931,58.461 125.517,56.3424815 124.213552,54.2961852 C125.63769,51.4795185 127.761828,48.9517407 130.465276,48.4221111 C130.827345,48.3498889 131.165276,48.2535926 131.503207,48.1332222 C132.661828,49.7221111 133.723897,51.3591481 134.617,53.0684074 C137.127345,57.6184074 138.69631,62.5295185 139.154931,67.6332222" id="Fill-557" fill="#B5C8F6"></path>
                <path d="M137.176103,44.2808889 C137.176103,44.2808889 134.810586,47.0494074 131.50369,48.1327407 C131.165759,48.2531111 130.827828,48.3494074 130.465759,48.4216296 C127.76231,48.9512593 125.638172,51.479037 124.214034,54.2957037 C123.610586,55.5234815 123.127828,56.7753333 122.765759,57.979037 C122.379552,59.3031111 121.824379,60.6031111 121.027828,61.8068148 C119.507138,64.142 117.165759,66.1401481 113.641621,67.3679259 C108.283,69.2457037 106.255414,72.7123704 104.66231,77.8160741 C103.069207,82.9438519 101.041621,84.8938519 96.2140345,86.6271852 C91.3864483,88.3605185 88.2967931,90.9123704 87.0898966,95.0531111 C86.7519655,96.1845926 86.3898966,97.2438519 86.0278276,98.1586667 C85.0623103,100.638296 84.145069,102.275333 84.145069,102.275333 L83.5174828,101.72163 L80.5967931,99.0975556 C81.1519655,98.1827407 81.8036897,97.0512593 82.3347241,96.1123704 C83.4692069,94.0901481 83.6864483,87.0123704 89.045069,85.1345926 C94.4036897,83.2568148 96.0692069,81.9568148 99.2312759,78.6586667 C102.393345,75.3364444 101.717483,70.2327407 104.807138,66.7660741 C107.896793,63.2994074 112.434724,63.3716296 115.983,60.6031111 C116.56231,60.1457037 117.069207,59.5679259 117.479552,58.9179259 C119.145069,56.3901481 119.748517,52.7068148 121.051966,49.8901481 C121.414034,49.0716296 121.848517,48.3494074 122.379552,47.7234815 C124.26231,45.5568148 126.579552,45.0512593 128.558862,44.4975556 C129.596793,44.2086667 130.538172,43.9197778 131.286448,43.3660741 C132.155414,42.7401481 132.879552,41.8734815 133.434724,41.079037 L137.176103,44.2808889 Z" id="Fill-559" fill="#845040"></path>
                <path d="M129.066,68.3301667 C128.414276,68.2579444 128.052207,68.3060926 127.207379,68.6672037 C127.110828,68.6912778 126.990138,68.7394259 126.869448,68.7875741 C124.890138,69.6060926 124.817724,72.6875741 120.279793,74.4209074 C119.000483,74.926463 118.059103,75.2394259 117.407379,75.4801667 L117.359103,75.4801667 C116.972897,75.3838704 116.538414,75.3597963 116.128069,75.3597963 C111.662552,75.3597963 108.066,78.9709074 108.066,83.400537 C108.066,84.3153519 108.210828,85.2060926 108.524621,86.0246111 C107.703931,85.8079444 106.834966,85.6875741 105.941862,85.6875741 C101.307379,85.6875741 97.3970345,88.7931296 96.166,93.0060926 C94.5004828,94.0172037 92.5694483,94.8838704 90.3487586,95.3894259 C90.3004828,95.3894259 90.2522069,95.4135 90.203931,95.4375741 C88.3211724,95.8973889 86.9694483,97.050537 86.028069,98.1579444 C86.3901379,97.2431296 86.7522069,96.1838704 87.0901379,95.0523889 C88.2970345,90.9116481 91.3866897,88.3597963 96.2142759,86.626463 C101.041862,84.8931296 103.069448,82.9431296 104.662552,77.8153519 C106.255655,72.7116481 108.283241,69.2449815 113.641862,67.3672037 C117.166,66.1394259 119.507379,64.1412778 121.028069,61.8060926 C121.824621,60.6023889 122.379793,59.3023889 122.766,57.9783148 C123.128069,56.7746111 123.610828,55.5227593 124.214276,54.2949815 C125.517724,56.3412778 126.555655,58.4597963 127.352207,60.6746111 C128.24531,63.1542407 128.848759,65.7060926 129.066,68.3301667" id="Fill-561" fill="#C9D9FF"></path>
                <path d="M110.189414,40.3570556 C107.558379,43.8959444 107.630793,49.1922407 105.410103,51.8403889 C105.313552,51.9848333 105.192862,52.1292778 105.048034,52.2496481 C103.865276,53.3811296 102.682517,53.9107593 101.403207,54.3200185 L101.861828,50.3477963 L103.020448,40.1403889 C103.020448,40.1403889 105.410103,40.1403889 108.379069,39.2015 C109.006655,39.5626111 109.610103,39.9477963 110.189414,40.3570556" id="Fill-563" fill="#C5DAF9"></path>
                <path d="M118.420931,35.5174444 C116.514034,36.2878148 114.534724,36.360037 111.445069,39.0081852 C110.96231,39.4174444 110.551966,39.8748519 110.189897,40.3563333 C109.610586,39.9470741 109.007138,39.5618889 108.379552,39.2007778 C110.96231,38.4063333 113.979552,36.8896667 116.248517,34.0489259 C116.996793,34.5304074 117.720931,35.0118889 118.420931,35.5174444" id="Fill-565" fill="#B5C6F5"></path>
                <path d="M132.638414,92.4759815 C128.993586,109.616722 109.707379,123.413574 84.6522069,127.40987 C79.8487586,128.177833 74.8522069,128.587093 69.6866897,128.587093 C37.6315172,128.587093 11.103931,112.91487 6.75910345,92.526537 C17.9349655,109.378389 41.903931,121.006167 69.6866897,121.006167 C74.6349655,121.006167 79.4384138,120.642648 84.0970345,119.9445 C105.603931,116.696907 123.466,106.345056 132.638414,92.4759815" id="Fill-567" fill="#94B5FF"></path>
                <path d="M92.2073793,99.0258148 C91.8694483,99.6011852 90.3487586,100.109148 89.8901379,99.5313704 C89.4315172,98.9535926 89.7694483,97.4369259 90.5901379,96.278963 C91.4349655,95.1258148 91.8211724,96.7147037 91.8211724,96.7147037 C91.8211724,96.7147037 92.5211724,98.448037 92.2073793,99.0258148 M77.8935862,104.851741 C76.8073793,106.510444 75.6487586,106.823407 75.1418621,106.317852 C74.6349655,105.79063 75.0211724,102.468407 75.4073793,101.577667 C75.7935862,100.684519 76.3004828,101.072111 76.3004828,101.072111 C76.8797931,101.577667 79.003931,103.166556 77.8935862,104.851741 M95.7556552,95.848037 C95.7556552,94.861 95.9004828,93.898037 96.166,93.0072963 C94.5004828,94.0184074 92.5694483,94.8826667 90.3487586,95.3882222 C90.3004828,95.3882222 90.2522069,95.4147037 90.203931,95.4387778 C88.3211724,95.8961852 86.9694483,97.0517407 86.028069,98.1591481 C85.0625517,100.638778 84.1453103,102.275815 84.1453103,102.275815 L83.5177241,101.722111 L80.5970345,99.0956296 L74.5625517,93.7295185 L72.6315172,92.0202593 L70.1453103,89.8054444 L66.5487586,90.623963 L65.366,90.8887778 C67.2246207,91.948037 68.7935862,93.8017407 69.5418621,97.2684074 C69.7591034,98.2313704 69.903931,99.2882222 69.9763448,100.491926 C70.5556552,110.121556 61.6004828,111.614148 58.1246207,111.809148 C57.2797931,111.857296 55.4694483,111.785074 53.0073793,111.472111 C58.2935862,112.579519 63.8935862,113.157296 69.6866897,113.157296 C74.4901379,113.157296 79.1728966,112.748037 83.6384138,111.977667 C90.8797931,110.773963 97.566,108.604889 103.503931,105.694333 C99.0625517,104.635074 95.7556552,100.614704 95.7556552,95.848037" id="Fill-569" fill="#FFFFFF"></path>
                <path d="M120.472897,83.6903889 C120.110828,84.1237222 119.434966,84.0274259 118.469448,84.1718704 C117.479793,84.3403889 117.624621,84.8940926 117.624621,84.8940926 C117.624621,84.8940926 117.528069,87.4700185 116.562552,87.5181667 C115.597034,87.5903889 115.693586,86.7237222 115.162552,85.3274259 C114.655655,83.9070556 113.738414,84.388537 112.869448,84.2681667 C112.000483,84.1453889 111.831517,83.4737222 112.410828,82.9922407 C112.966,82.5348333 114.921172,82.2700185 115.234966,81.5718704 C115.548759,80.8496481 115.283241,80.3200185 115.452207,79.7181667 C115.64531,79.1403889 116.200483,79.188537 116.200483,79.188537 C116.924621,79.4292778 116.924621,80.488537 117.310828,81.4515 C117.697034,82.4361296 118.348759,82.1015 119.459103,82.5348333 C120.569448,82.9681667 120.834966,83.2811296 120.472897,83.6903889 M117.407379,75.4811296 L117.359103,75.4811296 C116.972897,75.3848333 116.538414,75.3607593 116.128069,75.3607593 C111.662552,75.3607593 108.066,78.9718704 108.066,83.4015 C108.066,84.3163148 108.210828,85.2070556 108.524621,86.0255741 C109.079793,86.1700185 109.634966,86.3602037 110.141862,86.6033519 C112.290138,87.5639074 114.052207,89.2755741 115.090138,91.3940926 C115.428069,91.4422407 115.766,91.4639074 116.128069,91.4639074 C120.569448,91.4639074 124.190138,87.8527963 124.190138,83.4015 C124.190138,79.4052037 121.24531,76.0829815 117.407379,75.4811296" id="Fill-571" fill="#E7546B"></path>
                <path d="M129.209862,71.1232407 C129.209862,71.3399074 129.209862,71.5565741 129.185724,71.7732407 C128.992621,81.5232407 124.068483,90.4547222 115.982276,97.5325 C116.078828,97.0028704 116.127103,96.4250926 116.127103,95.8473148 C116.127103,94.2343519 115.765034,92.7417593 115.089172,91.3936111 C115.427103,91.4417593 115.765034,91.4658333 116.127103,91.4658333 C120.568483,91.4658333 124.189172,87.8547222 124.189172,83.4010185 C124.189172,79.4047222 121.244345,76.0825 117.406414,75.4806481 C118.058138,75.2399074 118.999517,74.9269444 120.278828,74.4213889 C124.816759,72.6880556 124.889172,69.6065741 126.868483,68.7880556 C126.989172,68.7399074 127.109862,68.6917593 127.206414,68.6676852 C128.051241,68.3065741 128.41331,68.2584259 129.065034,68.3306481 C129.161586,69.245463 129.209862,70.1843519 129.209862,71.1232407" id="Fill-573" fill="#F8FDFF"></path>
                <path d="M62.4204483,97.4836296 C62.4204483,97.6064074 62.3721724,97.7027037 62.2756207,97.7965926 L54.4066552,106.896593 C54.1652759,107.185481 53.7066552,107.236037 53.4411379,106.968815 C53.2721724,106.82437 53.1997586,106.634185 53.1997586,106.441593 C53.1997586,106.294741 53.2480345,106.12863 53.3687241,106.005852 L61.1652759,96.9780741 L61.2376897,96.9082593 C61.479069,96.6193704 61.9135517,96.5928889 62.2032069,96.8336296 C62.3721724,96.954 62.4445862,97.1465926 62.4445862,97.3391852 C62.4445862,97.3873333 62.4445862,97.4354815 62.4204483,97.4836296 M44.0756207,90.986037 L36.2066552,100.08363 C35.9411379,100.372519 35.5066552,100.396593 35.217,100.155852 C35.0480345,100.037889 34.9756207,99.8428889 34.9756207,99.6502963 C34.9756207,99.4817778 35.0238966,99.3156667 35.1445862,99.1928889 L43.0135517,90.0952963 C43.279069,89.8064074 43.7135517,89.7558519 44.0032069,90.0206667 C44.1480345,90.1651111 44.2204483,90.3577037 44.2204483,90.5502963 C44.2204483,90.6971481 44.1721724,90.8632593 44.0756207,90.986037 M29.3514828,97.5341852 C28.6514828,97.5341852 28.0963103,96.9780741 28.0963103,96.2799259 C28.0963103,95.5817778 28.6514828,95.0064074 29.3514828,95.0064074 C30.0514828,95.0064074 30.6307931,95.5817778 30.6307931,96.2799259 C30.6307931,96.9780741 30.0514828,97.5341852 29.3514828,97.5341852 M27.7825172,79.3558519 L19.9135517,88.4558519 C19.6480345,88.7447407 19.2135517,88.7688148 18.9238966,88.5280741 C18.754931,88.4077037 18.6825172,88.1934444 18.6825172,88.0008519 C18.6825172,87.854 18.7307931,87.6878889 18.8514828,87.5651111 L26.7204483,78.441037 C26.9859655,78.1521481 27.4204483,78.1280741 27.7101034,78.3712222 C27.854931,78.5132593 27.9273448,78.7058519 27.9273448,78.9249259 C27.9273448,79.0693704 27.879069,79.2354815 27.7825172,79.3558519 M11.8032069,70.4725185 C11.6342414,70.3280741 11.5618276,70.1354815 11.5618276,69.9452963 C11.5618276,69.7743704 11.6101034,69.6299259 11.7307931,69.5095556 L18.417,61.7577037 L18.5135517,61.6614074 L19.5997586,60.3854815 C19.7445862,60.2193704 19.9618276,60.1447407 20.154931,60.1447407 C20.179069,60.1447407 20.2273448,60.1447407 20.2514828,60.1688148 C20.3721724,60.1688148 20.4687241,60.241037 20.5652759,60.3156667 C20.7342414,60.4577037 20.8066552,60.6502963 20.8066552,60.8428889 C20.8066552,61.0138148 20.7583793,61.1799259 20.6376897,61.3002963 L20.5411379,61.4230741 L12.7687241,70.4002963 C12.5273448,70.6891852 12.0687241,70.7132593 11.8032069,70.4725185 M22.617,68.0434444 C23.3411379,68.2095556 23.9445862,68.7415926 24.2101034,69.4132593 C24.3066552,69.6780741 24.354931,69.9452963 24.354931,70.2317778 C24.354931,71.4836296 23.3411379,72.4947407 22.0859655,72.4947407 C20.8307931,72.4947407 19.817,71.4836296 19.817,70.2317778 C19.817,68.9799259 20.8307931,67.9688148 22.0859655,67.9688148 C22.279069,67.9688148 22.4480345,67.9928889 22.617,68.0434444 M69.9756207,100.492889 C69.9032069,99.2891852 69.7583793,98.2323333 69.5411379,97.266963 C68.7928621,93.8027037 67.2238966,91.9465926 65.3652759,90.8897407 L65.3411379,90.8897407 C63.6756207,89.8786296 61.7928621,89.5632593 60.1032069,89.2767778 C57.7376897,88.8651111 56.7721724,89.3465926 53.779069,88.7447407 C51.5825172,88.3354815 48.2997586,87.3749259 42.6032069,85.1095556 C42.4342414,85.0373333 42.2652759,84.9675185 42.0963103,84.8712222 L42.0721724,84.8712222 C38.2342414,83.2317778 35.3376897,80.3693704 33.1652759,77.1891852 L33.117,77.141037 C28.8204483,70.7373333 27.3721724,62.9854815 26.9859655,60.5058519 C26.8411379,59.591037 26.5756207,58.7002963 26.1894138,57.8336296 C25.9963103,57.4027037 25.754931,56.9188148 25.4411379,56.4132593 C24.1376897,54.249 21.7238966,51.6947407 17.5963103,51.336037 C17.4514828,51.3095556 17.3307931,51.3095556 17.1859655,51.3095556 C16.3411379,51.2614074 15.4238966,51.3095556 14.4342414,51.454 C3.37906897,53.1415926 5.26182759,64.5502963 5.26182759,64.5502963 C5.26182759,64.5502963 5.79286207,69.3915926 8.18251724,75.9156667 C10.4514828,82.2447407 14.4583793,90.141037 21.2894138,96.7156667 C31.8135517,106.82437 45.4514828,110.411407 53.0066552,111.473074 C55.4687241,111.78363 57.279069,111.858259 58.1238966,111.807704 C61.5997586,111.615111 70.554931,110.122519 69.9756207,100.492889" id="Fill-575" fill="#DA7040"></path>
                <path d="M76.3726552,83.8832222 C76.3726552,83.9313704 76.3726552,84.0035926 76.3485172,84.0758148 C76.3243793,84.1961852 76.3002414,84.2924815 76.2761034,84.4345185 L76.2761034,84.461 C76.0588621,85.3758148 75.6726552,86.6035926 74.9485172,88.2887778 C74.2485172,89.8776667 73.4278276,91.1054444 72.6312759,92.0202593 L70.145069,89.8054444 L69.8795517,89.5622963 C69.8795517,89.5622963 72.220931,87.0128519 73.2105862,84.7258148 C73.3795517,84.3647037 73.5002414,84.0276667 73.5485172,83.6906296 C74.4657586,83.8326667 75.4071379,83.9313704 76.3726552,83.8832222" id="Fill-577" fill="#845040"></path>
                <path d="M74.9726552,79.0917593 C71.9795517,79.0917593 69.3967931,77.4065741 68.1174828,74.9269444 C67.5623103,73.8676852 67.2485172,72.6639815 67.2485172,71.3880556 C67.2485172,67.1269444 70.7002414,63.6843519 74.9726552,63.6843519 C76.6623103,63.6843519 78.2071379,64.2380556 79.4864483,65.1528704 C81.4174828,66.5491667 82.6967931,68.8121296 82.6967931,71.3880556 C82.6967931,75.6491667 79.220931,79.0917593 74.9726552,79.0917593 M88.6105862,53.4769444 C86.5347241,52.1047222 83.6140345,52.2491667 81.320931,52.7065741 C79.2692069,53.0676852 77.7485172,53.6936111 77.7485172,53.6936111 C77.3864483,53.8380556 77.0002414,54.0306481 76.5657586,54.2232407 C75.3588621,54.8010185 73.9105862,55.5473148 72.3657586,56.4862037 C71.6898966,56.895463 71.0140345,57.3287963 70.3140345,57.8102778 L70.2898966,57.8102778 C67.1278276,60.0010185 64.0140345,62.8417593 62.5416207,66.1880556 C59.7416207,72.4713889 63.5795517,78.4658333 65.945069,80.1991667 C67.320931,81.2102778 70.145069,83.0639815 73.5485172,83.6899074 C74.4657586,83.8343519 75.4071379,83.9306481 76.3726552,83.8825 C78.1347241,83.8102778 79.9692069,83.3047222 81.7795517,82.1732407 C84.2898966,80.5843519 86.1726552,77.7436111 87.5485172,74.8306481 L87.5726552,74.8065741 C87.7898966,74.3491667 88.0071379,73.8676852 88.2002414,73.4102778 C89.9623103,69.245463 90.6864483,65.345463 90.6864483,65.345463 C90.6864483,65.345463 90.8795517,64.4306481 91.0002414,63.0825 C91.0243793,62.745463 91.0485172,62.3843519 91.0726552,61.9991667 C91.2416207,59.0621296 91.0002414,55.0417593 88.6105862,53.4769444" id="Fill-579" fill="#FFFFFF"></path>
                <path d="M69.8797931,89.5632593 L70.1453103,89.8064074 L66.5487586,90.6225185 L65.366,90.8897407 L65.3418621,90.8897407 C63.6763448,89.8786296 61.7935862,89.5632593 60.103931,89.2767778 C57.7384138,88.8651111 56.7728966,89.3465926 53.7797931,88.7447407 L63.2418621,86.7971481 L73.2108276,84.7243704 C72.2211724,87.0114074 69.8797931,89.5632593 69.8797931,89.5632593" id="Fill-581" fill="#D4A24C"></path>
                <path d="M100.292621,63.9491667 C100.292621,65.2250926 99.7133103,66.2362037 99.0133103,66.2362037 C98.5788276,66.2362037 98.1926207,65.8750926 97.9512414,65.2732407 C97.8064138,64.9121296 97.7098621,64.4547222 97.7098621,63.9491667 C97.7098621,62.6732407 98.2891724,61.6621296 99.0133103,61.6621296 C99.0857241,61.6621296 99.134,61.6621296 99.2064138,61.6862037 C99.8098621,61.8547222 100.292621,62.7936111 100.292621,63.9491667" id="Fill-583" fill="#845040"></path>
                <path d="M119.627828,24.0589074 C119.579552,25.4552037 119.410586,26.7070556 119.145069,27.8626111 C118.565759,30.414463 117.527828,32.4607593 116.248517,34.0496481 C113.979552,36.8903889 110.96231,38.4070556 108.379552,39.2015 C105.410586,40.1403889 103.020931,40.1403889 103.020931,40.1403889 L101.86231,50.3477963 L101.40369,54.3200185 C99.520931,54.9459444 97.420931,55.3552037 94.7898966,57.1366852 C92.9312759,58.388537 91.7967931,60.2422407 91.0726552,61.9996481 C91.2416207,59.0626111 91.0002414,55.0422407 88.6105862,53.4774259 C86.5347241,52.1052037 83.6140345,52.2496481 81.320931,52.7070556 L79.945069,45.0996481 L78.9071379,39.3459444 L78.8347241,38.9607593 C78.8347241,38.9607593 85.3761034,37.7329815 88.4898966,31.2570556 C89.4795517,29.2107593 90.1071379,26.6589074 90.1071379,23.4570556 C90.1071379,22.638537 90.0588621,21.7718704 89.9623103,20.8811296 C89.9623103,20.8811296 88.7554138,9.34964815 76.6140345,6.7015 C76.5898966,6.67742593 76.5657586,6.67742593 76.5657586,6.67742593 C73.4761034,5.06446296 70.3381724,4.92001852 68.4795517,5.11261111 C67.4174828,5.20890741 51.1726552,8.0015 36.545069,10.5052037 C39.7312759,-2.25405556 54.3347241,0.538537037 54.3347241,0.538537037 L99.0381724,7.18298148 C99.0381724,7.18298148 120.231276,8.96446296 119.627828,24.0589074" id="Fill-585" fill="#AD624F"></path>
                <path d="M90.1071379,23.4570556 C90.1071379,26.6589074 89.4795517,29.2107593 88.4898966,31.2570556 C85.3761034,37.7329815 78.8347241,38.9607593 78.8347241,38.9607593 L78.9071379,39.3459444 L79.945069,45.0996481 L81.320931,52.7070556 C79.2692069,53.0681667 77.7485172,53.6940926 77.7485172,53.6940926 C77.3864483,53.838537 77.0002414,54.0311296 76.5657586,54.2237222 L74.7312759,44.6903889 L74.0795517,41.3681667 L73.1623103,36.5774259 C73.1623103,36.5774259 78.545069,34.6755741 81.9485172,30.0052037 C83.3967931,28.0070556 84.5071379,25.5033519 84.6519655,22.4218704 C84.7002414,21.314463 84.6278276,20.1107593 84.4105862,18.8107593 C83.2278276,11.9977963 79.9933448,8.45890741 76.6140345,6.7015 C88.7554138,9.34964815 89.9623103,20.8811296 89.9623103,20.8811296 C90.0588621,21.7718704 90.1071379,22.638537 90.1071379,23.4570556" id="Fill-587" fill="#D4A24C"></path>
                <path d="M60.8032069,34.1938519 C59.6445862,34.1938519 58.7273448,33.254963 58.7273448,32.0994074 C58.7273448,30.9438519 59.6445862,30.029037 60.8032069,30.029037 C61.9618276,30.029037 62.9032069,30.9438519 62.9032069,32.0994074 C62.9032069,33.254963 61.9618276,34.1938519 60.8032069,34.1938519 M59.5963103,62.1679259 C58.7273448,62.1679259 57.979069,61.5660741 57.8101034,60.7475556 C57.7618276,60.6031111 57.7376897,60.4586667 57.7376897,60.3142222 C57.7376897,59.4475556 58.317,58.7494074 59.1135517,58.5327407 C59.2583793,58.4845926 59.4273448,58.4605185 59.5963103,58.4605185 C60.6342414,58.4605185 61.479069,59.279037 61.479069,60.3142222 C61.479069,61.3494074 60.6342414,62.1679259 59.5963103,62.1679259 M48.0342414,47.0494074 C47.6963103,47.7234815 46.9963103,48.1808889 46.1756207,48.1808889 C45.7652759,48.1808889 45.379069,48.0605185 45.0411379,47.8438519 C44.4618276,47.4827407 44.0756207,46.8327407 44.0756207,46.0864444 C44.0756207,44.954963 45.017,44.0160741 46.1756207,44.0160741 C47.3342414,44.0160741 48.2756207,44.954963 48.2756207,46.0864444 C48.2756207,46.4234815 48.179069,46.7605185 48.0342414,47.0494074 M42.4342414,32.5568148 C42.4342414,31.5216296 43.254931,30.7031111 44.2928621,30.7031111 C45.3307931,30.7031111 46.1273448,31.4975556 46.1514828,32.5327407 L46.1514828,32.5568148 C46.1514828,33.592 45.3307931,34.4105185 44.2928621,34.4105185 C43.6652759,34.4105185 43.1101034,34.1216296 42.7963103,33.6401481 C42.554931,33.3512593 42.4342414,32.9660741 42.4342414,32.5568148 M32.5376897,54.0068148 C32.5376897,53.2605185 33.1652759,52.6586667 33.9135517,52.6586667 C34.6618276,52.6586667 35.2652759,53.2605185 35.2652759,54.0068148 C35.2652759,54.7771852 34.6618276,55.379037 33.9135517,55.379037 C33.1652759,55.379037 32.5376897,54.7771852 32.5376897,54.0068148 M31.017,39.1771852 C30.7032069,38.8882963 30.5342414,38.479037 30.5342414,38.0457037 C30.5342414,37.154963 31.2583793,36.4568148 32.1514828,36.4568148 C32.8997586,36.4568148 33.5273448,36.9623704 33.6963103,37.6605185 C33.7204483,37.7808889 33.7445862,37.9012593 33.7445862,38.0457037 C33.7445862,38.9364444 33.0445862,39.6586667 32.1514828,39.6586667 C31.717,39.6586667 31.3066552,39.4901481 31.017,39.1771852 M33.7445862,20.6160741 C34.7583793,20.6160741 35.6032069,21.4586667 35.6032069,22.4697778 C35.6032069,23.504963 34.7583793,24.3475556 33.7445862,24.3475556 C32.7066552,24.3475556 31.8618276,23.504963 31.8618276,22.4697778 C31.8618276,21.4586667 32.7066552,20.6160741 33.7445862,20.6160741 M39.4652759,68.3308889 C40.4307931,68.3308889 41.2273448,69.1253333 41.2273448,70.0882963 C41.2273448,71.0753333 40.4307931,71.8457037 39.4652759,71.8457037 C38.4997586,71.8457037 37.7032069,71.0753333 37.7032069,70.0882963 C37.7032069,69.1253333 38.4997586,68.3308889 39.4652759,68.3308889 M84.4101034,18.8105185 C83.2273448,11.9975556 79.9928621,8.45866667 76.6135517,6.70125926 C76.5894138,6.67718519 76.5652759,6.67718519 76.5652759,6.67718519 C73.4756207,5.06422222 70.3376897,4.91977778 68.479069,5.11237037 C67.417,5.20866667 51.1721724,8.00125926 36.5445862,10.504963 C24.1859655,12.6716296 12.9376897,14.6216296 12.9376897,14.6216296 C12.9376897,14.6216296 -0.410586207,16.3068148 0.0963103448,30.5105185 C0.385965517,38.3586667 5.4307931,42.9808889 9.87217241,45.5568148 C13.4928621,47.6512593 16.7273448,48.3734815 16.7273448,48.3734815 L17.4756207,50.9494074 L17.5963103,51.3345926 C21.7238966,51.6957037 24.1376897,54.2475556 25.4411379,56.4142222 C25.754931,56.9197778 25.9963103,57.4012593 26.1894138,57.8345926 C26.5756207,58.7012593 26.8411379,59.592 26.9859655,60.5068148 C27.3721724,62.9864444 28.8204483,70.7382963 33.117,77.142 L33.1652759,77.1901481 C35.3376897,80.3679259 38.2342414,83.2327407 42.0721724,84.8697778 L42.0963103,84.8697778 C42.2652759,84.9660741 42.4342414,85.0382963 42.6032069,85.1105185 C48.2997586,87.3734815 51.5825172,88.3364444 53.779069,88.7457037 L63.2411379,86.7957037 L73.2101034,84.7253333 C73.379069,84.3642222 73.4997586,84.0271852 73.5480345,83.6901481 C70.1445862,83.0642222 67.3204483,81.2105185 65.9445862,80.1994074 C63.579069,78.4660741 59.7411379,72.4716296 62.5411379,66.1882963 C64.0135517,62.842 67.1273448,60.0012593 70.2894138,57.8105185 L70.3135517,57.8105185 C71.0135517,57.329037 71.6894138,56.8957037 72.3652759,56.4864444 C73.9101034,55.5475556 75.3583793,54.8012593 76.5652759,54.2234815 L74.7307931,44.6901481 L74.079069,41.3679259 L73.1618276,36.5771852 C73.1618276,36.5771852 78.5445862,34.6753333 81.9480345,30.004963 C83.3963103,28.0068148 84.5066552,25.5031111 84.6514828,22.4216296 C84.6997586,21.3142222 84.6273448,20.1105185 84.4101034,18.8105185" id="Fill-589" fill="#F5BF4D"></path>
                <path d="M62.9036897,32.0991667 C62.9036897,33.2547222 61.9623103,34.1936111 60.8036897,34.1936111 C59.645069,34.1936111 58.7278276,33.2547222 58.7278276,32.0991667 C58.7278276,30.9436111 59.645069,30.0287963 60.8036897,30.0287963 C61.9623103,30.0287963 62.9036897,30.9436111 62.9036897,32.0991667" id="Fill-591" fill="#8B513B"></path>
                <path d="M48.2758621,46.0864444 C48.2758621,46.4234815 48.1793103,46.7605185 48.0344828,47.0494074 C47.6965517,47.7234815 46.9965517,48.1808889 46.1758621,48.1808889 C45.7655172,48.1808889 45.3793103,48.0605185 45.0413793,47.8438519 C44.462069,47.4827407 44.0758621,46.8327407 44.0758621,46.0864444 C44.0758621,44.954963 45.0172414,44.0160741 46.1758621,44.0160741 C47.3344828,44.0160741 48.2758621,44.954963 48.2758621,46.0864444" id="Fill-593" fill="#8B513B"></path>
                <path d="M41.2278276,70.0875741 C41.2278276,71.0746111 40.4312759,71.8449815 39.4657586,71.8449815 C38.5002414,71.8449815 37.7036897,71.0746111 37.7036897,70.0875741 C37.7036897,69.1246111 38.5002414,68.3301667 39.4657586,68.3301667 C40.4312759,68.3301667 41.2278276,69.1246111 41.2278276,70.0875741" id="Fill-595" fill="#8B513B"></path>
                <path d="M30.6307931,96.2799259 C30.6307931,96.9780741 30.0514828,97.5341852 29.3514828,97.5341852 C28.6514828,97.5341852 28.0963103,96.9780741 28.0963103,96.2799259 C28.0963103,95.5817778 28.6514828,95.0064074 29.3514828,95.0064074 C30.0514828,95.0064074 30.6307931,95.5817778 30.6307931,96.2799259" id="Fill-597" fill="#8D4F3E"></path>
                <path d="M24.3546897,70.2322593 C24.3546897,71.4841111 23.3408966,72.4952222 22.0857241,72.4952222 C20.8305517,72.4952222 19.8167586,71.4841111 19.8167586,70.2322593 C19.8167586,68.9804074 20.8305517,67.9692963 22.0857241,67.9692963 C22.2788276,67.9692963 22.4477931,67.9933704 22.6167586,68.0415185 C23.3408966,68.210037 23.9443448,68.7396667 24.2098621,69.4137407 C24.3064138,69.6785556 24.3546897,69.9433704 24.3546897,70.2322593" id="Fill-599" fill="#8D4F3E"></path>
                <path d="M35.2652759,54.0068148 C35.2652759,54.7771852 34.6618276,55.379037 33.9135517,55.379037 C33.1652759,55.379037 32.5376897,54.7771852 32.5376897,54.0068148 C32.5376897,53.2605185 33.1652759,52.6586667 33.9135517,52.6586667 C34.6618276,52.6586667 35.2652759,53.2605185 35.2652759,54.0068148" id="Fill-601" fill="#8B513B"></path>
                <path d="M46.1519655,32.5329815 L46.1519655,32.5570556 C46.1519655,33.5922407 45.3312759,34.4107593 44.2933448,34.4107593 C43.6657586,34.4107593 43.1105862,34.1218704 42.7967931,33.6403889 C42.5554138,33.3515 42.4347241,32.9663148 42.4347241,32.5570556 C42.4347241,31.5218704 43.2554138,30.7033519 44.2933448,30.7033519 C45.3312759,30.7033519 46.1278276,31.4977963 46.1519655,32.5329815" id="Fill-603" fill="#8B513B"></path>
                <path d="M61.4797931,60.314463 C61.4797931,61.3496481 60.6349655,62.1681667 59.5970345,62.1681667 C58.728069,62.1681667 57.9797931,61.5663148 57.8108276,60.7477963 C57.7625517,60.6033519 57.7384138,60.4589074 57.7384138,60.314463 C57.7384138,59.4477963 58.3177241,58.7496481 59.1142759,58.5329815 C59.2591034,58.4848333 59.428069,58.4607593 59.5970345,58.4607593 C60.6349655,58.4607593 61.4797931,59.2792778 61.4797931,60.314463" id="Fill-605" fill="#8B513B"></path>
                <path d="M35.6034483,22.469537 C35.6034483,23.5047222 34.7586207,24.3473148 33.7448276,24.3473148 C32.7068966,24.3473148 31.862069,23.5047222 31.862069,22.469537 C31.862069,21.4584259 32.7068966,20.6158333 33.7448276,20.6158333 C34.7586207,20.6158333 35.6034483,21.4584259 35.6034483,22.469537" id="Fill-607" fill="#8B513B"></path>
                <path d="M33.7448276,38.0459444 C33.7448276,38.9366852 33.0448276,39.6589074 32.1517241,39.6589074 C31.7172414,39.6589074 31.3068966,39.4903889 31.0172414,39.1774259 C30.7034483,38.888537 30.5344828,38.4792778 30.5344828,38.0459444 C30.5344828,37.1552037 31.2586207,36.4570556 32.1517241,36.4570556 C32.9,36.4570556 33.5275862,36.9626111 33.6965517,37.6607593 C33.7206897,37.7811296 33.7448276,37.9015 33.7448276,38.0459444" id="Fill-609" fill="#8B513B"></path>
                <path d="M27.9271034,78.9237222 C27.9271034,79.0681667 27.8788276,79.2366852 27.7822759,79.3570556 L19.9133103,88.4546481 C19.6477931,88.7459444 19.2133103,88.7676111 18.9236552,88.5292778 C18.7546897,88.4089074 18.6822759,88.1922407 18.6822759,87.9996481 C18.6822759,87.8527963 18.7305517,87.6866852 18.8512414,87.5639074 L26.7202069,78.4422407 C26.9857241,78.1533519 27.4202069,78.1292778 27.7098621,78.3700185 C27.8546897,78.514463 27.9271034,78.7070556 27.9271034,78.9237222" id="Fill-611" fill="#8D4F3E"></path>
                <path d="M20.8071379,60.8436111 C20.8071379,61.0121296 20.7588621,61.1806481 20.6381724,61.3010185 L20.5416207,61.4213889 L12.7692069,70.4010185 C12.5278276,70.6899074 12.0692069,70.7139815 11.8036897,70.4732407 C11.6347241,70.3287963 11.5623103,70.1362037 11.5623103,69.9436111 C11.5623103,69.7750926 11.6105862,69.6306481 11.7312759,69.5102778 L18.4174828,61.7584259 L18.5140345,61.6621296 L19.6002414,60.3862037 C19.745069,60.2176852 19.9623103,60.145463 20.1554138,60.145463 C20.1795517,60.145463 20.2278276,60.145463 20.2519655,60.169537 C20.3726552,60.169537 20.4692069,60.2417593 20.5657586,60.3139815 C20.7347241,60.4584259 20.8071379,60.6510185 20.8071379,60.8436111" id="Fill-613" fill="#8D4F3E"></path>
                <path d="M44.2202069,90.550537 C44.2202069,90.6973889 44.171931,90.8635 44.0753793,90.9862778 L36.2064138,100.08387 C35.9408966,100.372759 35.5064138,100.396833 35.2167586,100.156093 C35.0477931,100.035722 34.9753793,99.8431296 34.9753793,99.650537 C34.9753793,99.4820185 35.0236552,99.3159074 35.1443448,99.1931296 L43.0133103,90.095537 C43.2788276,89.8042407 43.7133103,89.7560926 44.0029655,90.0209074 C44.1477931,90.1653519 44.2202069,90.3579444 44.2202069,90.550537" id="Fill-615" fill="#8D4F3E"></path>
                <path d="M62.445069,97.3401481 C62.445069,97.3882963 62.445069,97.4364444 62.420931,97.4845926 C62.420931,97.604963 62.3726552,97.7012593 62.2761034,97.7951481 L54.4071379,106.897556 C54.1657586,107.186444 53.7071379,107.234593 53.4416207,106.969778 C53.2726552,106.822926 53.2002414,106.632741 53.2002414,106.440148 C53.2002414,106.295704 53.2485172,106.127185 53.3692069,106.006815 L61.1657586,96.979037 L61.2381724,96.9068148 C61.4795517,96.6179259 61.9140345,96.5914444 62.2036897,96.8345926 C62.3726552,96.954963 62.445069,97.1475556 62.445069,97.3401481" id="Fill-617" fill="#8D4F3E"></path>
            </g>
        </g>
    </g>
</svg>