<?xml version="1.0" encoding="UTF-8"?>
<svg width="137px" height="131px" viewBox="0 0 137 131" version="1.1" xmlns="http://www.w3.org/2000/svg" xmlns:xlink="http://www.w3.org/1999/xlink">
    <!-- Generator: Sketch 61.1 (89650) - https://sketch.com -->
    <title>5</title>
    <desc>Created with Sketch.</desc>
    <g id="Page-1" stroke="none" stroke-width="1" fill="none" fill-rule="evenodd">
        <g id="Artboard" transform="translate(-431.000000, -439.000000)">
            <g id="5" transform="translate(430.000000, 438.000000)">
                <path d="M136.13025,65.9915887 C129.50525,103.382155 102.38025,131.387438 69.93025,131.387438 C38.05525,131.387438 11.33025,104.411023 4.08025,68.0493245 C11.85525,90.4585698 38.33025,106.945551 69.78025,106.945551 C102.18025,106.945551 129.30525,89.4547962 136.13025,65.9915887" id="Fill-389" fill="#FFFFFF"></path>
                <path d="M123.2055,44.2593887 C123.178,44.359766 123.0305,44.6107094 122.8055,45.0122189 C122.6055,44.8616528 122.4055,44.7110868 122.2055,44.5856151 C122.853,44.4099547 123.1305,44.284483 123.2055,44.2593887" id="Fill-391" fill="#FFFFFF"></path>
                <path d="M94.629,59.6419679 L94.5565,59.6419679 C94.529,59.6168736 94.529,59.5917792 94.5565,59.5415906 C94.579,59.5666849 94.604,59.5917792 94.629,59.6419679" id="Fill-393" fill="#FFFFFF"></path>
                <path d="M33.05425,25.8147981 C33.57925,24.7106472 34.77925,24.2087604 35.75425,24.6855528 C37.52925,25.513666 38.22925,28.2991377 38.22925,28.2991377 C35.77925,29.4785717 33.95425,28.7257415 33.95425,28.7257415 C32.98175,28.2740434 32.52925,26.9189491 33.05425,25.8147981" id="Fill-395" fill="#FFFFFF"></path>
                <path d="M37.356,24.1583208 C37.356,23.0792642 38.3785,22.0754906 39.6035,22.0754906 C40.806,22.0754906 41.781,22.9537925 41.781,24.0328491 C41.781,26.0153019 39.6035,27.8471887 39.6035,27.8471887 C37.456,26.1407736 37.356,24.1583208 37.356,24.1583208" id="Fill-397" fill="#FFFFFF"></path>
                <path d="M43.40575,31.1353 C44.03075,32.0136019 43.80325,33.4188849 42.83075,34.1466208 C41.85575,34.8492623 40.53075,34.7237906 39.90575,33.8454887 C38.75575,32.2645453 39.42825,29.4790736 39.42825,29.4790736 C42.15575,29.6045453 43.40575,31.1353 43.40575,31.1353" id="Fill-399" fill="#FFFFFF"></path>
                <path d="M40.40525,28.4996415 C41.50275,25.9902075 43.37775,25.3628491 43.37775,25.3628491 C44.40525,25.0868113 45.63025,25.8145472 45.95525,26.9939811 C46.28025,28.1483208 45.67775,29.3277547 44.62775,29.6288868 C42.75275,30.1307736 40.40525,28.4996415 40.40525,28.4996415" id="Fill-401" fill="#FFFFFF"></path>
                <path d="M21.3305,32.540583 C20.053,32.9671868 18.8555,33.4941679 17.7305,34.1717151 C18.678,32.4653 19.7805,30.8341679 21.0055,29.2532245 C21.0055,30.3824698 21.1055,31.4615264 21.3305,32.540583" id="Fill-403" fill="#FFFFFF"></path>
                <path d="M37.954,33.5185094 C37.804,33.6941698 37.629,33.8698302 37.404,33.9702075 C36.354,33.3930377 35.229,32.8911509 34.054,32.5147358 C33.9315,31.937566 34.0315,31.3603962 34.379,30.8836038 C35.5815,29.3277547 38.429,29.2273774 38.429,29.2273774 C39.079,31.8873774 37.954,33.5185094 37.954,33.5185094" id="Fill-405" fill="#FFFFFF"></path>
                <path d="M26.255,51.1101434 C23.13,52.6408981 20.78,51.6622189 20.78,51.6622189 C19.53,51.0599547 18.955,49.3284453 19.605,47.9231623 C20.28,46.5178792 21.83,45.8654264 23.08,46.4676906 C25.355,47.5467472 26.255,51.1101434 26.255,51.1101434" id="Fill-407" fill="#FFFFFF"></path>
                <path d="M25.90575,57.7857396 C25.05325,58.8898906 23.23075,59.0906453 22.00325,58.1370604 C20.77825,57.1834755 20.48075,55.5272491 21.33075,54.4230981 C22.88075,52.4406453 26.50325,52.3151736 26.50325,52.3151736 C27.32825,55.7029094 25.90575,57.7857396 25.90575,57.7857396" id="Fill-409" fill="#FFFFFF"></path>
                <path d="M32.129,58.5882566 C30.879,59.5167472 29.204,59.3410868 28.379,58.2118415 C26.904,56.1792 27.8065,52.6158038 27.8065,52.6158038 C31.279,52.7914642 32.8815,54.7488226 32.8815,54.7488226 C33.7065,55.8780679 33.379,57.6848604 32.129,58.5882566" id="Fill-411" fill="#FFFFFF"></path>
                <path d="M34.4555,52.8170604 C32.028,53.4695132 29.0555,51.3615887 29.0555,51.3615887 C30.4305,48.1495132 32.8305,47.3715887 32.8305,47.3715887 C34.1805,46.9951736 35.7305,47.9236642 36.1555,49.4293245 C36.5555,50.9349849 35.8055,52.4406453 34.4555,52.8170604" id="Fill-413" fill="#FFFFFF"></path>
                <path d="M87.854,10.0304585 C80.554,13.1923453 71.7315,21.0970623 67.729,25.2627226 C67.029,25.9904585 66.379,26.843666 65.754,27.7470623 C62.529,27.4961189 59.279,27.7972509 57.554,28.0231 C57.104,20.6453642 52.2815,14.4219679 45.654,11.987817 C53.029,9.30272264 61.254,7.79706226 69.929,7.79706226 C76.179,7.79706226 82.204,8.57498679 87.854,10.0304585" id="Fill-415" fill="#FFFFFF"></path>
                <path d="M33.67925,78.4627226 C33.67925,79.0147981 33.20675,79.4915906 32.65425,79.4915906 C32.07925,79.4915906 31.63175,79.0147981 31.63175,78.4627226 C31.63175,77.8855528 32.07925,77.4338547 32.65425,77.4338547 C33.20675,77.4338547 33.67925,77.8855528 33.67925,78.4627226" id="Fill-417" fill="#FFFFFF"></path>
                <path d="M45.42975,82.5528491 C45.42975,84.1086981 44.15475,85.3885094 42.60475,85.3885094 C41.05475,85.3885094 39.77975,84.1086981 39.77975,82.5528491 C39.77975,80.997 41.05475,79.7171887 42.60475,79.7171887 C44.15475,79.7171887 45.42975,80.997 45.42975,82.5528491" id="Fill-419" fill="#FFE063"></path>
                <path d="M47.15575,72.3153623 C47.15575,73.9715887 45.83075,75.3015887 44.18075,75.3015887 C42.52825,75.3015887 41.20575,73.9715887 41.20575,72.3153623 C41.20575,70.6591358 42.52825,69.3291358 44.18075,69.3291358 C45.83075,69.3291358 47.15575,70.6591358 47.15575,72.3153623" id="Fill-421" fill="#EBBE1B"></path>
                <path d="M56.3305,82.2025321 C56.3305,83.381966 55.353,84.3606453 54.1805,84.3606453 C52.9805,84.3606453 52.0055,83.381966 52.0055,82.2025321 C52.0055,80.9980038 52.9805,80.0444189 54.1805,80.0444189 C55.353,80.0444189 56.3305,80.9980038 56.3305,82.2025321" id="Fill-423" fill="#FFE063"></path>
                <path d="M67.456,89.0776283 C67.456,90.7338547 66.131,92.0638547 64.481,92.0638547 C62.8285,92.0638547 61.5035,90.7338547 61.5035,89.0776283 C61.5035,87.4214019 62.8285,86.0914019 64.481,86.0914019 C66.131,86.0914019 67.456,87.4214019 67.456,89.0776283" id="Fill-425" fill="#EBBE1B"></path>
                <path d="M78.379,89.127817 C77.854,89.6798925 77.129,89.9810245 76.3315,89.9810245 C74.6815,89.9810245 73.354,88.6510245 73.354,86.9947981 C73.354,85.4891377 74.4565,84.2344208 75.9065,84.033666 C75.979,84.3849868 76.054,84.7614019 76.179,85.1127226 C76.6565,86.618383 77.404,87.948383 78.379,89.127817" id="Fill-427" fill="#FFE063"></path>
                <path d="M85.67875,57.6349226 C85.58125,57.584734 85.45375,57.5596396 85.35375,57.5094509 C85.42875,57.5094509 85.48125,57.4843566 85.55375,57.4843566 C85.58125,57.5345453 85.62875,57.584734 85.67875,57.6349226" id="Fill-429" fill="#FFFFFF"></path>
                <path d="M113.33,23.3558038 C106.955,23.4059925 100.205,23.1801434 95.28,25.0371245 C94.68,25.2629736 94.105,25.5390113 93.53,25.8401434 C95.0525,23.1801434 96.705,20.3946717 98.2775,18.7133509 C99.4275,17.458634 100.255,16.128634 100.805,14.873917 C105.505,17.1825962 109.73,20.0684453 113.33,23.3558038" id="Fill-431" fill="#FFFFFF"></path>
                <path d="M137.8295,54.3719057 C137.8295,58.3619057 137.257,62.2515283 136.1295,65.9905849 C137.0295,61.0720943 137.5545,55.9779434 137.6545,50.7583208 C137.7795,51.9628491 137.8295,53.1673774 137.8295,54.3719057" id="Fill-433" fill="#FFFFFF"></path>
                <path d="M136.13025,65.9915887 C129.50525,103.382155 102.38025,131.387438 69.93025,131.387438 C38.05525,131.387438 11.33025,104.411023 4.08025,68.0493245 C11.85525,90.4585698 38.33025,106.945551 69.78025,106.945551 C102.18025,106.945551 129.30525,89.4547962 136.13025,65.9915887" id="Fill-435" fill="#B6D3FF"></path>
                <path d="M137.65375,50.7585717 C137.55375,55.9781943 137.02875,61.0723453 136.13125,65.9908358 C129.30375,89.4540434 102.18125,106.944798 69.78125,106.944798 C38.33125,106.944798 11.85625,90.457817 4.07875,68.0485717 C2.52875,63.6821566 1.73125,59.1149868 1.73125,54.3721566 C1.73125,52.4398925 1.85625,50.5076283 2.12875,48.6255528 C5.85375,22.3015906 34.72875,1.79951509 69.78125,1.79951509 C81.67875,1.79951509 92.82875,4.15838302 102.58125,8.3240434 L102.60375,8.3240434 C110.87875,11.8372509 118.10625,16.6553642 123.83125,22.4521566 C120.77875,23.1798925 117.12875,23.3053642 113.33125,23.3555528 C109.72875,20.0681943 105.50625,17.1823453 100.80625,14.873666 C101.53125,13.2927226 101.77875,11.8623453 101.67875,10.9840434 C101.45625,9.42819434 100.50625,9.35291132 100.50625,9.35291132 C100.50625,9.35291132 100.48125,9.32781698 100.45375,9.30272264 C100.15375,9.00159057 98.17875,7.32026981 91.20625,8.87611887 C90.15375,9.10196792 89.03125,9.50347736 87.85375,10.0304585 C82.20375,8.57498679 76.17875,7.79706226 69.92875,7.79706226 C61.25375,7.79706226 53.02875,9.30272264 45.65375,11.987817 C43.67875,11.2349868 41.55625,10.8334774 39.30375,10.8334774 C29.20375,10.8334774 21.00625,19.0895151 21.00625,29.2276283 L21.00625,29.2527226 C19.78125,30.833666 18.67875,32.4647981 17.72875,34.1712132 C11.67875,37.6342321 7.60375,44.1838547 7.60375,51.6870623 C7.60375,57.8351755 10.35375,63.3559302 14.68125,67.0447981 C15.40625,67.6972509 16.20625,68.2744208 17.02875,68.7763075 C25.48125,85.0123453 45.97875,96.4553642 69.92875,96.4553642 C76.25375,96.4553642 82.32875,95.6523453 88.00625,94.1717792 C90.58125,94.5231 93.37875,94.2972509 96.13125,93.4189491 C96.97875,93.1429113 97.80625,92.8417792 98.57875,92.4653642 C99.37875,92.0889491 100.15375,91.6372509 100.87875,91.1604585 C102.42875,91.4364962 104.90375,91.6623453 107.35625,91.1353642 C111.43125,90.2570623 125.77875,79.6421566 127.65375,73.4187604 C128.57875,70.4074396 128.57875,67.7474396 127.90625,65.2380057 C127.52875,63.6068736 126.85625,62.0510245 125.97875,60.5453642 C126.65625,57.8100811 127.00375,54.9995151 127.00375,52.113666 C127.00375,51.3859302 126.97875,50.6581943 126.92875,49.9304585 C126.60375,44.6355528 125.08125,39.5664962 122.55375,34.8989491 C124.82875,31.862534 126.27875,28.7508358 127.20375,26.1661189 C133.12875,33.3681943 136.87875,41.7497038 137.65375,50.7585717" id="Fill-437" fill="#E4EEF6"></path>
                <path d="M105.481,86.7947962 C104.3035,88.476117 102.7285,89.956683 100.8785,91.1612113 C100.1535,91.6380038 99.381,92.0897019 98.5785,92.466117 C97.806,92.8425321 96.981,93.1436642 96.131,93.4197019 C93.3785,94.2980038 90.581,94.5238528 88.006,94.1725321 C84.1035,93.6706453 80.631,91.8889472 78.3785,89.1285698 C77.406,87.9491358 76.656,86.6191358 76.1785,85.1134755 C76.0535,84.7621547 75.9785,84.3857396 75.906,84.0344189 L76.0535,84.0344189 C76.0535,84.0595132 76.0785,84.0846075 76.106,84.1097019 C76.631,85.6404566 77.706,86.9202679 79.156,87.8989472 C82.806,90.3832868 88.831,90.9604566 94.956,89.0281925 L94.981,89.0281925 C96.231,88.626683 97.406,88.1498906 98.506,87.5978151 C104.331,84.711966 108.0535,79.9189472 107.781,75.5274377 C108.8785,79.391966 107.9285,83.4321547 105.481,86.7947962" id="Fill-439" fill="#D83227"></path>
                <path d="M21.3305,32.540583 C20.053,32.9671868 18.8555,33.4941679 17.7305,34.1717151 C18.678,32.4653 19.7805,30.8341679 21.0055,29.2532245 C21.0055,30.3824698 21.1055,31.4615264 21.3305,32.540583" id="Fill-441" fill="#FFFFFF"></path>
                <path d="M85.354,57.5086981 C84.704,57.6090755 84.054,57.7596415 83.4065,57.9603962 C77.529,59.8424717 73.879,65.5639811 74.279,71.611717 C71.6565,71.611717 67.3815,71.1851132 64.1565,68.7007736 C59.1565,64.8362453 55.304,64.2088868 50.754,65.0119057 C48.0065,65.4886981 44.8565,65.2628491 42.804,65.0119057 C45.929,61.4485094 47.829,56.7809623 47.829,51.6868113 C47.829,49.6792642 47.529,47.747 46.979,45.9151132 C49.8815,44.5851132 52.3815,42.502283 54.2315,39.8924717 C54.9815,40.2186981 55.879,40.7958679 56.504,41.7243585 C57.729,43.5562453 56.2315,45.5386981 56.979,47.7971887 C57.104,48.1485094 57.304,48.4747358 57.604,48.7758679 C59.004,50.331717 62.079,51.0594528 62.079,51.0594528 C62.079,51.0594528 63.979,50.6579434 67.604,50.8586981 C68.6315,50.9088868 69.479,51.0343585 70.229,51.2351132 C71.604,51.5613396 72.704,52.0632264 74.0315,52.7407736 C74.5565,52.991717 75.104,53.2928491 75.754,53.5939811 C77.6815,54.5224717 82.1565,56.2790755 85.354,57.5086981" id="Fill-443" fill="#409D4D"></path>
                <path d="M57.6295,29.2273774 C57.6295,33.192283 56.3795,36.8811509 54.232,39.8924717 C52.3795,42.502283 49.8795,44.5851132 46.9795,45.9151132 C46.6545,44.7356792 46.207,43.6315283 45.6545,42.5524717 C50.6295,40.1936038 54.0545,35.1245472 54.0545,29.2273774 C54.0545,21.2473774 47.7295,14.7479434 39.8295,14.4719057 C39.657,14.4468113 39.4795,14.4468113 39.3045,14.4468113 C32.882,14.4468113 27.4045,18.5873774 25.4045,24.3841698 C24.857,25.8898302 24.5795,27.5209623 24.5795,29.2273774 C24.5795,30.0554906 24.657,30.8836038 24.8045,31.6866226 C23.607,31.862283 22.457,32.1634151 21.3295,32.5398302 C21.107,31.4607736 21.007,30.381717 21.007,29.2524717 L21.007,29.2273774 C21.007,19.0892642 29.2045,10.8332264 39.3045,10.8332264 C41.5545,10.8332264 43.6795,11.2347358 45.6545,11.987566 C52.2795,14.421717 57.1045,20.6451132 57.5545,28.0228491 C57.6045,28.4243585 57.6295,28.8258679 57.6295,29.2273774" id="Fill-445" fill="#2C7E45"></path>
                <path d="M44.629,29.6293887 C42.754,30.1312755 40.4065,28.5001434 40.4065,28.5001434 C41.504,25.9907094 43.379,25.3633509 43.379,25.3633509 C44.404,25.0873132 45.629,25.8150491 45.954,26.994483 C46.279,28.1488226 45.679,29.3282566 44.629,29.6293887 M42.829,34.1463698 C41.8565,34.8490113 40.529,34.7235396 39.904,33.8452377 C38.754,32.2642943 39.429,29.4788226 39.429,29.4788226 C42.1565,29.6042943 43.4065,31.1350491 43.4065,31.1350491 C44.0315,32.0133509 43.804,33.418634 42.829,34.1463698 M37.3565,24.1588226 C37.3565,23.079766 38.379,22.0759925 39.604,22.0759925 C40.8065,22.0759925 41.779,22.9542943 41.779,24.0333509 C41.779,26.0158038 39.604,27.8476906 39.604,27.8476906 C37.4565,26.1412755 37.3565,24.1588226 37.3565,24.1588226 M33.954,28.7259925 C32.9815,28.2742943 32.529,26.9192 33.054,25.8150491 C33.579,24.7108981 34.7815,24.2090113 35.754,24.6858038 C37.529,25.513917 38.229,28.2993887 38.229,28.2993887 C35.779,29.4788226 33.954,28.7259925 33.954,28.7259925 M39.829,14.4724075 C39.6565,14.4473132 39.479,14.4473132 39.304,14.4473132 C32.8815,14.4473132 27.404,18.5878792 25.4065,24.3846717 C24.8565,25.8903321 24.579,27.5214642 24.579,29.2278792 C24.579,30.0559925 24.6565,30.8841057 24.804,31.6871245 C25.754,31.5616528 26.7315,31.4863698 27.729,31.4863698 C29.929,31.4863698 32.079,31.8376906 34.0565,32.5152377 C33.9315,31.9380679 34.0315,31.3608981 34.379,30.8841057 C35.5815,29.3282566 38.4315,29.2278792 38.4315,29.2278792 C39.079,31.8878792 37.954,33.5190113 37.954,33.5190113 C37.8065,33.6946717 37.629,33.8703321 37.404,33.9707094 C40.9315,35.9280679 43.8315,38.9393887 45.654,42.5529736 C50.629,40.1941057 54.0565,35.1250491 54.0565,29.2278792 C54.0565,21.2478792 47.729,14.7484453 39.829,14.4724075" id="Fill-447" fill="#DBEFC0"></path>
                <path d="M38.13,64.1095132 C35.33,66.4934755 31.68,67.9238528 27.73,67.9238528 C23.18,67.9238528 19.055,66.0417774 16.13,62.9802679 C15.155,62.0015887 14.33,60.9225321 13.68,59.7180038 L13.68,59.6929094 C12.305,57.3340415 11.555,54.5987585 11.555,51.6878151 C11.555,48.5510226 12.43,45.6400792 13.98,43.180834 L13.98,43.1557396 C15.905,39.9938528 18.905,37.5597019 22.455,36.3551736 C23.58,35.9285698 24.78,35.6776264 26.005,35.5521547 L26.005,35.5270604 C26.555,35.4768717 27.155,35.4517774 27.73,35.4517774 C33.78,35.4517774 39.08,38.8144189 41.83,43.7830981 C42.43,44.8370604 42.905,45.9914 43.23,47.1959283 C43.655,48.6263057 43.88,50.131966 43.88,51.6878151 C43.88,56.6564943 41.655,61.1232868 38.13,64.1095132 M46.98,45.916117 C46.655,44.736683 46.205,43.6325321 45.655,42.5534755 C43.83,38.9398906 40.93,35.9285698 37.405,33.9712113 C36.355,33.3940415 35.23,32.8921547 34.055,32.5157396 C32.08,31.8381925 29.93,31.4868717 27.73,31.4868717 C26.73,31.4868717 25.755,31.5621547 24.805,31.6876264 C23.605,31.8632868 22.455,32.1644189 21.33,32.540834 C20.055,32.9674377 18.855,33.4944189 17.73,34.171966 C11.68,37.6349849 7.605,44.1846075 7.605,51.6878151 C7.605,57.8359283 10.355,63.356683 14.68,67.0455509 C15.405,67.6980038 16.205,68.2751736 17.03,68.7770604 C20.13,70.7595132 23.805,71.8887585 27.73,71.8887585 C33.755,71.8887585 39.155,69.2287585 42.805,65.0129094 C45.93,61.4495132 47.83,56.781966 47.83,51.6878151 C47.83,49.6802679 47.53,47.7480038 46.98,45.916117" id="Fill-449" fill="#2C7E45"></path>
                <path d="M34.4555,52.8170604 C32.028,53.4695132 29.0555,51.3615887 29.0555,51.3615887 C30.4305,48.1495132 32.8305,47.3715887 32.8305,47.3715887 C34.1805,46.9951736 35.7305,47.9236642 36.1555,49.4293245 C36.5555,50.9349849 35.8055,52.4406453 34.4555,52.8170604 M32.128,58.5887585 C30.878,59.5172491 29.203,59.3415887 28.378,58.2123434 C26.903,56.1797019 27.8055,52.6163057 27.8055,52.6163057 C31.278,52.791966 32.8805,54.7493245 32.8805,54.7493245 C33.7055,55.8785698 33.378,57.6853623 32.128,58.5887585 M25.1305,45.7906453 C25.1305,44.586117 26.1555,43.4568717 27.428,43.180834 C27.6305,43.1557396 27.8055,43.1306453 28.0055,43.1306453 C29.4805,43.1306453 30.7055,44.1595132 30.778,45.4895132 C30.8055,45.5397019 30.8055,45.6149849 30.8055,45.6651736 C30.8055,48.1746075 28.0055,50.5334755 28.0055,50.5334755 C25.2805,48.3251736 25.1305,45.7906453 25.1305,45.7906453 M25.9055,57.7857396 C25.053,58.8898906 23.2305,59.0906453 22.0055,58.1370604 C20.778,57.1834755 20.4805,55.5272491 21.3305,54.4230981 C22.8805,52.4406453 26.503,52.3151736 26.503,52.3151736 C27.328,55.7029094 25.9055,57.7857396 25.9055,57.7857396 M19.6055,47.9236642 C20.2805,46.5183811 21.8305,45.8659283 23.0805,46.4681925 C25.353,47.5472491 26.2555,51.1106453 26.2555,51.1106453 C23.1305,52.6414 20.778,51.6627208 20.778,51.6627208 C19.528,51.0604566 18.9555,49.3289472 19.6055,47.9236642 M43.2305,47.1959283 C42.9055,45.9914 42.428,44.8370604 41.8305,43.7830981 C39.0805,38.8144189 33.778,35.4517774 27.7305,35.4517774 C27.1555,35.4517774 26.5555,35.4768717 26.0055,35.5270604 L26.0055,35.5521547 C24.7805,35.6776264 23.578,35.9285698 22.4555,36.3551736 C18.903,37.5597019 15.9055,39.9938528 13.9805,43.1557396 L13.9805,43.180834 C12.428,45.6400792 11.5555,48.5510226 11.5555,51.6878151 C11.5555,54.5987585 12.3055,57.3340415 13.678,59.6929094 L13.678,59.7180038 C14.3305,60.9225321 15.153,62.0015887 16.1305,62.9802679 C19.0555,66.0417774 23.178,67.9238528 27.7305,67.9238528 C31.6805,67.9238528 35.3305,66.4934755 38.1305,64.1095132 C41.6555,61.1232868 43.8805,56.6564943 43.8805,51.6878151 C43.8805,50.131966 43.6555,48.6263057 43.2305,47.1959283" id="Fill-451" fill="#DBEFC0"></path>
                <path d="M30.80575,45.6649226 C30.80575,48.1743566 28.00575,50.5332245 28.00575,50.5332245 C25.28075,48.3249226 25.12825,45.7903943 25.12825,45.7903943 C25.12825,44.585866 26.15575,43.4566208 27.42825,43.180583 C27.62825,43.1554887 27.80575,43.1303943 28.00575,43.1303943 C29.48075,43.1303943 30.70575,44.1592623 30.77825,45.4892623 C30.80575,45.5394509 30.80575,45.614734 30.80575,45.6649226" id="Fill-453" fill="#FFFFFF"></path>
                <path d="M34.4555,52.8170604 C32.028,53.4695132 29.0555,51.3615887 29.0555,51.3615887 C30.4305,48.1495132 32.8305,47.3715887 32.8305,47.3715887 C34.1805,46.9951736 35.7305,47.9236642 36.1555,49.4293245 C36.5555,50.9349849 35.8055,52.4406453 34.4555,52.8170604" id="Fill-455" fill="#FFFFFF"></path>
                <path d="M32.129,58.5882566 C30.879,59.5167472 29.204,59.3410868 28.379,58.2118415 C26.904,56.1792 27.8065,52.6158038 27.8065,52.6158038 C31.279,52.7914642 32.8815,54.7488226 32.8815,54.7488226 C33.7065,55.8780679 33.379,57.6848604 32.129,58.5882566" id="Fill-457" fill="#FFFFFF"></path>
                <path d="M25.90575,57.7857396 C25.05325,58.8898906 23.23075,59.0906453 22.00325,58.1370604 C20.77825,57.1834755 20.48075,55.5272491 21.33075,54.4230981 C22.88075,52.4406453 26.50325,52.3151736 26.50325,52.3151736 C27.32825,55.7029094 25.90575,57.7857396 25.90575,57.7857396" id="Fill-459" fill="#FFFFFF"></path>
                <path d="M26.255,51.1101434 C23.13,52.6408981 20.78,51.6622189 20.78,51.6622189 C19.53,51.0599547 18.955,49.3284453 19.605,47.9231623 C20.28,46.5178792 21.83,45.8654264 23.08,46.4676906 C25.355,47.5467472 26.255,51.1101434 26.255,51.1101434" id="Fill-461" fill="#FFFFFF"></path>
                <path d="M96.92875,67.4460566 C96.70375,67.4460566 96.50375,67.4209623 96.27875,67.4209623 C93.83125,67.3707736 91.17875,67.7220943 88.50625,68.5753019 C84.75625,69.7547358 81.57875,71.7120943 79.33125,73.9956792 C78.02875,75.3005849 77.02875,76.7309623 76.40375,78.186434 C76.33125,78.0860566 76.25375,77.9856792 76.20625,77.8602075 C75.65375,76.9568113 75.20625,75.9781321 74.88125,74.9241698 C74.55625,73.8200189 74.33125,72.7158679 74.27875,71.611717 C73.87875,65.5639811 77.52875,59.8424717 83.40625,57.9603962 C84.05625,57.7596415 84.70375,57.6090755 85.35375,57.5086981 C85.45375,57.5588868 85.58125,57.5839811 85.67875,57.6341698 C85.62875,57.5839811 85.58125,57.5337925 85.55375,57.4836038 C85.67875,57.4585094 85.77875,57.4585094 85.90625,57.4334151 C88.97875,57.0820943 92.02875,57.8851132 94.55625,59.5413396 C94.52875,59.5915283 94.52875,59.6166226 94.55625,59.641717 C94.68125,61.9503962 95.25375,64.1336038 96.23125,66.1160566 C96.27875,66.291717 96.37875,66.4673774 96.47875,66.6430377 C96.60375,66.9190755 96.75625,67.1951132 96.92875,67.4460566" id="Fill-463" fill="#BC202D"></path>
                <path d="M127.0045,52.113666 C127.0045,54.9995151 126.6545,57.8100811 125.9795,60.5453642 C125.4295,59.5666849 124.8045,58.5880057 124.132,57.6093264 C122.157,54.7987604 119.8795,52.3395151 118.3295,50.8087604 C120.6545,48.4749868 122.1295,46.1914019 122.8045,45.0119679 C123.0295,44.6104585 123.1795,44.3595151 123.2045,44.2591377 C123.1295,44.2842321 122.8545,44.4097038 122.2045,44.5853642 C121.107,44.8614019 118.9545,45.2629113 115.0545,45.463666 C111.5795,45.6393264 109.2045,45.4134774 107.782,45.1374396 C110.807,44.2842321 113.3795,43.0546094 115.6045,41.5489491 C118.507,39.6417792 120.807,37.3080057 122.5545,34.8989491 C125.0795,39.5664962 126.6045,44.6355528 126.9295,49.9304585 C126.9795,50.6581943 127.0045,51.3859302 127.0045,52.113666" id="Fill-465" fill="#FFFCFE"></path>
                <path d="M93.27875,83.2060547 C93.00625,84.2349226 92.50375,85.1885075 91.80375,85.9664321 C90.60625,87.3968094 88.77875,88.3002057 86.75625,88.3002057 C83.20625,88.3002057 80.28125,85.514734 80.02875,82.0015264 C80.00375,81.8509604 80.00375,81.7003943 80.00375,81.524734 C80.00375,79.6175642 80.80625,77.8609604 82.08125,76.6313377 C83.30625,75.4519038 84.92875,74.7492623 86.75625,74.7492623 C90.45375,74.7492623 93.47875,77.7856774 93.47875,81.524734 C93.47875,82.1019038 93.40625,82.6790736 93.27875,83.2060547 M107.75375,75.4017151 C107.75375,74.8496396 107.65375,74.3226585 107.48125,73.7956774 C106.87875,71.9386962 105.58125,70.4330358 103.75375,69.3790736 C103.73125,69.3539792 103.70625,69.3288849 103.67875,69.3288849 L103.65375,69.3037906 C102.70625,68.7266208 101.57875,68.300017 100.38125,67.9737906 C99.30375,67.6977528 98.12875,67.5220925 96.92875,67.4468094 C96.70375,67.4468094 96.50375,67.4217151 96.27875,67.4217151 C93.83125,67.3715264 91.17875,67.7228472 88.50625,68.5760547 C84.75625,69.7554887 81.57875,71.7128472 79.33125,73.9964321 C78.02875,75.3013377 77.02875,76.7317151 76.40375,78.1871868 C75.87875,79.4419038 75.60625,80.6966208 75.67875,81.9262434 C75.67875,82.2022811 75.70625,82.4783189 75.72875,82.7292623 C75.77875,83.1056774 75.87875,83.4569981 75.97875,83.8083189 C76.00625,83.8836019 76.03125,83.9588849 76.05375,84.0341679 C76.05375,84.0592623 76.07875,84.0843566 76.10625,84.1094509 C76.63125,85.6402057 77.70625,86.920017 79.15625,87.8986962 C82.80625,90.3830358 88.83125,90.9602057 94.95625,89.0279415 L94.98125,89.0279415 C96.23125,88.6264321 97.40375,88.1496396 98.50625,87.5975642 C104.33125,84.7117151 108.05375,79.9186962 107.78125,75.5271868 L107.78125,75.4519038 C107.78125,75.4268094 107.78125,75.4268094 107.75375,75.4017151" id="Fill-467" fill="#FF714D"></path>
                <path d="M93.479,81.524734 C93.479,82.1019038 93.4065,82.6790736 93.279,83.2060547 C93.0065,84.2349226 92.504,85.1885075 91.804,85.9664321 C90.6065,87.3968094 88.779,88.3002057 86.7565,88.3002057 C83.2065,88.3002057 80.2815,85.514734 80.029,82.0015264 C80.004,81.8509604 80.004,81.7003943 80.004,81.524734 C80.004,79.6175642 80.8065,77.8609604 82.079,76.6313377 C83.3065,75.4519038 84.929,74.7492623 86.7565,74.7492623 C90.454,74.7492623 93.479,77.7856774 93.479,81.524734" id="Fill-469" fill="#FBC2A7"></path>
                <path d="M122.65375,72.2651736 C121.65625,73.0681925 120.55375,73.7457396 119.37875,74.2978151 C117.12875,75.401966 114.58125,76.0293245 111.87875,76.0293245 C110.45375,76.0293245 109.07875,75.8536642 107.78125,75.5274377 L107.78125,75.4521547 C107.78125,75.4270604 107.78125,75.4270604 107.75375,75.401966 C107.75375,74.8498906 107.65375,74.3229094 107.48125,73.7959283 C106.87875,71.9389472 105.58125,70.4332868 103.75375,69.3793245 C103.73125,69.3542302 103.70625,69.3291358 103.67875,69.3291358 L103.65375,69.3040415 C102.70625,68.7268717 101.57875,68.3002679 100.38125,67.9740415 C99.30375,67.6980038 98.12875,67.5223434 96.92875,67.4470604 C96.75625,67.196117 96.60375,66.9200792 96.47875,66.6440415 C96.37875,66.4683811 96.27875,66.2927208 96.23125,66.1170604 C95.25375,64.1346075 94.68125,61.9514 94.55625,59.6427208 L94.62875,59.6427208 C94.60375,59.5925321 94.58125,59.5674377 94.55625,59.5423434 C94.50375,59.2412113 94.50375,58.9149849 94.50375,58.5887585 C94.50375,55.2512113 95.45375,52.1144189 97.08125,49.4544189 L101.37875,53.2938528 L106.27875,57.6351736 L121.45625,71.186117 L122.65375,72.2651736 Z" id="Fill-471" fill="#DA4A37"></path>
                <path d="M127.65375,73.4195132 C125.77875,79.6429094 111.43125,90.2578151 107.35625,91.136117 C104.90375,91.6630981 102.42875,91.4372491 100.87875,91.1612113 C102.72875,89.956683 104.30375,88.476117 105.48125,86.7947962 C107.92875,83.4321547 108.87875,79.391966 107.78125,75.5274377 C109.07875,75.8536642 110.45375,76.0293245 111.87875,76.0293245 C114.58125,76.0293245 117.12875,75.401966 119.37875,74.2978151 C120.55375,73.7457396 121.65625,73.0681925 122.65375,72.2651736 L121.45625,71.186117 L106.27875,57.6351736 C108.08125,57.1332868 109.82875,56.5310226 111.40375,55.7781925 C114.23125,54.4481925 116.53125,52.6163057 118.33125,50.8095132 C119.88125,52.3402679 122.15625,54.7995132 124.13125,57.6100792 C124.80375,58.5887585 125.42875,59.5674377 125.97875,60.546117 C126.85625,62.0517774 127.52875,63.6076264 127.90625,65.2387585 C128.57875,67.7481925 128.57875,70.4081925 127.65375,73.4195132" id="Fill-473" fill="#409D4D"></path>
                <path d="M128.755,20.2947962 C128.755,20.2947962 128.43,22.7540415 127.205,26.1668717 C126.28,28.7515887 124.83,31.8632868 122.555,34.8997019 C120.805,37.3087585 118.505,39.6425321 115.605,41.5497019 C113.38,43.0553623 110.805,44.2849849 107.78,45.1381925 L107.755,45.1381925 C107.33,45.2636642 106.93,45.3891358 106.505,45.4895132 C106.505,45.4895132 103.83,46.1921547 99.355,46.4932868 C94.755,46.8195132 88.23,46.7442302 80.855,45.0127208 L80.855,44.1595132 C80.855,44.1595132 81.705,41.3991358 83.405,37.936117 C84.28,36.2046075 85.33,34.2974377 86.63,32.4906453 C88.48,29.8557396 90.78,27.3964943 93.505,25.8657396 L93.53,25.8406453 C94.105,25.5395132 94.68,25.2634755 95.28,25.0376264 C100.205,23.1806453 106.955,23.4064943 113.33,23.3563057 C117.13,23.306117 120.78,23.1806453 123.83,22.4529094 C125.73,22.0012113 127.405,21.2985698 128.755,20.2947962" id="Fill-475" fill="#389D4D"></path>
                <path d="M64.48,92.0636038 C62.83,92.0636038 61.505,90.7336038 61.505,89.0773774 C61.505,87.4211509 62.83,86.0911509 64.48,86.0911509 C66.13,86.0911509 67.455,87.4211509 67.455,89.0773774 C67.455,90.7336038 66.13,92.0636038 64.48,92.0636038 M54.18,84.3596415 C52.98,84.3596415 52.005,83.3809623 52.005,82.2015283 C52.005,80.997 52.98,80.0434151 54.18,80.0434151 C55.355,80.0434151 56.33,80.997 56.33,82.2015283 C56.33,83.3809623 55.355,84.3596415 54.18,84.3596415 M44.18,75.3005849 C42.53,75.3005849 41.205,73.9705849 41.205,72.3143585 C41.205,70.6581321 42.53,69.3281321 44.18,69.3281321 C45.83,69.3281321 47.155,70.6581321 47.155,72.3143585 C47.155,73.9705849 45.83,75.3005849 44.18,75.3005849 M42.605,85.3885094 C41.055,85.3885094 39.78,84.1086981 39.78,82.5528491 C39.78,80.997 41.055,79.7171887 42.605,79.7171887 C44.155,79.7171887 45.43,80.997 45.43,82.5528491 C45.43,84.1086981 44.155,85.3885094 42.605,85.3885094 M32.655,79.4913396 C32.08,79.4913396 31.63,79.0145472 31.63,78.4624717 C31.63,77.8853019 32.08,77.4336038 32.655,77.4336038 C33.205,77.4336038 33.68,77.8853019 33.68,78.4624717 C33.68,79.0145472 33.205,79.4913396 32.655,79.4913396 M78.38,89.127566 C77.855,89.6796415 77.13,89.9807736 76.33,89.9807736 C74.68,89.9807736 73.355,88.6507736 73.355,86.9945472 C73.355,85.4888868 74.455,84.2341698 75.905,84.0334151 L76.055,84.0334151 C76.03,83.9581321 76.005,83.8828491 75.98,83.807566 C75.88,83.4562453 75.78,83.1049245 75.73,82.7285094 C75.705,82.477566 75.6775,82.2015283 75.6775,81.9254906 C75.605,80.6958679 75.88,79.4411509 76.405,78.186434 C76.33,78.0860566 76.255,77.9856792 76.205,77.8602075 C75.655,76.9568113 75.205,75.9781321 74.88,74.9241698 C74.555,73.8200189 74.33,72.7158679 74.28,71.611717 C71.655,71.611717 67.38,71.1851132 64.155,68.7007736 C59.155,64.8362453 55.305,64.2088868 50.755,65.0119057 C48.005,65.4886981 44.855,65.2628491 42.805,65.0119057 C39.155,69.2277547 33.755,71.8877547 27.73,71.8877547 C23.8025,71.8877547 20.13,70.7585094 17.03,68.7760566 C25.48,85.0120943 45.98,96.4551132 69.93,96.4551132 C76.255,96.4551132 82.33,95.6520943 88.005,94.1715283 C84.105,93.6696415 80.63,91.8879434 78.38,89.127566" id="Fill-477" fill="#FDD609"></path>
                <path d="M33.67925,78.4627226 C33.67925,79.0147981 33.20675,79.4915906 32.65425,79.4915906 C32.07925,79.4915906 31.63175,79.0147981 31.63175,78.4627226 C31.63175,77.8855528 32.07925,77.4338547 32.65425,77.4338547 C33.20675,77.4338547 33.67925,77.8855528 33.67925,78.4627226" id="Fill-479" fill="#FFE063"></path>
                <path d="M122.80525,45.011717 C122.12775,46.1911509 120.65525,48.4747358 118.33025,50.8085094 C116.53025,52.6153019 114.23025,54.4471887 111.40275,55.7771887 C109.83025,56.5300189 108.08025,57.132283 106.28025,57.6341698 L101.38025,53.2928491 L97.08025,49.4534151 C97.73025,48.3743585 98.48025,47.3956792 99.35525,46.492283 C103.83025,46.1911509 106.50275,45.4885094 106.50275,45.4885094 C106.92775,45.3881321 107.33025,45.2626604 107.75275,45.1371887 L107.78025,45.1371887 C109.20525,45.4132264 111.58025,45.6390755 115.05275,45.4634151 C118.95525,45.2626604 121.10525,44.8611509 122.20525,44.5851132 C122.40525,44.7105849 122.60525,44.8611509 122.80525,45.011717" id="Fill-481" fill="#7A3A7F"></path>
                <path d="M97.08,49.453666 C95.455,52.113666 94.505,55.2504585 94.505,58.5880057 C94.505,58.9142321 94.505,59.2404585 94.555,59.5415906 C91.9275,57.8100811 88.755,57.0321566 85.555,57.4838547 C85.48,57.4838547 85.43,57.5089491 85.355,57.5089491 C82.155,56.2793264 77.68,54.5227226 75.755,53.5942321 C75.105,53.2931 74.555,52.9919679 74.03,52.7410245 C72.705,52.0634774 71.605,51.5615906 70.23,51.2353642 C69.48,51.0346094 68.63,50.9091377 67.605,50.8589491 C63.98,50.6581943 62.08,51.0597038 62.08,51.0597038 C62.08,51.0597038 59.005,50.3319679 57.605,48.7761189 C57.305,48.4749868 57.105,48.1487604 56.98,47.7974396 C56.23,45.5389491 57.73,43.5564962 56.505,41.7246094 C55.88,40.7961189 54.98,40.2189491 54.23,39.8927226 C56.38,36.8814019 57.63,33.192534 57.63,29.2276283 C57.63,28.8261189 57.605,28.4246094 57.5525,28.0231 C59.28,27.7972509 62.53,27.4961189 65.755,27.7470623 C62.305,32.8663075 60.255,40.1687604 60.18,42.2014019 C60.13,44.0332887 63.08,45.0119679 67.6525,44.7610245 C69.055,44.6857415 70.605,44.5100811 72.28,44.1838547 C75.88,43.4812132 79.955,40.8212132 83.405,37.9353642 C81.705,41.398383 80.855,44.1587604 80.855,44.1587604 L80.855,45.0119679 C88.23,46.7434774 94.755,46.8187604 99.355,46.492534 C98.48,47.3959302 97.73,48.3746094 97.08,49.453666" id="Fill-483" fill="#7A3A7F"></path>
                <path d="M123.2055,44.2593887 C123.178,44.359766 123.0305,44.6107094 122.8055,45.0122189 C122.6055,44.8616528 122.4055,44.7110868 122.2055,44.5856151 C122.853,44.4099547 123.1305,44.284483 123.2055,44.2593887" id="Fill-485" fill="#7A3A7F"></path>
                <path d="M100.80575,14.8741679 C100.25325,16.1288849 99.42825,17.4588849 98.27825,18.7136019 C96.70325,20.3949226 95.05325,23.1803943 93.53075,25.8403943 L93.50575,25.8654887 C90.77825,27.3962434 88.47825,29.8554887 86.63075,32.4903943 C85.33075,34.2971868 84.28075,36.2043566 83.40575,37.935866 C79.95575,40.8217151 75.87825,43.4817151 72.28075,44.1843566 C70.60575,44.510583 69.05575,44.6862434 67.65325,44.7615264 C63.08075,45.0124698 60.12825,44.0337906 60.18075,42.2019038 C60.25325,40.1692623 62.30575,32.8668094 65.75325,27.7475642 C66.37825,26.8441679 67.02825,25.9909604 67.73075,25.2632245 C71.73075,21.0975642 80.55325,13.1928472 87.85325,10.0309604 C89.03075,9.50397925 90.15325,9.10246981 91.20575,8.87662075 C98.17825,7.3207717 100.15325,9.00209245 100.45325,9.30322453 C100.48075,9.32831887 100.50575,9.35341321 100.50575,9.35341321 C100.50575,9.35341321 101.45575,9.42869623 101.68075,10.9845453 C101.78075,11.8628472 101.53075,13.2932245 100.80575,14.8741679" id="Fill-487" fill="#89D74F"></path>
                <path d="M84.099,49.7660906 C84.099,49.7660906 83.344,56.5992792 88.449,60.0121094" id="Stroke-489" stroke="#FFFFFF" stroke-width="0.5" stroke-linecap="round" stroke-linejoin="round"></path>
                <path d="M79.17225,51.8293472 C79.17225,51.8293472 72.18725,52.7076491 70.25475,58.1531208" id="Stroke-491" stroke="#FFFFFF" stroke-width="0.5" stroke-linecap="round" stroke-linejoin="round"></path>
                <path d="M74.558,50.3272 C74.558,50.3272 68.633,48.3874075 67.5705,42.6909925" id="Stroke-493" stroke="#FFFFFF" stroke-width="0.5" stroke-linecap="round" stroke-linejoin="round"></path>
                <path d="M66.07425,47.6350792 C66.07425,47.6350792 59.77425,46.8220226 55.40925,51.8935887" id="Stroke-495" stroke="#FFFFFF" stroke-width="0.5" stroke-linecap="round" stroke-linejoin="round"></path>
                <path d="M51.106,55.0850868 C51.106,55.0850868 52.726,57.8404453 59.9635,58.0913887" id="Stroke-497" stroke="#FFFFFF" stroke-width="0.5" stroke-linecap="round" stroke-linejoin="round"></path>
                <path d="M62.5195,53.7703943 C62.5195,53.7703943 64.702,57.6524887 62.332,63.1606962" id="Stroke-499" stroke="#FFFFFF" stroke-width="0.5" stroke-linecap="round" stroke-linejoin="round"></path>
                <path d="M78.61825,31.356883 C78.61825,31.356883 92.22825,11.0505434 106.78825,8.20233585" id="Stroke-501" stroke="#78BA40" stroke-width="0.5" stroke-linecap="round" stroke-linejoin="round"></path>
                <path d="M111.516,33.8234057 C111.516,33.8234057 84.0985,38.7569528 65.9485,54.8901038" id="Stroke-503" stroke="#78BA40" stroke-width="0.5" stroke-linecap="round" stroke-linejoin="round"></path>
                <path d="M76.516,118.741145 C69.4685,112.141334 60.466,119.343409 37.541,110.20907 C24.291,104.939258 15.5935,95.5790698 10.666,88.6530321 C22.241,114.098692 44.416,131.288315 69.841,131.288315 C70.341,131.288315 70.866,131.288315 71.366,131.263221 C76.591,128.628315 81.291,123.233032 76.516,118.741145" id="Fill-505" fill="#E6ECF8"></path>
            </g>
        </g>
    </g>
</svg>