<?xml version="1.0" encoding="UTF-8"?>
<svg width="140px" height="115px" viewBox="0 0 140 115" version="1.1" xmlns="http://www.w3.org/2000/svg" xmlns:xlink="http://www.w3.org/1999/xlink">
    <!-- Generator: Sketch 61.1 (89650) - https://sketch.com -->
    <title>7</title>
    <desc>Created with Sketch.</desc>
    <g id="Page-1" stroke="none" stroke-width="1" fill="none" fill-rule="evenodd">
        <g id="Artboard" transform="translate(-177.000000, -689.000000)">
            <g id="7" transform="translate(177.000000, 688.000000)">
                <path d="M26.6849655,25.5639833 C26.5401379,25.66065 26.3953103,25.7573167 26.2504828,25.9023167 C26.5401379,25.9748167 26.7573793,25.9989833 26.7573793,25.9989833 L27.0470345,25.9989833 L26.6849655,25.5639833 Z M26.6849655,25.5639833 C26.5401379,25.66065 26.3953103,25.7573167 26.2504828,25.9023167 C26.5401379,25.9748167 26.7573793,25.9989833 26.7573793,25.9989833 L27.0470345,25.9989833 L26.6849655,25.5639833 Z M21.278069,49.5614833 C20.1194483,49.5614833 19.0815172,49.07815 18.3332414,48.3048167 C17.6091034,47.55565 17.1746207,46.5648167 17.1746207,45.45315 C17.1746207,43.1814833 19.0091034,41.3448167 21.278069,41.3448167 C22.3884138,41.3448167 23.378069,41.7798167 24.1263448,42.5048167 C24.8987586,43.2539833 25.3815172,44.29315 25.3815172,45.45315 C25.3815172,47.70065 23.5228966,49.5614833 21.278069,49.5614833 L21.278069,49.5614833 Z M91.3746207,94.5114833 C88.6470345,91.5148167 83.3125517,91.2489833 75.153931,87.64815 C70.0849655,85.4272333 66.9228966,81.70315 65.2573793,79.1898167 C58.3297931,73.0514833 53.9608276,64.0373167 53.9608276,54.0105667 C53.9608276,43.06065 59.1504828,33.34565 67.1642759,27.25565 C66.4401379,27.25565 65.7401379,27.3039833 65.0401379,27.3523167 C62.1435862,30.95315 57.7022069,33.27315 52.7297931,33.27315 C51.6677241,33.27315 50.653931,33.1764833 49.6401379,32.98315 C47.0091034,38.0339833 41.7228966,41.4898167 35.6401379,41.4898167 C34.8677241,41.4898167 34.0953103,41.4414833 33.3470345,41.3230667 C31.4401379,41.0548167 29.6297931,40.4264833 28.0125517,39.5105667 C24.6091034,37.6473167 21.978069,34.5539833 20.6987586,30.80815 C13.6746207,37.98565 9.54703448,46.7823167 9.54703448,56.3039833 C9.54703448,58.8439 9.83668966,61.3548167 10.4401379,63.7714833 C12.3228966,71.9398167 17.2953103,79.3348167 24.4401379,85.3039833 C35.4711724,94.5114833 51.6435862,100.311483 69.6746207,100.311483 C78.0504828,100.311483 86.016,99.0548167 93.2332414,96.8073167 C92.6056552,96.0339833 92.0746207,95.26065 91.3746207,94.5114833 L91.3746207,94.5114833 Z M26.6849655,25.5639833 C26.5401379,25.66065 26.3953103,25.7573167 26.2504828,25.9023167 C26.5401379,25.9748167 26.7573793,25.9989833 26.7573793,25.9989833 L27.0470345,25.9989833 L26.6849655,25.5639833 Z M26.6849655,25.5639833 C26.5401379,25.66065 26.3953103,25.7573167 26.2504828,25.9023167 C26.5401379,25.9748167 26.7573793,25.9989833 26.7573793,25.9989833 L27.0470345,25.9989833 L26.6849655,25.5639833 Z M26.6849655,25.5639833 C26.5401379,25.66065 26.3953103,25.7573167 26.2504828,25.9023167 C26.5401379,25.9748167 26.7573793,25.9989833 26.7573793,25.9989833 L27.0470345,25.9989833 L26.6849655,25.5639833 Z" id="Fill-619" fill="#F5BF4D"></path>
                <path d="M139.215034,57.1976667 C139.215034,68.3626667 134.242621,78.6576667 125.794345,87.0193333 C119.735724,93.061 111.866759,98.0635 102.766759,101.664333 C96.7805517,100.649333 94.8012414,98.7885 93.2322759,96.80925 C111.721931,91.031 125.456414,78.68425 128.908138,63.771 C129.511586,61.3543333 129.801241,58.8434167 129.801241,56.3035 C129.801241,53.766 129.511586,51.3034167 128.932276,48.88675 C124.128828,28.1251667 99.4115862,12.3225833 69.6736552,12.3225833 C68.9977931,12.3225833 68.321931,12.3225833 67.6702069,12.3443333 C66.946069,10.266 65.8357241,8.40758333 64.3633103,6.83433333 C66.1012414,6.7135 67.8874483,6.66516667 69.6736552,6.66516667 C103.080552,6.66516667 130.984,23.7751667 137.670207,46.5885 C138.684,50.0201667 139.215034,53.5485 139.215034,57.1976667" id="Fill-621" fill="#B3CFFC"></path>
                <path d="M44.9817586,26.3614833 C44.161069,26.3614833 42.2300345,26.4098167 40.5645172,27.5190667 C38.9955517,28.5123167 37.6438276,30.4214833 37.5955517,33.99815 C37.5714138,34.07065 37.5714138,34.14315 37.5714138,34.2398167 C37.5714138,34.2398167 37.6921034,35.88315 36.3886552,35.88315 C35.6886552,35.88315 35.2783103,35.6414833 35.036931,35.2548167 C34.8438276,34.9164833 34.7714138,34.4814833 34.7955517,34.0464833 C34.8196897,33.1039833 35.8334828,26.1439833 27.0472759,25.9989833 L26.7576207,25.9989833 C26.7576207,25.9989833 26.5403793,25.9748167 26.2507241,25.9023167 C25.7196897,25.7573167 24.9472759,25.44315 24.9472759,24.8873167 C24.9472759,24.4764833 24.9955517,24.0414833 25.1645172,23.6789833 C25.3334828,23.26815 25.6472759,22.9539833 26.2265862,22.9539833 C27.2886552,22.9539833 34.9886552,23.8239833 34.9886552,15.0273167 C34.9886552,15.0273167 34.9645172,13.4323167 36.3886552,13.5289833 C36.8472759,13.55315 37.136931,13.7464833 37.3300345,13.9639833 C37.6196897,14.35065 37.6196897,14.8315667 37.6196897,14.8315667 C37.6196897,14.8315667 37.2334828,16.8639833 38.0058966,18.91815 C38.7783103,21.0689833 40.8058966,23.2439833 45.7783103,23.19565 C45.7783103,23.19565 47.4438276,23.0748167 47.6127931,24.5489833 C47.7817586,26.02315 46.599,26.3614833 44.9817586,26.3614833 M47.5886552,15.3898167 C47.3714138,15.0998167 47.1058966,14.8098167 46.8403793,14.5439833 C45.3196897,13.0190667 43.5093448,11.8107333 41.4576207,10.9914833 C40.5886552,10.65315 39.6714138,10.36315 38.7300345,10.1698167 C37.7162414,9.97648333 36.7024483,9.87981667 35.6403793,9.87981667 C29.3162414,9.87981667 23.861069,13.6014833 21.3507241,18.99065 C20.9645172,19.78815 20.6507241,20.65815 20.4093448,21.52815 C20.0472759,22.8573167 19.8541724,24.2348167 19.8541724,25.6848167 C19.8541724,27.47315 20.1438276,29.21315 20.699,30.80815 C21.9783103,34.5539833 24.6093448,37.6473167 28.0127931,39.50815 C29.6300345,40.4264833 31.4403793,41.0548167 33.3472759,41.32065 C34.0955517,41.4414833 34.8679655,41.4898167 35.6403793,41.4898167 C41.7231379,41.4898167 47.0093448,38.0339833 49.6403793,32.98315 C50.2196897,31.8473167 50.6783103,30.6389833 50.9679655,29.3823167 C51.1127931,28.85065 51.2334828,28.2948167 51.2817586,27.7389833 C51.3783103,27.0623167 51.4265862,26.38565 51.4265862,25.6848167 C51.4265862,21.74565 50.0024483,18.1689833 47.5886552,15.3898167" id="Fill-623" fill="#AFAAA5"></path>
                <path d="M68.5162414,17.468875 C68.5162414,21.1905417 67.2127931,24.646375 65.0403793,27.3530417 C62.1438276,30.953875 57.7024483,33.273875 52.7300345,33.273875 C51.6679655,33.273875 50.6541724,33.1772083 49.6403793,32.983875 C50.2196897,31.845625 50.6783103,30.6372917 50.9679655,29.3830417 C51.1127931,28.851375 51.2334828,28.293125 51.2817586,27.7397083 C51.5231379,27.9572083 51.8852069,28.0780417 52.3679655,28.0780417 C53.6955517,28.0780417 53.5748621,26.4347083 53.5748621,26.4347083 C53.5748621,18.773875 59.3921034,18.5539583 60.9852069,18.5539583 C62.5783103,18.5539583 63.7852069,18.2397917 63.6162414,16.7680417 C63.4472759,15.2697083 61.7576207,15.4122917 61.7576207,15.4122917 C58.7645172,15.4364583 56.8334828,14.641375 55.6024483,13.5297083 C53.6955517,11.8622083 53.4541724,9.39479167 53.5024483,8.043875 L53.5265862,8.043875 C53.5265862,7.41554167 53.599,7.028875 53.599,7.028875 C53.599,7.028875 53.599,5.796375 52.3679655,5.723875 C50.9438276,5.62720833 50.9921034,7.246375 50.9921034,7.246375 C50.9921034,7.70554167 50.9679655,8.14054167 50.9196897,8.551375 C50.5817586,12.1280417 48.7472759,13.793125 46.8403793,14.5447083 C45.3196897,13.0197917 43.5093448,11.8114583 41.4576207,10.9897917 C40.5886552,10.653875 39.6714138,10.363875 38.7300345,10.168125 C41.361069,5.11970833 46.6472759,1.663875 52.7300345,1.663875 C57.3403793,1.663875 61.4921034,3.643125 64.3645172,6.83554167 C65.836931,8.406375 66.9472759,10.2672083 67.6714138,12.3455417 C68.2265862,13.9405417 68.5162414,15.6805417 68.5162414,17.468875" id="Fill-625" fill="#A15550"></path>
                <path d="M107.618966,54.41995 L107.594828,54.41995 C105.277586,66.1625333 95.0431034,75.00995 82.8051724,75.00995 C79.1844828,75.00995 75.7327586,74.2342 72.6431034,72.8591167 C63.7362069,68.8692 57.5086207,59.8308667 57.5086207,49.3207833 C57.5086207,39.8933667 62.5051724,31.65495 69.9637931,27.2058667 C73.7293103,24.9366167 78.1224138,23.6557833 82.8051724,23.6557833 C83.8189655,23.6557833 84.8086207,23.7282833 85.7982759,23.82495 L85.8224138,23.82495 C86.3534483,23.7041167 86.8603448,23.60745 87.3913793,23.5808667 C88.0431034,23.53495 88.6224138,23.8491167 88.8637931,24.40495 C95.0189655,25.92745 100.305172,29.7941167 103.781034,34.98995 C106.508621,39.0717 108.101724,44.0017 108.101724,49.3207833 C108.101724,51.0583667 107.932759,52.7742 107.618966,54.41995 M119.712069,51.2758667 C119.567241,49.4392 119.277586,47.67745 118.867241,45.9350333 C115.318966,31.3891167 102.356897,20.5866167 86.9086207,20.5866167 C79.4982759,20.5866167 72.6672414,23.0733667 67.1637931,27.2566167 C59.15,33.3442 53.9603448,43.0616167 53.9603448,54.0091167 C53.9603448,64.0358667 58.3293103,73.05245 65.2568966,79.1907833 C71.05,84.3117 78.6051724,87.4292 86.9086207,87.4292 C105.084483,87.4292 119.832759,72.4482833 119.832759,54.0091167 C119.832759,53.0883667 119.784483,52.1700333 119.712069,51.2758667" id="Fill-627" fill="#EBEBEB"></path>
                <path d="M108.102207,49.3198167 C108.102207,51.0598167 107.933241,52.77565 107.619448,54.4189833 L107.59531,54.4189833 C105.278069,66.1639833 95.0435862,75.0089833 82.8056552,75.0089833 C79.1849655,75.0089833 75.7332414,74.23565 72.6435862,72.85815 C63.7366897,68.87065 57.5091034,59.8323167 57.5091034,49.3198167 C57.5091034,39.8948167 62.5056552,31.6539833 69.9642759,27.2073167 C73.7297931,24.93565 78.1228966,23.6548167 82.8056552,23.6548167 C83.8194483,23.6548167 84.8091034,23.7273167 85.7987586,23.8239833 C83.4332414,24.42815 81.0677241,25.9748167 79.4022069,27.7873167 C78.5091034,28.7539833 77.8091034,29.8173167 77.4228966,30.8323167 C76.3849655,33.5607333 76.916,36.17315 77.253931,37.3573167 C77.3746207,37.8164833 77.7125517,38.1548167 78.1711724,38.2998167 C79.5953103,38.7348167 83.4573793,39.6024 87.053931,35.3732333 C88.5746207,33.5873167 89.2263448,31.5573167 89.4194483,29.64815 C89.6125517,27.6423167 89.2987586,25.80565 88.9849655,24.6698167 C88.9608276,24.57315 88.9125517,24.4764833 88.8642759,24.4039833 C95.0194483,25.9264833 100.305655,29.79315 103.781517,34.9889833 C106.509103,39.07315 108.102207,44.00315 108.102207,49.3198167" id="Fill-629" fill="#FFFFFF"></path>
                <path d="M42.5901724,74.66195 C42.5901724,74.66195 45.3877586,73.7557 45.8608621,71.51545 C46.3339655,69.2752 43.7101724,62.5133667 41.6874138,60.3601167 C39.6646552,58.20445 36.5243103,58.5065333 34.1563793,59.84295 C31.7908621,61.1793667 30.6298276,63.8062833 32.6936207,67.9412 C34.7598276,72.0761167 37.0843103,76.8152 42.5901724,74.66195" id="Fill-631" fill="#F27F54"></path>
                <path d="M51.1103793,63.935575 C51.1103793,63.935575 49.1745172,64.7089083 49.131069,66.6929917 C49.0876207,68.6746583 50.1617586,71.6882417 52.0565862,72.3769917 C53.949,73.0657417 55.4117586,72.548575 56.0586552,70.482325 C56.7031379,68.416075 54.7672759,62.2559917 51.1103793,63.935575" id="Fill-633" fill="#FCD50A"></path>
                <path d="M51.7987931,78.7093833 C51.7987931,78.7093833 44.9581034,76.7712167 41.9022414,78.1922167 C38.8463793,79.6156333 37.9001724,82.11205 38.4167241,84.7848833 C38.9332759,87.4553 40.6977586,89.3088833 45.6894828,89.8671333 C50.6787931,90.4278 53.7346552,90.0822167 55.8418966,86.9816333 C57.9515517,83.88105 56.5756897,80.3889667 51.7987931,78.7093833" id="Fill-635" fill="#FCD50A"></path>
                <path d="M65.3515172,89.0911417 C65.3128966,88.9195583 64.5766897,86.6358083 62.8556552,86.4231417 C61.1346207,86.2056417 56.616,87.841725 55.8435862,88.704475 C55.0687586,89.5648083 54.293931,91.3748917 55.6697931,93.4435583 C57.048069,95.5098083 61.5642759,94.7340583 63.9322069,93.3565583 C66.2977241,91.9766417 65.5228966,89.8668917 65.3515172,89.0911417" id="Fill-637" fill="#F27F54"></path>
                <path d="M125.79531,87.01885 C123.067724,92.23885 118.988414,96.9755167 113.919448,101.037933 C102.93669,109.759683 87.1746207,115.22135 69.6746207,115.22135 C47.6366897,115.22135 28.3987586,106.545517 17.9470345,93.61635 C16.2091034,91.5380167 14.7608276,89.3146833 13.553931,87.01885 C15.3401379,88.8071833 17.3194483,90.5230167 19.4194483,92.0962667 C32.0677241,101.738767 49.9056552,107.729683 69.6746207,107.729683 C81.6711724,107.729683 92.9435862,105.530517 102.767724,101.666267 C111.867724,98.0630167 119.73669,93.0605167 125.79531,87.01885" id="Fill-639" fill="#95B3FE"></path>
                <path d="M129.801483,56.3032583 C129.801483,58.843175 129.511828,61.3540917 128.908379,63.7707583 C125.456655,78.6840083 111.722172,91.0307583 93.2325172,96.8090083 C92.604931,96.0332583 92.0738966,95.259925 91.3738966,94.513175 C88.6463103,91.5140917 83.3118276,91.2482583 75.1532069,87.6498417 C70.0842414,85.4265083 66.9221724,81.7048417 65.2566552,79.1915083 C71.0497586,84.312425 78.604931,87.429925 86.9083793,87.429925 C105.084241,87.429925 119.832517,72.4490083 119.832517,54.0098417 C119.832517,53.0890917 119.784241,52.1707583 119.711828,51.2765917 C119.567,49.439925 119.277345,47.678175 118.867,45.9357583 C115.318724,31.387425 102.356655,20.5873417 86.9083793,20.5873417 C79.4980345,20.5873417 72.667,23.0740917 67.1635517,27.254925 C66.4394138,27.254925 65.7394138,27.3032583 65.0394138,27.3540083 C67.2118276,24.644925 68.5152759,21.1915083 68.5152759,17.4698417 C68.5152759,15.6790917 68.2256207,13.9415083 67.6704483,12.3465083 C68.3221724,12.3223417 68.9980345,12.3223417 69.6738966,12.3223417 C99.4118276,12.3223417 124.129069,28.124925 128.932517,48.8865083 C129.511828,51.303175 129.801483,53.7657583 129.801483,56.3032583" id="Fill-641" fill="#D6A446"></path>
                <path d="M102.767724,101.6653 C92.9435862,105.531967 81.6711724,107.731133 69.6746207,107.731133 C49.9056552,107.731133 32.0677241,101.7378 19.4194483,92.0953 C17.3194483,90.5244667 15.3401379,88.8086333 13.553931,87.0178833 C5.10565517,78.6562167 0.133241379,68.3636333 0.133241379,57.1986333 C0.133241379,43.2786333 7.88151724,30.6878 20.4091034,21.5286333 C20.0470345,22.8578 19.853931,24.2353 19.853931,25.6853 C19.853931,27.4736333 20.1435862,29.2136333 20.6987586,30.8086333 C13.6746207,37.9837167 9.54703448,46.7828 9.54703448,56.30205 C9.54703448,58.8419667 9.83668966,61.3528833 10.4401379,63.76955 C12.3228966,71.9403 17.2953103,79.3353 24.4401379,85.30205 C35.4711724,94.5119667 51.6435862,100.30955 69.6746207,100.30955 C78.0504828,100.30955 86.016,99.0553 93.2332414,96.8078 C94.8022069,98.7894667 96.7815172,100.6503 102.767724,101.6653" id="Fill-643" fill="#E1EFF5"></path>
                <path d="M25.3812759,45.4541167 C25.3812759,47.7016167 23.5226552,49.5600333 21.2778276,49.5600333 C20.1192069,49.5600333 19.0812759,49.0791167 18.333,48.3057833 C17.6088621,47.5542 17.1743793,46.5657833 17.1743793,45.4541167 C17.1743793,43.18245 19.0088621,41.3457833 21.2778276,41.3457833 C22.3881724,41.3457833 23.3778276,41.7783667 24.1261034,42.5033667 C24.8985172,43.25495 25.3812759,44.2941167 25.3812759,45.4541167" id="Fill-645" fill="#85D54D"></path>
                <path d="M21.2773448,49.5605167 C20.1187241,49.5605167 19.0807931,49.0796 18.3325172,48.30385 C17.6083793,47.5546833 17.1738966,46.5662667 17.1738966,45.4546 C17.1738966,43.1805167 19.0083793,41.3462667 21.2773448,41.3462667 C22.3876897,41.3462667 23.3773448,41.77885 24.1256207,42.50385 C24.8980345,43.2554333 25.3807931,44.2921833 25.3807931,45.4546 C25.3807931,47.6996833 23.5221724,49.5605167 21.2773448,49.5605167 L21.2773448,49.5605167 Z M28.0118276,39.5096 C24.6083793,37.64635 21.9773448,34.5530167 20.6980345,30.8071833 C13.6738966,37.9846833 9.54631034,46.7837667 9.54631034,56.3030167 C9.54631034,58.8429333 9.83596552,61.35385 10.4394138,63.7705167 C12.3221724,71.9412667 17.2945862,79.33385 24.4394138,85.3030167 C25.067,82.4054333 25.067,78.1496833 24.4876897,75.85385 C23.6911379,72.6421 25.0911379,73.6305167 26.4911379,69.2080167 C27.9152759,64.7879333 24.9945862,62.4679333 25.5980345,56.0130167 C26.2014828,49.5605167 30.329069,49.97135 32.2359655,45.9355167 C33.104931,44.09885 33.3463103,42.50385 33.3463103,41.3221 C31.4394138,41.05385 29.629069,40.4279333 28.0118276,39.5096 L28.0118276,39.5096 Z M26.6842414,25.5630167 C26.5394138,25.6596833 26.3945862,25.75635 26.2497586,25.90135 C26.5394138,25.97385 26.7566552,25.9980167 26.7566552,25.9980167 L27.0463103,25.9980167 L26.6842414,25.5630167 Z" id="Fill-647" fill="#3B9B47"></path>
                <path d="M89.4187241,29.6491167 C89.2256207,31.5582833 88.5738966,33.5882833 87.0532069,35.3742 C83.4566552,39.6033667 79.5945862,38.7357833 78.1704483,38.3007833 C77.7118276,38.1557833 77.3738966,37.81745 77.2532069,37.3558667 C76.9152759,36.1717 76.3842414,33.5617 77.4221724,30.8308667 C77.8083793,29.8158667 78.5083793,28.75495 79.4014828,27.7858667 C81.067,25.9733667 83.4325172,24.4291167 85.7980345,23.82495 L85.8221724,23.82495 C86.3532069,23.7041167 86.8601034,23.60745 87.3911379,23.5808667 C88.0428621,23.53495 88.6221724,23.8491167 88.8635517,24.40495 C88.9118276,24.4750333 88.9601034,24.5717 88.9842414,24.6683667 C89.2980345,25.8042 89.6118276,27.6432833 89.4187241,29.6491167" id="Fill-649" fill="#3A9A50"></path>
                <path d="M47.6123103,24.5489833 C47.7812759,26.02315 46.5985172,26.3614833 44.9812759,26.3614833 C44.1605862,26.3614833 42.2295517,26.4098167 40.5640345,27.5190667 C38.995069,28.5123167 37.6433448,30.4214833 37.595069,33.99815 C37.570931,34.07065 37.570931,34.14315 37.570931,34.2398167 C37.570931,34.2398167 37.6916207,35.88315 36.3881724,35.88315 C35.6881724,35.88315 35.2778276,35.6414833 35.0364483,35.2548167 C34.8433448,34.9164833 34.770931,34.4814833 34.795069,34.0464833 C34.8192069,33.1039833 35.833,26.1439833 27.0467931,25.9989833 L26.6847241,25.5639833 C26.5398966,25.66065 26.395069,25.7573167 26.2502414,25.9023167 C25.7192069,25.7573167 24.9467931,25.44315 24.9467931,24.8873167 C24.9467931,24.4764833 24.995069,24.0414833 25.1640345,23.6789833 C25.333,23.26815 25.6467931,22.9539833 26.2261034,22.9539833 C27.2881724,22.9539833 34.9881724,23.8239833 34.9881724,15.0273167 C34.9881724,15.0273167 34.9640345,13.4323167 36.3881724,13.5289833 C36.8467931,13.55315 37.1364483,13.7464833 37.3295517,13.9639833 C37.6192069,14.35065 37.6192069,14.8315667 37.6192069,14.8315667 C37.6192069,14.8315667 37.233,16.8639833 38.0054138,18.91815 C38.7778276,21.0689833 40.8054138,23.2439833 45.7778276,23.19565 C45.7778276,23.19565 47.4433448,23.0748167 47.6123103,24.5489833" id="Fill-651" fill="#FEFEFF"></path>
                <path d="M27.0467931,25.9980167 L26.7571379,25.9980167 C26.7571379,25.9980167 26.5398966,25.97385 26.2502414,25.90135 C26.395069,25.75635 26.5398966,25.6596833 26.6847241,25.5630167 L27.0467931,25.9980167 Z" id="Fill-653" fill="#FEFEFF"></path>
                <path d="M63.6155172,16.7680417 C63.7844828,18.2397917 62.5775862,18.5539583 60.9844828,18.5539583 C59.3913793,18.5539583 53.5741379,18.773875 53.5741379,26.4347083 C53.5741379,26.4347083 53.6948276,28.0780417 52.3672414,28.0780417 C51.8844828,28.0780417 51.5224138,27.9572083 51.2810345,27.7397083 C51.3775862,27.0630417 51.4258621,26.3839583 51.4258621,25.683125 C51.4258621,21.746375 50.0017241,18.1697083 47.587931,15.3905417 C47.3706897,15.1005417 47.1051724,14.808125 46.8396552,14.5447083 C48.7465517,13.7955417 50.5810345,12.1280417 50.9189655,8.551375 C50.9672414,8.14054167 50.9913793,7.70554167 50.9913793,7.246375 C50.9913793,7.246375 50.9431034,5.62720833 52.3672414,5.723875 C53.5982759,5.796375 53.5982759,7.028875 53.5982759,7.028875 C53.5982759,7.028875 53.5258621,7.41554167 53.5258621,8.043875 L53.5017241,8.043875 C53.4534483,9.39479167 53.6948276,11.8622083 55.6017241,13.5297083 C56.8327586,14.641375 58.7637931,15.4364583 61.7568966,15.4122917 C61.7568966,15.4122917 63.4465517,15.2697083 63.6155172,16.7680417" id="Fill-655" fill="#FEFEFF"></path>
                <path d="M58.6901724,54.7761667 C58.6901724,54.7761667 59.6556897,52.1540833 62.7574138,51.7408333" id="Stroke-657" stroke="#152347" stroke-width="0.75" stroke-linecap="round"></path>
                <path d="M71.1680345,54.1555667 C71.1680345,54.1555667 69.237,48.9114 72.0635517,46.6349" id="Stroke-659" stroke="#152347" stroke-width="0.75" stroke-linecap="round"></path>
                <path d="M74.2004828,59.607325 C74.2004828,59.607325 77.6473793,61.6107417 82.7477241,58.643075" id="Stroke-661" stroke="#152347" stroke-width="0.75" stroke-linecap="round"></path>
                <path d="M90.4689655,53.2587417 C90.4689655,53.2587417 91.6396552,56.6396583 96.122069,56.9852417" id="Stroke-663" stroke="#152347" stroke-width="0.75" stroke-linecap="round"></path>
                <path d="M80.129,36.2806917 C80.129,36.2806917 85.0917586,37.1096083 86.2648621,43.0449417" id="Stroke-665" stroke="#152347" stroke-width="0.75" stroke-linecap="round"></path>
                <path d="M68.2722069,30.3453583 C68.2722069,30.3453583 65.378069,32.9698583 68.2046207,36.488525" id="Stroke-667" stroke="#152347" stroke-width="0.75" stroke-linecap="round"></path>
                <path d="M21.7241379,56.279575 C21.7241379,58.548825 19.8872414,60.3879083 17.6231034,60.3879083 C15.3565517,60.3879083 13.522069,58.548825 13.522069,56.279575 C13.522069,54.0127417 15.3565517,52.1736583 17.6231034,52.1736583 C19.8872414,52.1736583 21.7241379,54.0127417 21.7241379,56.279575" id="Fill-669" fill="#8AD54C"></path>
                <path d="M22.7495172,67.5745917 C22.7495172,69.841425 20.9126207,71.6805083 18.6484828,71.6805083 C16.381931,71.6805083 14.5474483,69.841425 14.5474483,67.5745917 C14.5474483,65.3077583 16.381931,63.468675 18.6484828,63.468675 C20.9126207,63.468675 22.7495172,65.3077583 22.7495172,67.5745917" id="Fill-671" fill="#8AD54C"></path>
            </g>
        </g>
    </g>
</svg>