<?xml version="1.0" encoding="UTF-8"?>
<svg width="140px" height="131px" viewBox="0 0 140 131" version="1.1" xmlns="http://www.w3.org/2000/svg" xmlns:xlink="http://www.w3.org/1999/xlink">
    <!-- Generator: Sketch 61.1 (89650) - https://sketch.com -->
    <title>8</title>
    <desc>Created with Sketch.</desc>
    <g id="Page-1" stroke="none" stroke-width="1" fill="none" fill-rule="evenodd">
        <g id="Artboard" transform="translate(-430.000000, -680.000000)">
            <g id="8" transform="translate(430.000000, 680.000000)">
                <path d="M100.490552,105.004467 C100.104345,105.004467 99.7422759,105.004467 99.356069,104.980285 L99.2136552,104.980285 C98.8491724,105.004467 98.4629655,105.004467 98.0767586,105.004467 C97.4491724,105.004467 96.8215862,104.980285 96.1964138,104.93434 C91.8250345,110.542104 85.0181379,114.145195 77.3929655,114.145195 C64.7905517,114.145195 54.4836552,104.37574 53.5905517,91.9946491 L76.2077931,91.9946491 C74.2791724,88.4399218 73.1905517,84.4015582 73.1905517,80.0730127 C73.1905517,78.33434 73.3595172,76.6174309 73.7215862,74.9706491 C74.3491724,71.8511945 75.5826207,68.9251945 77.2964138,66.36434 C81.7353793,59.5934309 89.3871034,55.1415582 98.0767586,55.1415582 C98.4629655,55.1415582 98.8491724,55.1415582 99.2136552,55.1681582 L99.356069,55.1681582 C99.7422759,55.1415582 100.104345,55.1415582 100.490552,55.1415582 C114.249172,55.1415582 125.400897,66.2893764 125.400897,80.0730127 C125.400897,93.8590673 114.249172,105.004467 100.490552,105.004467 M47.5343448,83.7244673 C47.5343448,81.2095582 49.5836552,79.1782855 52.0698621,79.1782855 C53.4457241,79.1782855 54.6791724,79.7828309 55.4974483,80.7525218 C56.1250345,81.4271945 56.5112414,82.29774 56.586069,83.2674309 C56.631931,83.4101036 56.631931,83.5817945 56.631931,83.7244673 C56.631931,85.22374 55.9077931,86.55374 54.7757241,87.3759218 C54.4112414,87.6419218 54.0250345,87.8595582 53.6146897,87.9804673 C53.131931,88.1739218 52.6008966,88.2706491 52.0698621,88.2706491 C49.5836552,88.2706491 47.5343448,86.2393764 47.5343448,83.7244673 M61.6284828,74.2693764 C62.931931,74.2693764 64.0205517,75.2608309 64.1871034,76.5207036 C64.2136552,76.6416127 64.2136552,76.73834 64.2136552,76.8568309 C64.2136552,78.2835582 63.0526207,79.4467036 61.6284828,79.4467036 C61.0998621,79.4467036 60.6146897,79.2991945 60.2067586,79.0356127 C59.5067586,78.57374 59.0215862,77.77574 59.0215862,76.8568309 C59.0215862,75.4325218 60.1802069,74.2693764 61.6284828,74.2693764 M130.421586,70.32774 C130.445724,70.1342855 130.421586,69.9408309 130.399862,69.7473764 C130.37331,69.4330127 130.349172,69.0944673 130.30331,68.75834 C130.30331,68.5648855 130.276759,68.3714309 130.252621,68.1779764 C130.252621,68.1271945 130.228483,68.0788309 130.228483,68.0062855 C130.228483,67.96034 130.206759,67.8853764 130.206759,67.8128309 C130.206759,67.7427036 130.180207,67.6701582 130.156069,67.5951945 C130.110207,67.1381582 130.035379,66.7004673 129.938828,66.2434309 C129.938828,66.1467036 129.91469,66.0499764 129.892966,65.9532491 C129.892966,65.9024673 129.866414,65.83234 129.842276,65.7815582 C129.842276,65.7356127 129.818138,65.6606491 129.796414,65.6122855 L129.796414,65.5639218 C129.796414,65.4454309 129.769862,65.3245218 129.721586,65.2011945 C129.721586,65.0802855 129.699862,64.9835582 129.649172,64.8626491 C129.649172,64.7901036 129.625034,64.7441582 129.60331,64.6691945 C129.576759,64.5724673 129.552621,64.4515582 129.528483,64.3330673 C129.528483,64.2822855 129.506759,64.23634 129.480207,64.1855582 C129.456069,64.0187036 129.407793,63.8470127 129.335379,63.6535582 C129.21469,63.1941036 129.096414,62.7128855 128.925034,62.2292491 C128.756069,61.6972491 128.562966,61.1386491 128.345724,60.6090673 C128.249172,60.3188855 128.128483,60.0504673 128.007793,59.7602855 C127.986069,59.6901582 127.959517,59.6151945 127.911241,59.5426491 C127.838828,59.3250127 127.742276,59.1097945 127.645724,58.9139218 C127.597448,58.7954309 127.549172,58.6745218 127.479172,58.5511945 C127.331931,58.1908855 127.162966,57.8499218 126.972276,57.4896127 C126.945724,57.4146491 126.921586,57.3687036 126.897448,57.3179218 C126.875724,57.2453764 126.825034,57.1752491 126.779172,57.1002855 C126.704345,56.9310127 126.607793,56.7641582 126.511241,56.5924673 C126.342276,56.22974 126.149172,55.8911945 125.931931,55.5550673 C125.618138,54.9747036 125.256069,54.3919218 124.872276,53.8115582 C124.821586,53.7148309 124.775724,53.6181036 124.700897,53.5479764 C124.387103,53.0401582 124.025034,52.53234 123.665379,52.0487036 C123.590552,51.9277945 123.494,51.8044673 123.397448,51.6835582 C123.300897,51.5408855 123.180207,51.3933764 123.061931,51.2507036 C122.965379,51.1297945 122.868828,51.0064673 122.769862,50.8855582 C122.576759,50.6219764 122.361931,50.3535582 122.14469,50.0875582 C121.758483,49.6305218 121.369862,49.1686491 120.983655,48.7333764 C120.525034,48.2037945 120.04469,47.6959764 119.537793,47.1881582 C119.052621,46.7045218 118.545724,46.1967036 118.01469,45.7106491 C117.483655,45.2270127 116.952621,44.7433764 116.397448,44.28634 C114.249172,48.1771945 110.749172,51.2265218 106.525034,52.8201036 C106.404345,52.8684673 106.283655,52.9168309 106.165379,52.9651945 C104.231931,53.6181036 102.134345,53.9808309 99.9595172,53.9808309 L86.0077931,53.9808309 C85.9377931,53.9808309 85.8629655,53.9808309 85.7905517,53.9324673 C82.7733103,55.5042855 79.6353793,56.78834 76.5964138,57.82574 C69.8836552,60.1012491 63.7526207,61.2136127 60.856069,61.7673764 C60.8102069,61.7673764 60.7836552,61.7915582 60.7353793,61.7915582 C60.6146897,61.8181582 60.4964138,61.8399218 60.3733103,61.9148855 C61.3871034,62.6862855 62.6905517,63.9679218 63.1274483,65.3946491 C63.8491724,67.8128309 61.9422759,69.8924673 61.9422759,69.8924673 C61.9422759,69.8924673 62.256069,67.96034 61.1964138,65.8565218 C60.4215862,64.3790127 57.6215862,63.5108855 56.0284828,63.1239764 L56.0043448,63.1239764 C52.8905517,64.20974 50.3343448,65.5881036 48.6664138,66.5795582 C52.7481379,70.9830673 52.2871034,73.1328309 52.2871034,73.1328309 C50.2377931,72.2139218 47.7974483,69.4596127 46.6171034,67.96034 C46.5205517,68.0062855 46.4698621,68.0570673 46.4698621,68.0570673 C46.2043448,68.2747036 45.9629655,68.5382855 45.7457241,68.73174 C43.1871034,71.2732491 41.6664138,74.1242855 40.8964138,77.1252491 L40.8964138,77.1470127 C37.9008966,88.5608309 45.5526207,101.44974 45.5526207,101.44974 L56.2215862,104.523249 C50.7664138,105.463922 46.6171034,111.968831 46.6171034,111.968831 L44.394,102.24774 C38.9146897,98.3810673 35.1733103,94.0525218 32.7595172,90.5461582 C29.1629655,92.7684673 26.7491724,96.5674309 26.7491724,96.5674309 L24.5815862,87.0712309 L28.1226207,88.3020855 L31.8181379,86.7375218 L27.6181379,74.2693764 L29.7181379,63.3754673 L31.8181379,57.3928855 L34.3357241,54.0388673 C34.3357241,54.0388673 35.7477931,52.9168309 37.1405517,51.1031945 C38.5333103,49.2919764 38.3667586,49.7054855 38.5333103,49.2919764 L38.6974483,48.8760491 L41.0750345,45.2753764 L39.6146897,43.3045582 C39.6146897,43.3045582 38.8953793,34.6111945 29.5346897,43.6068309 C20.174,52.6048855 20.8595172,50.3269582 20.8595172,50.3269582 L17.361931,59.02274 L15.0471034,68.3472491 L18.5205517,77.6669218 L22.611931,85.4220309 C18.341931,82.0921945 15.2667586,78.5519764 13.1377931,75.5292491 C12.7274483,74.9464673 12.3629655,74.3927036 12.0274483,73.8824673 C11.424,72.9151945 10.8905517,72.0688309 10.4802069,71.2974309 L10.4802069,71.2732491 C10.0457241,70.4244673 9.68365517,69.7473764 9.46641379,69.2153764 C9.394,69.0219218 9.32158621,68.8550673 9.24917241,68.6616127 C9.17675862,69.1911945 9.12848276,69.6990127 9.10675862,70.2310127 L9.10675862,70.2551945 C9.0802069,70.85974 9.05606897,71.4908855 9.05606897,72.0954309 C9.05606897,74.6804673 9.36986207,77.2461582 9.99744828,79.7102855 L9.99744828,79.7368855 C15.0446897,100.071376 39.9043448,115.54774 69.7871034,115.54774 C99.6698621,115.54774 124.507793,100.071376 129.552621,79.7368855 L129.552621,79.7102855 C130.180207,77.2461582 130.496414,74.6804673 130.496414,72.0954309 C130.496414,71.5126491 130.469862,70.9081036 130.421586,70.32774" id="Fill-673" fill="#FFFFFF"></path>
                <path d="M126.945724,102.078467 C118.521586,118.838885 96.0974483,130.833067 69.7871034,130.833067 C43.5033103,130.833067 21.1008966,118.860649 12.6526207,102.129249 C25.1802069,115.405067 46.0836552,124.08634 69.7871034,124.08634 C93.4929655,124.08634 114.442276,115.378467 126.945724,102.078467" id="Fill-675" fill="#B2A8A8"></path>
                <path d="M94.3595172,74.6567691 C93.1526207,74.0764055 91.656069,74.7075509 91.0043448,76.0593145 C90.3791724,77.4159145 90.931931,79.0820418 92.1388276,79.6624055 C92.1388276,79.6624055 94.4102069,80.6054964 97.4274483,79.1328236 C97.4274483,79.1328236 96.556069,75.6965873 94.3595172,74.6567691 M97.6664138,80.2911327 C97.6664138,80.2911327 94.1664138,80.4120418 92.6698621,82.3224055 C91.8491724,83.3864055 92.1388276,84.9848236 93.3215862,85.9013145 C94.5067586,86.8202236 96.2664138,86.6267691 97.0871034,85.5627691 C97.0871034,85.5627691 98.4629655,83.5556782 97.6664138,80.2911327 M101.794,73.7136782 C101.721586,72.4320418 100.541241,71.4405873 99.1146897,71.4405873 C98.924,71.4405873 98.7526207,71.4647691 98.5595172,71.4889509 C97.3284828,71.7549509 96.3388276,72.8431327 96.3388276,74.00386 C96.3388276,74.00386 96.4836552,76.4462236 99.1146897,78.5742236 C99.1146897,78.5742236 101.818138,76.3011327 101.818138,73.8829509 C101.818138,73.8345873 101.818138,73.7620418 101.794,73.7136782 M103.821586,82.6367691 C103.821586,82.6367691 102.37331,80.8497327 99.2112414,80.6054964 C99.1146897,80.5813145 99.0205517,80.5813145 98.924,80.5813145 C98.924,80.5813145 98.0526207,84.0151327 99.4767586,85.97386 C99.8412414,86.4840964 100.394,86.79846 100.997448,86.8951873 C101.67331,86.9919145 102.448138,86.8202236 103.097448,86.3365873 C104.304345,85.4660418 104.618138,83.7249509 103.821586,82.6367691 M106.983655,77.5102236 C106.575724,76.0593145 105.076759,75.1645873 103.77331,75.5273145 C103.77331,75.5273145 101.456069,76.2769509 100.130897,79.3722236 C100.130897,79.3722236 103.000897,81.4034964 105.342276,80.7747691 C106.645724,80.4120418 107.372276,78.9611327 106.983655,77.5102236" id="Fill-677" fill="#B2A8A8"></path>
                <path d="M116.903862,36.2091291 L116.903862,36.35422 C116.759034,38.7724018 116.083172,41.0454927 114.996966,43.0767655 C114.996966,43.0767655 114.996966,43.1009473 114.972828,43.1009473 C114.996966,43.1227109 115.045241,43.1468927 115.069379,43.1734927 C116.203862,41.14222 116.954552,38.8691291 117.265931,36.4509473 C117.147655,36.35422 117.026966,36.2792564 116.903862,36.2091291 L116.903862,36.2091291 Z M90.8855862,31.3461655 L92.1890345,31.7113109 C92.4762759,31.4211291 92.7417931,31.1067655 93.0097241,30.7924018 L90.8855862,31.3461655 Z M57.428,42.9800382 C57.428,42.9800382 57.4521379,43.00422 57.4762759,43.00422 C57.5486897,42.9558564 57.5993793,42.9292564 57.6693793,42.9292564 C57.5728276,42.9292564 57.5028276,42.9558564 57.428,42.9800382 L57.428,42.9800382 Z M7.87282759,50.4981655 L7.87282759,50.5247655 C7.94524138,50.71822 8.0417931,50.9092564 8.11662069,51.1027109 C8.21317241,50.6214927 8.33386207,50.1378564 8.47627586,49.6759836 C8.25903448,49.9444018 8.06593103,50.2104018 7.87282759,50.4981655 L7.87282759,50.4981655 Z M44.2004138,45.7343473 C42.8993793,46.0269473 41.8131724,46.19622 40.9924828,46.3630745 C40.9417931,46.3630745 40.920069,46.3896745 40.8693793,46.3896745 C40.7486897,46.4138564 40.628,46.43562 40.5097241,46.4864018 C40.8452414,46.7741655 41.2314483,47.0909473 41.595931,47.4512564 C41.7166207,47.3787109 41.8348966,47.2819836 41.9555862,47.2360382 C41.9555862,47.2360382 41.9797241,47.2360382 41.9797241,47.2118564 C42.390069,47.5020382 42.8269655,47.7438564 43.2590345,47.9590745 L42.0521379,47.1610745 C42.8028276,46.6532564 43.5028276,46.16962 44.2004138,45.7343473 L44.2004138,45.7343473 Z M35.2935172,51.6613109 L35.3176552,50.1838018 C35.3176552,50.1838018 35.2211034,50.7424018 35.2211034,51.6830745 C35.2211034,52.04822 35.2452414,52.4810745 35.2717931,52.9671291 C36.1142069,52.04822 36.9855862,51.1994382 37.8786897,50.4280382 C37.0073103,50.7883473 36.1383448,51.1994382 35.2935172,51.6613109 L35.2935172,51.6613109 Z M41.595931,47.4512564 C40.9417931,47.9131291 40.265931,48.4451291 39.6142069,48.9747109 C39.0348966,49.4365836 38.4555862,49.92022 37.8786897,50.4280382 C38.5786897,50.0870745 39.2786897,49.7968927 40.0028276,49.5091291 C40.0993793,49.4583473 40.195931,49.4365836 40.2924828,49.3858018 C40.7728276,49.1923473 41.2555862,49.0254927 41.7624828,48.8320382 C41.7866207,48.8078564 41.8131724,48.8078564 41.8348966,48.8078564 C42.0762759,48.7111291 42.295931,48.6385836 42.5348966,48.56362 C42.2452414,48.1767109 41.9314483,47.79222 41.595931,47.4512564 L41.595931,47.4512564 Z M32.3245517,56.6403473 C32.158,56.8845836 31.9866207,57.1481655 31.8176552,57.3924018 C32.0107586,57.5350745 32.228,57.6559836 32.4211034,57.7285291 C32.4211034,57.7285291 32.4935172,57.36822 32.3245517,56.6403473 L32.3245517,56.6403473 Z M20.8590345,61.6701655 C20.9073103,61.6967655 20.9821379,61.7209473 21.028,61.7451291 L21.028,61.7209473 C21.0521379,61.62422 21.1028276,61.5033109 21.1245517,61.4065836 C21.028,61.4767109 20.9314483,61.5492564 20.8590345,61.6701655 L20.8590345,61.6701655 Z" id="Fill-679" fill="#B2A8A8"></path>
                <path d="M101.843724,28.4208909 L100.996483,28.6651273 L95.8575172,30.0168909 C96.4126897,29.1947091 96.8688966,28.3507636 97.2575172,27.4560364 C97.329931,27.2625818 97.4264828,27.0908909 97.4964828,26.8974364 C98.2230345,27.1150727 98.9230345,27.3593091 99.6230345,27.5987091 C100.178207,27.7921636 100.757517,27.9856182 101.288552,28.2032545 C101.481655,28.2758 101.674759,28.3507636 101.843724,28.4208909" id="Fill-681" fill="#E5ECF6"></path>
                <path d="M95.7361034,26.3427055 C95.6636897,26.53616 95.5888621,26.7271964 95.4923103,26.9206509 C94.843,28.3497964 93.9981724,29.6290145 93.0085172,30.79216 L90.8843793,31.3459236 C90.6647241,31.2757964 90.4498966,31.2274327 90.2326552,31.1790691 C89.5543793,30.9856145 88.8543793,30.8163418 88.1567931,30.6712509 C84.8498966,29.9191964 81.4223103,29.3654327 77.8981724,29.0510691 C79.0567931,27.5759782 80.0464483,25.9557964 80.8188621,24.2147055 C80.9395517,23.9487055 81.0602414,23.6802873 81.180931,23.3901055 C85.6464483,23.8979236 89.9671379,24.7467055 94.1188621,25.8832509 C94.6740345,26.0283418 95.205069,26.1951964 95.7361034,26.3427055" id="Fill-683" fill="#E5ECF6"></path>
                <path d="M116.903862,36.2091291 L116.903862,36.35422 C116.759034,38.7724018 116.083172,41.0454927 114.996966,43.0767655 C114.996966,43.0767655 114.996966,43.1009473 114.972828,43.1009473 C114.516621,42.71162 114.079724,42.3754927 113.623517,42.0345291 C110.195931,39.4736745 106.331448,37.1981655 102.10731,35.3144018 C102.544207,33.42822 102.761448,31.4211291 102.664897,29.2689473 C102.664897,29.0754927 102.664897,28.9038018 102.640759,28.7345291 C107.299379,30.5481655 111.620069,32.7487109 115.530414,35.2878018 C115.986621,35.5779836 116.447655,35.8681655 116.903862,36.2091291" id="Fill-685" fill="#E5ECF6"></path>
                <path d="M130.493276,72.0944636 C130.493276,71.5141 130.469138,70.9095545 130.423276,70.3291909 C130.445,70.3509545 130.445,70.4017364 130.445,70.4259182 C130.469138,70.9821 130.493276,71.5382818 130.493276,72.0944636" id="Fill-687" fill="#B2A8A8"></path>
                <path d="M139.134897,73.3744073 C139.134897,84.0385891 134.623517,93.9289527 126.945241,102.078225 C114.444207,115.378225 93.4924828,124.086098 69.7890345,124.086098 C46.0831724,124.086098 25.1797241,115.404825 12.6545517,102.129007 C4.95213793,93.9555527 0.438344828,84.0651891 0.438344828,73.3744073 C0.438344828,66.1464618 2.5142069,59.2788255 6.23144828,53.0640982 C6.56937931,52.4813164 6.93144828,51.9009527 7.32006897,51.3230073 C7.48662069,51.0570073 7.67972414,50.7885891 7.87282759,50.5250073 C7.94524138,50.7184618 8.0417931,50.9094982 8.11662069,51.1029527 L8.11662069,51.1295527 C7.89937931,52.0944073 7.73041379,53.0858618 7.60972414,54.1014982 C7.12696552,58.11568 7.43834483,62.6400982 8.91317241,67.6699164 C9.00972414,68.0060436 9.13041379,68.3470073 9.24868966,68.6613709 C9.17627586,69.1933709 9.13041379,69.6987709 9.10627586,70.2307709 L9.10627586,70.2549527 C9.07972414,70.8594982 9.05558621,71.4906436 9.05558621,72.0951891 C9.05558621,74.6802255 9.36937931,77.2459164 9.99696552,79.7100436 L9.99696552,79.7366436 C15.0442069,100.071135 39.9062759,115.547498 69.7890345,115.547498 C99.6693793,115.547498 124.50731,100.071135 129.552138,79.7366436 L129.552138,79.7100436 C130.179724,77.2459164 130.493517,74.6802255 130.493517,72.0951891 C130.493517,71.5365891 130.469379,70.9828255 130.445241,70.4242255 C130.445241,70.4024618 130.445241,70.35168 130.423517,70.3274982 C130.445241,70.1340436 130.423517,69.9405891 130.399379,69.7471345 C130.372828,69.4327709 130.34869,69.0942255 130.302828,68.7580982 C130.302828,68.5646436 130.276276,68.3711891 130.252138,68.1777345 C130.252138,68.1269527 130.230414,68.0810073 130.230414,68.0060436 C130.230414,67.9600982 130.206276,67.8851345 130.206276,67.8125891 C130.206276,67.7424618 130.179724,67.6699164 130.155586,67.5949527 C130.109724,67.1379164 130.034897,66.7002255 129.938345,66.2431891 C129.938345,66.1464618 129.916621,66.0497345 129.890069,65.9530073 C129.890069,65.9022255 129.865931,65.8320982 129.841793,65.7813164 C129.841793,65.7353709 129.820069,65.6628255 129.795931,65.6120436 L129.795931,65.5660982 C129.795931,65.4451891 129.769379,65.32428 129.723517,65.2009527 C129.723517,65.0800436 129.699379,64.9833164 129.64869,64.8624073 C129.64869,64.7898618 129.626966,64.7439164 129.602828,64.6689527 C129.576276,64.5722255 129.552138,64.4537345 129.530414,64.3328255 C129.530414,64.2820436 129.506276,64.2360982 129.479724,64.1853164 C129.455586,64.0184618 129.409724,63.8491891 129.334897,63.6533164 C129.216621,63.1938618 129.095931,62.7126436 128.926966,62.2290073 C128.755586,61.6970073 128.562483,61.1384073 128.345241,60.6088255 C128.24869,60.3186436 128.128,60.0502255 128.009724,59.7600436 C127.985586,59.6899164 127.959034,59.6173709 127.913172,59.5424073 C127.838345,59.3247709 127.741793,59.1095527 127.645241,58.9160982 C127.599379,58.7951891 127.54869,58.67428 127.476276,58.5509527 C127.331448,58.1906436 127.162483,57.84968 126.969379,57.4893709 C126.945241,57.4144073 126.921103,57.3684618 126.899379,57.31768 C126.872828,57.2451345 126.824552,57.1750073 126.77869,57.1024618 C126.706276,56.9307709 126.609724,56.7639164 126.513172,56.5946436 C126.341793,56.2294982 126.14869,55.8933709 125.931448,55.5548255 C125.617655,54.9744618 125.255586,54.39168 124.871793,53.8113164 C124.821103,53.7145891 124.775241,53.6178618 124.702828,53.5477345 C124.389034,53.0399164 124.024552,52.5320982 123.664897,52.0484618 C123.592483,51.9275527 123.495931,51.8042255 123.396966,51.6833164 C123.300414,51.5406436 123.182138,51.3931345 123.061448,51.2504618 C123.010759,51.1754982 122.964897,51.1029527 122.914207,51.0328255 C122.793517,50.8611345 122.675241,50.7184618 122.554552,50.5709527 C122.40731,50.40168 122.289034,50.2565891 122.141793,50.0873164 C121.758,49.63028 121.371793,49.1684073 120.983172,48.7355527 C120.524552,48.2035527 120.044207,47.6957345 119.53731,47.1879164 C119.054552,46.70428 118.547655,46.1964618 118.014207,45.7128255 C117.483172,45.2267709 116.954552,44.7431345 116.396966,44.2860982 L116.396966,44.2594982 C116.423517,44.2353164 116.423517,44.2353164 116.447655,44.2111345 C117.579724,42.18228 118.330414,39.9067709 118.644207,37.4885891 L118.644207,37.4426436 C131.316621,46.5833709 139.134897,59.3247709 139.134897,73.3744073" id="Fill-689" fill="#E5ECF6"></path>
                <path d="M118.643483,37.4416764 L118.643483,37.49004 C118.32969,39.9082218 117.581414,42.1813127 116.446931,44.2125855 C116.422793,44.2367673 116.422793,44.2367673 116.396241,44.2585309 L116.396241,44.2851309 C115.964172,43.8982218 115.52969,43.5354945 115.071069,43.1727673 C116.203138,41.1414945 116.953828,38.8684036 117.267621,36.4502218 C117.726241,36.7645855 118.184862,37.1007127 118.643483,37.4416764" id="Fill-691" fill="#E8EAF6"></path>
                <path d="M122.55431,50.5716782 C122.675,50.7191873 122.79569,50.86186 122.913966,51.0311327 C122.868103,50.9827691 122.817414,50.9344055 122.771552,50.8860418 C122.699138,50.7651327 122.62431,50.6684055 122.55431,50.5716782" id="Fill-693" fill="#E8EAF6"></path>
                <path d="M130.493276,72.0944636 C130.493276,71.5141 130.469138,70.9095545 130.423276,70.3291909 C130.445,70.3509545 130.445,70.4017364 130.445,70.4259182 C130.469138,70.9821 130.493276,71.5382818 130.493276,72.0944636" id="Fill-695" fill="#E8EAF6"></path>
                <path d="M114.97331,43.09998 C112.80331,47.2592527 108.890552,50.4028891 104.231931,51.61198 C104.062966,51.6845255 103.869862,51.7087073 103.700897,51.7570709 C102.494,52.0230709 101.241241,52.1681618 99.9595172,52.1681618 L88.8802069,52.1681618 C90.7629655,51.0074345 92.5733103,49.6774345 94.2146897,48.2023436 C94.3836552,48.0572527 94.5526207,47.9121618 94.6998621,47.7428891 C98.1733103,44.5508891 100.852621,40.5850709 102.011241,35.7487073 L102.011241,35.7003436 C102.037793,35.5794345 102.083655,35.4343436 102.107793,35.3134345 C106.331931,37.1996164 110.196414,39.4727073 113.621586,42.03598 C114.080207,42.3745255 114.517103,42.7130709 114.97331,43.09998" id="Fill-697" fill="#FFFFFF"></path>
                <path d="M39.6154138,48.9754364 C39.0361034,49.4348909 38.4567931,49.9209455 37.8774828,50.4287636 C37.0085172,50.7890727 36.1395517,51.2001636 35.2947241,51.6596182 L35.3188621,50.1845273 C35.3188621,50.1845273 35.2223103,50.7407091 35.2223103,51.6838 C35.2223103,52.0489455 35.2440345,52.4818 35.2705862,52.9654364 L35.2705862,52.9896182 C34.2326552,54.1019818 33.243,55.3110727 32.3233448,56.6410727 C32.2267931,56.3025273 32.0843793,55.8696727 31.8188621,55.3352545 C31.6233448,54.9241636 31.3602414,54.4429455 31.0198966,53.9327091 C30.4912759,53.1371273 29.7671379,52.2158 28.8016207,51.1759818 C30.4671379,50.1845273 33.0257586,48.8085818 36.1395517,47.7179818 L36.1636897,47.7179818 C37.105069,47.9839818 38.480931,48.3467091 39.6154138,48.9754364" id="Fill-699" fill="#FFFFFF"></path>
                <path d="M90.8848621,31.3466491 L89.5307241,31.7093764 L70.7272759,36.7633764 L69.0134828,36.7633764 C72.0814138,34.8530127 74.9296897,32.6065218 77.1986552,29.89574 C77.4400345,29.62974 77.679,29.3395582 77.8986552,29.0517945 C81.4227931,29.3661582 84.8503793,29.9199218 88.1572759,30.6719764 C88.8548621,30.8146491 89.5548621,30.98634 90.2307241,31.1797945 C90.4479655,31.22574 90.6652069,31.2765218 90.8848621,31.3466491" id="Fill-701" fill="#FFFFFF"></path>
                <path d="M126.945724,102.078467 C118.521586,118.838885 96.0974483,130.833067 69.7871034,130.833067 C43.5033103,130.833067 21.1008966,118.860649 12.6526207,102.129249 C25.1802069,115.405067 46.0836552,124.08634 69.7871034,124.08634 C93.4929655,124.08634 114.442276,115.378467 126.945724,102.078467" id="Fill-703" fill="#92B4FC"></path>
                <path d="M122.987828,80.07398 C122.987828,93.4223436 112.511966,104.304162 99.3567931,104.981253 L99.2095517,104.981253 C98.8498966,105.005435 98.4636897,105.005435 98.0774828,105.005435 C97.4498966,105.005435 96.8223103,104.981253 96.1923103,104.932889 C96.2671379,104.860344 96.3395517,104.763616 96.3854138,104.666889 C97.8119655,102.804889 98.9705862,100.701071 99.7912759,98.4521618 C109.180931,97.6057982 116.518862,89.6959255 116.518862,80.07398 C116.518862,69.8692527 108.261276,61.5990709 98.0774828,61.5990709 C92.7647241,61.5990709 87.9878276,63.84798 84.6302414,67.4752527 C82.243,69.9901618 80.5992069,73.2063436 79.9498966,76.7852527 C79.7567931,77.8492527 79.6602414,78.9374345 79.6602414,80.07398 C79.6602414,84.6201618 81.2992069,88.7794345 84.005069,91.9956164 L76.2085172,91.9956164 C74.2774828,88.4408891 73.1912759,84.4025255 73.1912759,80.07398 C73.1912759,78.3328891 73.3578276,76.61598 73.7223103,74.9716164 C74.3498966,71.8521618 75.5785172,68.9261618 77.2947241,66.3628891 C81.7361034,59.59198 89.3878276,55.1401073 98.0774828,55.1401073 C98.4636897,55.1401073 98.8498966,55.1401073 99.2095517,55.1667073 L99.3567931,55.1667073 C112.511966,55.84138 122.987828,66.7231982 122.987828,80.07398" id="Fill-705" fill="#FDD505"></path>
                <path d="M125.401621,80.07398 C125.401621,93.8576164 114.249897,105.005435 100.491276,105.005435 C100.105069,105.005435 99.743,105.005435 99.3567931,104.981253 C112.511966,104.304162 122.987828,93.4223436 122.987828,80.07398 C122.987828,66.7231982 112.511966,55.84138 99.3567931,55.1667073 C99.743,55.1401073 100.105069,55.1401073 100.491276,55.1401073 C114.249897,55.1401073 125.401621,66.2903436 125.401621,80.07398" id="Fill-707" fill="#C3D6FF"></path>
                <path d="M89.5082759,91.9948909 C89.5082759,93.4216182 89.3393103,94.7999818 88.9772414,96.1058 C88.5427586,97.8468909 87.8427586,99.4670727 86.8772414,100.942164 C86.6841379,101.307309 86.4403448,101.643436 86.1772414,101.981982 C82.9668966,106.310527 77.7289655,109.115618 71.8151724,109.115618 C62.0151724,109.115618 54.097931,101.449982 54.097931,91.9948909 L89.5082759,91.9948909 Z" id="Fill-709" fill="#FEF7B9"></path>
                <path d="M101.167138,91.9948909 C101.019897,94.2462182 100.539552,96.4201636 99.7912759,98.4514364 C98.9705862,100.702764 97.8119655,102.806582 96.3878276,104.666164 C96.3395517,104.762891 96.2671379,104.859618 96.1923103,104.934582 C91.8257586,110.542345 85.0188621,114.145436 77.3888621,114.145436 C64.7912759,114.145436 54.4843793,104.375982 53.5912759,91.9948909 L54.0981724,91.9948909 C54.0981724,101.449982 62.0154138,109.115618 71.8154138,109.115618 C77.7292069,109.115618 82.9671379,106.310527 86.1774828,101.981982 C86.4405862,101.643436 86.6843793,101.307309 86.8774828,100.942164 C87.8405862,99.4670727 88.543,97.8468909 88.9774828,96.1058 C89.3395517,94.7999818 89.5085172,93.4216182 89.5085172,91.9948909 L101.167138,91.9948909 Z" id="Fill-711" fill="#FED60A"></path>
                <path d="M105.341793,80.7752527 C103.000414,81.40398 100.130414,79.3727073 100.130414,79.3727073 C101.458,76.2774345 103.775241,75.5277982 103.775241,75.5277982 C105.07869,75.1650709 106.575241,76.0597982 106.985586,77.5082891 C107.371793,78.9616164 106.645241,80.4125255 105.341793,80.7752527 M103.096966,86.3370709 C102.447655,86.8207073 101.672828,86.98998 100.996966,86.8932527 C100.393517,86.7965255 99.8407586,86.4821618 99.4762759,85.9719255 C98.0521379,84.0156164 98.9235172,80.5817982 98.9235172,80.5817982 C99.020069,80.5817982 99.1142069,80.5817982 99.2107586,80.60598 C102.375241,80.8477982 103.821103,82.6372527 103.821103,82.6372527 C104.617655,83.7254345 104.303862,85.4641073 103.096966,86.3370709 M96.3407586,74.0043436 C96.3407586,72.8436164 97.3304138,71.7554345 98.5590345,71.4894345 C98.7545517,71.4628345 98.9235172,71.4410709 99.1142069,71.4410709 C100.540759,71.4410709 101.721103,72.4325255 101.793517,73.7141618 C101.817655,73.7625255 101.817655,73.8350709 101.817655,73.8810164 C101.817655,76.2991982 99.1142069,78.5747073 99.1142069,78.5747073 C96.4831724,76.4467073 96.3407586,74.0043436 96.3407586,74.0043436 M97.0866207,85.5608345 C96.265931,86.6272527 94.5062759,86.8207073 93.3235172,85.9017982 C92.1383448,84.9828891 91.8486897,83.3868891 92.6693793,82.3228891 C94.165931,80.4125255 97.665931,80.2916164 97.665931,80.2916164 C98.4624828,83.5537436 97.0866207,85.5608345 97.0866207,85.5608345 M91.0062759,76.0597982 C91.6555862,74.7056164 93.1521379,74.0744709 94.3590345,74.6572527 C96.5555862,75.6946527 97.4269655,79.1308891 97.4269655,79.1308891 C94.4097241,80.60598 92.1383448,79.6628891 92.1383448,79.6628891 C90.9314483,79.0825255 90.3786897,77.41398 91.0062759,76.0597982 M98.0762759,61.5990709 C92.765931,61.5990709 87.9890345,63.84798 84.6314483,67.4752527 C82.2442069,69.9901618 80.6004138,73.2063436 79.9486897,76.7852527 C79.7555862,77.8492527 79.6590345,78.9374345 79.6590345,80.07398 C79.6590345,84.6201618 81.3004138,88.7794345 84.0038621,91.9956164 L101.168345,91.9956164 C101.021103,94.2445255 100.540759,96.4208891 99.790069,98.4521618 C109.182138,97.6057982 116.520069,89.6959255 116.520069,80.07398 C116.520069,69.8692527 108.262483,61.5990709 98.0762759,61.5990709" id="Fill-713" fill="#FCF8BB"></path>
                <path d="M21.1255172,61.4063418 C21.1013793,61.5030691 21.0531034,61.6239782 21.0289655,61.7207055 L21.0289655,61.7448873 C20.9806897,61.7207055 20.9082759,61.6965236 20.86,61.6699236 C20.9324138,61.5514327 21.0289655,61.4764691 21.1255172,61.4063418" id="Fill-715" fill="#CADBFF"></path>
                <path d="M58.2986552,43.6075564 C58.009,43.4141018 57.7434828,43.1964655 57.4779655,43.0030109" id="Fill-717" fill="#CADBFF"></path>
                <path d="M43.2597586,47.9598 C42.8252759,47.7421636 42.3907931,47.5027636 41.9804483,47.2101636 C41.5966552,46.9683455 41.2321724,46.6781636 40.8701034,46.3904 L42.0528621,47.1618 L43.2597586,47.9598 Z" id="Fill-719" fill="#CADBFF"></path>
                <path d="M27.0467931,54.0383836 C26.6364483,53.8207473 26.2502414,53.5813473 25.8905862,53.3395291" id="Fill-721" fill="#CADBFF"></path>
                <path d="M22.6056552,62.2611691 C22.0746207,62.0918964 21.5435862,61.8984418 21.0366897,61.7291691" id="Fill-723" fill="#CADBFF"></path>
                <line x1="7.87306897" y1="50.5245236" x2="7.87306897" y2="50.4979236" id="Fill-725" fill="#CADBFF"></line>
                <path d="M41.5954483,47.4522236 C40.9413103,47.9116782 40.2654483,48.4436782 39.6161379,48.9756782 C39.8551034,49.0965873 40.0723448,49.2416782 40.292,49.3867691 C40.7723448,49.1933145 41.2551034,49.0240418 41.762,48.8305873 C41.7861379,48.8088236 41.8126897,48.8088236 41.8368276,48.8088236 C42.0757931,48.7120964 42.2954483,48.6371327 42.5368276,48.5645873 C42.2471724,48.1776782 41.9333793,47.7931873 41.5954483,47.4522236 M32.324069,56.6413145 C32.1575172,56.8831327 31.9885517,57.1491327 31.8171724,57.3909509 C32.0102759,57.5360418 32.2275172,57.6569509 32.4206207,57.7294964 C32.4206207,57.7294964 32.4930345,57.3691873 32.324069,56.6413145" id="Fill-727" fill="#CADBFF"></path>
                <path d="M57.4760345,43.0030109 C57.4518966,43.0030109 57.4277586,42.9788291 57.4277586,42.9788291 C57.5025862,42.9546473 57.5725862,42.9304655 57.6691379,42.9304655 C57.5991379,42.9304655 57.5484483,42.9546473 57.4760345,43.0030109 L57.4760345,43.0030109 Z M43.2587931,47.9602836 C42.8267241,47.7426473 42.3898276,47.5008291 41.9794828,47.2106473 C41.9794828,47.2348291 41.9553448,47.2348291 41.9553448,47.2348291 C41.837069,47.2831927 41.7163793,47.37992 41.5956897,47.4524655 C41.9336207,47.7910109 42.245,48.17792 42.537069,48.5648291 C42.2956897,48.6373745 42.0760345,48.70992 41.837069,48.8066473 C41.812931,48.8066473 41.7863793,48.8066473 41.7622414,48.8308291 C41.2553448,49.0242836 40.7725862,49.1935564 40.2922414,49.3870109 C40.1956897,49.4353745 40.0991379,49.4595564 40.0025862,49.50792 C39.2784483,49.7981018 38.5784483,50.0882836 37.8784483,50.4268291 C36.9853448,51.2006473 36.1139655,52.0470109 35.2715517,52.96592 L35.2715517,52.9901018 C34.2312069,54.1024655 33.2439655,55.3115564 32.3243103,56.6415564 C32.4932759,57.3670109 32.4208621,57.7297382 32.4208621,57.7297382 C32.2277586,57.6571927 32.0105172,57.5362836 31.8174138,57.3911927 C30.1036207,60.0511927 28.7543103,63.07392 27.9794828,66.5077382 L27.9794828,66.53192 C26.8932759,71.2715564 26.9439655,76.7124655 28.7760345,83.0722836 C28.9232759,83.6042836 29.1139655,84.1121018 29.3336207,84.61992 C29.6232759,85.2728291 30.1301724,86.2884655 30.8301724,87.5217382 L25.6863793,86.0708291 C25.6863793,86.0708291 19.1956897,75.1164655 20.5208621,64.4764655 C20.6174138,63.5575564 20.7887931,62.6386473 21.0277586,61.74392 C20.9818966,61.7197382 20.9094828,61.6955564 20.8587931,61.6713745 C20.9312069,61.5504655 21.0277586,61.47792 21.1243103,61.4053745 C21.9232759,58.5277382 23.4198276,55.7710109 25.8794828,53.3286473 C26.0967241,53.1351927 26.3405172,52.8691927 26.6060345,52.6757382 C26.6060345,52.6757382 26.6518966,52.6031927 26.7508621,52.5548291 C27.2794828,53.23192 28.1267241,54.1991927 29.0439655,55.1422836 C29.4301724,55.5533745 29.8646552,55.9402836 30.2725862,56.3030109 C30.7794828,56.7141018 31.3105172,57.1010109 31.8174138,57.3911927 C31.9863793,57.1493745 32.1577586,56.8833745 32.3243103,56.6415564 C32.2277586,56.3030109 32.082931,55.8677382 31.8174138,55.3357382 C31.6243103,54.9246473 31.3612069,54.4410109 31.0208621,53.9331927 C30.4898276,53.1351927 29.7681034,52.2162836 28.8001724,51.1764655 C30.4681034,50.1850109 33.0243103,48.8066473 36.1381034,47.7184655 L36.1646552,47.7184655 C37.1060345,47.9844655 38.4818966,48.3471927 39.6163793,48.97592 C40.2656897,48.44392 40.9415517,47.91192 41.5956897,47.4524655 C41.2336207,47.0897382 40.845,46.7753745 40.5094828,46.4851927 C40.6301724,46.4368291 40.7484483,46.4126473 40.8691379,46.3884655 C40.9198276,46.3884655 40.9415517,46.3642836 40.9922414,46.3642836 C41.812931,46.1950109 42.8991379,46.0257382 44.2001724,45.7355564 C43.5025862,46.1708291 42.8025862,46.6544655 42.0518966,47.1622836 L43.2587931,47.9602836 Z M115.069138,43.1722836 C115.047414,43.1481018 114.996724,43.12392 114.972586,43.0997382 C112.802586,47.2590109 108.892241,50.4026473 104.231207,51.6117382 C104.064655,51.6842836 103.871552,51.7084655 103.700172,51.7568291 C102.493276,52.0228291 101.240517,52.16792 99.9612069,52.16792 L88.8818966,52.16792 C90.7622414,51.0071927 92.5725862,49.6771927 94.2163793,48.2021018 C94.382931,48.0570109 94.5518966,47.91192 94.6991379,47.7426473 C98.1725862,44.5506473 100.85431,40.5848291 102.010517,35.7484655 L102.010517,35.7001018 C102.037069,35.5791927 102.082931,35.4341018 102.107069,35.3131927 C102.543966,33.4270109 102.761207,31.41992 102.664655,29.2677382 C102.664655,29.0742836 102.664655,28.9050109 102.640517,28.7357382 C102.640517,28.5664655 102.613966,28.3971927 102.613966,28.2037382 L101.843966,28.4213745 L100.996724,28.6631927 L95.8553448,30.0173745 C96.412931,29.1951927 96.8691379,28.3488291 97.2553448,27.4541018 C97.3301724,27.2606473 97.4267241,27.0913745 97.4967241,26.89792 C96.9656897,26.7044655 96.437069,26.5351927 95.8794828,26.3901018 C95.8336207,26.36592 95.782931,26.36592 95.737069,26.3417382 C95.6622414,26.5351927 95.5898276,26.7286473 95.4932759,26.9221018 C94.8415517,28.3488291 93.9991379,29.6304655 93.0094828,30.7911927 C92.7415517,31.1055564 92.4760345,31.41992 92.1887931,31.7101018 L90.8853448,31.3473745 L89.5312069,31.7101018 L70.7277586,36.7641018 L69.0139655,36.7641018 C72.0818966,34.8537382 74.9277586,32.6048291 77.1991379,29.8964655 C77.4405172,29.6304655 77.6794828,29.3402836 77.8991379,29.0501018 C79.0553448,27.5750109 80.0474138,25.9548291 80.8198276,24.2137382 C80.9405172,23.9477382 81.0612069,23.6817382 81.1794828,23.3915564 C80.6001724,23.2948291 80.0232759,23.2222836 79.4439655,23.17392 C77.4863793,22.9562836 75.5312069,22.8111927 73.5277586,22.7628291 C73.1656897,22.7386473 72.7818966,22.7144655 72.3956897,22.7144655 C71.5243103,22.6661018 70.6577586,22.6661018 69.7887931,22.6661018 C68.4346552,22.6661018 67.107069,22.6902836 65.8036207,22.7628291 C65.2508621,22.7870109 64.7174138,22.8111927 64.1646552,22.8595564 C58.2991379,23.17392 52.6001724,24.0686473 47.2439655,25.4228291 C46.8577586,25.5195564 46.4691379,25.6162836 46.082931,25.7130109 C43.7656897,26.3175564 41.4991379,27.0188291 39.3025862,27.8410109 L39.2784483,27.8410109 C39.1094828,27.8893745 38.9381034,27.9377382 38.7691379,28.0102836 C37.9025862,28.3246473 37.0312069,28.6631927 36.1887931,29.0017382 C35.7784483,29.1710109 35.3922414,29.3402836 34.9818966,29.5095564 C34.2818966,29.7997382 33.6036207,30.08992 32.9543103,30.4042836 C32.5898276,30.5735564 32.2277586,30.7428291 31.8681034,30.9121018 C31.1174138,31.2748291 30.3715517,31.6375564 29.6474138,32.0486473 C29.4760345,32.1211927 29.3336207,32.1937382 29.1646552,32.2904655 C27.1587931,33.3302836 25.2060345,34.4668291 23.3691379,35.7242836 C23.1518966,35.8451927 22.9587931,35.9902836 22.7415517,36.1353745 C20.3784483,37.7313745 18.1818966,39.4241018 16.1277586,41.2861018 C15.8646552,41.5037382 15.5967241,41.7213745 15.3577586,41.9631927 C12.7725862,44.3571927 10.4794828,46.9204655 8.50258621,49.6530109 L8.47603448,49.6771927 C8.33362069,50.1366473 8.21293103,50.6202836 8.11637931,51.10392 L8.11637931,51.1281018 C7.89913793,52.0953745 7.73017241,53.0868291 7.60948276,54.1024655 C7.12672414,58.1166473 7.44051724,62.6386473 8.91293103,67.6684655 C9.00948276,68.0070109 9.13017241,68.3455564 9.25086207,68.65992 C9.32327586,68.8533745 9.39327586,69.0226473 9.46568966,69.2161018 C9.68293103,69.7481018 10.0474138,70.4251927 10.4794828,71.2715564 L10.4794828,71.2957382 C10.8898276,72.0695564 11.4232759,72.91592 12.0267241,73.8831927 C12.3646552,74.3910109 12.7267241,74.9471927 13.137069,75.5275564 C15.575,78.9855564 19.2415517,83.1206473 24.5301724,86.8446473 L26.7508621,96.5657382 C26.7508621,96.5657382 29.1646552,92.7691927 32.7612069,90.5444655 C35.175,94.0508291 38.9163793,98.3793745 44.3932759,102.248465 L46.6139655,111.969556 C46.6139655,111.969556 50.7681034,105.464647 56.2208621,104.521556 L45.5543103,101.450465 C45.5543103,101.450465 37.9025862,88.5615564 40.8956897,77.1477382 L40.8956897,77.1235564 C41.6656897,74.1250109 43.1863793,71.2715564 45.7474138,68.7324655 C45.9622414,68.5390109 46.2036207,68.2730109 46.4691379,68.0553745 C46.4691379,68.0553745 46.5198276,68.0070109 46.6139655,67.9586473 C47.7967241,69.45792 50.2346552,72.2146473 52.2887931,73.1335564 C52.2887931,73.1335564 52.745,70.9813745 48.6681034,66.5802836 C50.3312069,65.5888291 52.8922414,64.2104655 56.0060345,63.1222836 L56.0277586,63.1222836 C57.6232759,63.5091927 60.4232759,64.3797382 61.1932759,65.8548291 C62.2553448,67.9586473 61.9439655,69.8931927 61.9439655,69.8931927 C61.9439655,69.8931927 63.8508621,67.8135564 63.1267241,65.3953745 C62.6898276,63.9686473 61.3863793,62.6870109 60.3725862,61.9131927 C60.4932759,61.8406473 60.6163793,61.8164655 60.737069,61.7922836 C60.782931,61.7922836 60.8094828,61.7681018 60.8553448,61.7681018 C63.7543103,61.21192 69.8853448,60.0995564 76.5956897,57.8264655 C79.637069,56.7866473 82.7725862,55.5050109 85.7898276,53.9331927 C85.8646552,53.9815564 85.9346552,53.9815564 86.007069,53.9815564 L99.9612069,53.9815564 C102.131207,53.9815564 104.231207,53.6188291 106.164655,52.96592 C106.285345,52.9175564 106.406034,52.8691927 106.52431,52.8208291 C110.748448,51.2248291 114.250862,48.17792 116.396724,44.2846473 C115.962241,43.8977382 115.530172,43.5350109 115.069138,43.1722836 L115.069138,43.1722836 Z" id="Fill-729" fill="#CADBFF"></path>
                <path d="M48.1368276,46.6068273 C48.2333793,46.6310091 48.329931,46.6769545 48.424069,46.7035545 L48.3782069,46.7035545 C48.3033793,46.6769545 48.2333793,46.6310091 48.1368276,46.6068273" id="Fill-731" fill="#CED3FC"></path>
                <path d="M32.4211034,57.7294964 C32.228,57.6569509 32.0107586,57.5360418 31.8176552,57.3909509 C31.9866207,57.1491327 32.158,56.8831327 32.3245517,56.6413145 C32.4935172,57.3691873 32.4211034,57.7294964 32.4211034,57.7294964" id="Fill-733" fill="#CED3FC"></path>
                <path d="M57.4289655,42.9795545 C57.4289655,42.9795545 57.4531034,43.0037364 57.4772414,43.0037364 C57.5496552,42.9553727 57.597931,42.9287727 57.6703448,42.9287727 C57.5737931,42.9287727 57.5013793,42.9553727 57.4289655,42.9795545" id="Fill-735" fill="#CED3FC"></path>
                <path d="M57.6693793,42.9299818 C57.5993793,42.9299818 57.5486897,42.9565818 57.4762759,43.0025273 C57.4521379,43.0025273 57.428,42.9807636 57.428,42.9807636 C57.5028276,42.9565818 57.5728276,42.9299818 57.6693793,42.9299818" id="Fill-737" fill="#CED3FC"></path>
                <path d="M48.1368276,46.6068273 C48.2333793,46.6310091 48.329931,46.6769545 48.424069,46.7035545 L48.3782069,46.7035545 C48.3033793,46.6769545 48.2333793,46.6310091 48.1368276,46.6068273" id="Fill-739" fill="#CED3FC"></path>
                <path d="M57.6693793,42.9299818 C57.5993793,42.9299818 57.5486897,42.9565818 57.4762759,43.0025273 C57.4521379,43.0025273 57.428,42.9807636 57.428,42.9807636 C57.5028276,42.9565818 57.5728276,42.9299818 57.6693793,42.9299818" id="Fill-741" fill="#CED3FC"></path>
                <path d="M63.1216552,63.3757091 C62.2551034,62.9404364 61.4585517,62.4108545 60.732,61.8063091 L63.1216552,63.3757091 Z" id="Fill-743" fill="#CED3FC"></path>
                <path d="M35.3181379,50.1845273 L35.294,51.6596182 L35.2698621,52.9654364 C35.2457241,52.4818 35.2215862,52.0489455 35.2215862,51.6838 C35.2215862,50.7407091 35.3181379,50.1845273 35.3181379,50.1845273" id="Fill-745" fill="#CED3FC"></path>
                <path d="M42.0528621,47.1618 C42.0287241,47.1884 42.0045862,47.1884 41.9804483,47.2125818 C42.3907931,47.5027636 42.8252759,47.7421636 43.2597586,47.9598 L42.0528621,47.1618 Z M41.5966552,47.4519818 C40.9425172,47.9138545 40.2666552,48.4434364 39.614931,48.9754364 C39.0356207,49.4348909 38.4563103,49.9209455 37.8794138,50.4287636 C38.5794138,50.0878 39.2794138,49.7976182 40.0011379,49.5098545 C40.0976897,49.4590727 40.1942414,49.4348909 40.2932069,49.3865273 C40.7735517,49.1930727 41.2563103,49.0262182 41.7632069,48.8303455 C41.7873448,48.8085818 41.8114828,48.8085818 41.8356207,48.8085818 C42.077,48.7118545 42.2966552,48.6368909 42.5356207,48.5643455 C42.2459655,48.1774364 41.9321724,47.7929455 41.5966552,47.4519818 L41.5966552,47.4519818 Z" id="Fill-747" fill="#CED3FC"></path>
                <path d="M117.266897,36.44998 C117.146207,36.3532527 117.025517,36.2807073 116.904828,36.2081618 L116.904828,36.3532527 C116.76,38.7714345 116.084138,41.0445255 114.997931,43.0757982 C114.997931,43.0757982 114.997931,43.09998 114.973793,43.09998 C114.997931,43.1241618 115.046207,43.1483436 115.070345,43.1725255 C115.528966,43.5352527 115.963448,43.89798 116.397931,44.2848891 L116.397931,44.2582891 C116.422069,44.2365255 116.422069,44.2365255 116.446207,44.2123436 C117.58069,42.1810709 118.328966,39.90798 118.642759,37.4897982 L118.642759,37.4414345 C118.184138,37.1028891 117.725517,36.7643436 117.266897,36.44998 L117.266897,36.44998 Z M90.8841379,31.3476164 L92.1875862,31.7103436 C92.4748276,31.4201618 92.7427586,31.1057982 93.0082759,30.7914345 L90.8841379,31.3476164 Z" id="Fill-749" fill="#CED3FC"></path>
                <path d="M56.6321724,83.7249509 C56.6321724,85.2242236 55.9080345,86.5542236 54.7735517,87.3764055 C54.4114828,87.6424055 54.0252759,87.8600418 53.614931,87.9809509 C53.1321724,88.1744055 52.6011379,88.2711327 52.0701034,88.2711327 C49.5838966,88.2711327 47.5321724,86.23986 47.5321724,83.7249509 C47.5321724,81.2100418 49.5838966,79.1787691 52.0701034,79.1787691 C53.4459655,79.1787691 54.677,79.7833145 55.4976897,80.7530055 C56.1252759,81.4276782 56.5114828,82.2982236 56.5838966,83.2679145 C56.6321724,83.4105873 56.6321724,83.57986 56.6321724,83.7249509" id="Fill-751" fill="#E3433A"></path>
                <path d="M64.2107586,76.8575564 C64.2107586,78.2842836 63.0545517,79.4450109 61.6304138,79.4450109 C61.0969655,79.4450109 60.6166207,79.29992 60.2062759,79.03392 C59.5062759,78.5744655 59.0235172,77.7764655 59.0235172,76.8575564 C59.0235172,75.4308291 60.1797241,74.2701018 61.6304138,74.2701018 C62.9338621,74.2701018 64.020069,75.2615564 64.1866207,76.5190109 C64.2107586,76.63992 64.2107586,76.7366473 64.2107586,76.8575564" id="Fill-753" fill="#DD4437"></path>
                <path d="M101.817655,73.8822255 C101.817655,76.3004073 99.1142069,78.5734982 99.1142069,78.5734982 C96.4831724,76.4479164 96.3383448,74.0055527 96.3383448,74.0055527 C96.3383448,72.8424073 97.3304138,71.7542255 98.5590345,71.4906436 C98.7521379,71.4640436 98.9235172,71.4398618 99.1142069,71.4398618 C100.540759,71.4398618 101.721103,72.4313164 101.793517,73.7153709 C101.817655,73.7613164 101.817655,73.8338618 101.817655,73.8822255" id="Fill-755" fill="#FDFFFB"></path>
                <path d="M105.341793,80.7752527 C103.000414,81.40398 100.130414,79.3727073 100.130414,79.3727073 C101.458,76.2774345 103.775241,75.5277982 103.775241,75.5277982 C105.07869,75.1650709 106.575241,76.0597982 106.985586,77.5082891 C107.371793,78.9616164 106.645241,80.4125255 105.341793,80.7752527" id="Fill-757" fill="#FDFFFB"></path>
                <path d="M103.09769,86.3368291 C102.445966,86.8204655 101.673552,86.9921564 100.99769,86.8930109 C100.394241,86.7962836 99.839069,86.4843382 99.477,85.9741018 C98.0528621,84.0153745 98.9242414,80.5815564 98.9242414,80.5815564 C99.0207931,80.5815564 99.114931,80.5815564 99.2114828,80.6057382 C102.373552,80.8475564 103.821828,82.6370109 103.821828,82.6370109 C104.618379,83.7251927 104.304586,85.4662836 103.09769,86.3368291" id="Fill-759" fill="#FDFFFB"></path>
                <path d="M97.0868621,85.5620436 C96.2661724,86.6260436 94.5065172,86.8219164 93.3213448,85.9030073 C92.1385862,84.9840982 91.848931,83.3880982 92.6696207,82.32168 C94.1661724,80.4113164 97.6661724,80.2904073 97.6661724,80.2904073 C98.4627241,83.5549527 97.0868621,85.5620436 97.0868621,85.5620436" id="Fill-761" fill="#FDFFFB"></path>
                <path d="M97.4262414,79.1318564 C94.409,80.6045291 92.1400345,79.6638564 92.1400345,79.6638564 C90.9331379,79.0810745 90.3779655,77.4149473 91.0055517,76.0583473 C91.6548621,74.7065836 93.1514138,74.0754382 94.3583103,74.6558018 C96.5572759,75.69562 97.4262414,79.1318564 97.4262414,79.1318564" id="Fill-763" fill="#FDFFFB"></path>
                <path d="M29.5358966,34.5630727 C29.5358966,36.6668909 27.8221034,38.3596182 25.7462414,38.3596182 C23.6462414,38.3596182 21.9541724,36.6668909 21.9541724,34.5630727 C21.9541724,32.4592545 23.6462414,30.7689455 25.7462414,30.7689455 C27.8221034,30.7689455 29.5358966,32.4592545 29.5358966,34.5630727" id="Fill-765" fill="#FFFFFF"></path>
                <path d="M35.0637241,88.8754364 C29.6061379,89.8427091 25.4568276,96.3476182 25.4568276,96.3476182 L23.2361379,86.6047636 C13.6533793,79.8798 9.37855172,71.6579818 8.17165517,68.9979818 C7.95682759,68.4901636 7.76131034,67.9823455 7.61889655,67.4527636 C5.782,61.0929455 5.73613793,55.6254364 6.82234483,50.9124 C8.02924138,53.8118 11.2130345,58.3579818 19.7337241,61.5040364 C16.7406207,72.9396182 24.3923448,85.8285273 24.3923448,85.8285273 L35.0637241,88.8754364 Z" id="Fill-767" fill="#F07E2B"></path>
                <path d="M24.5856897,53.1102855 C22.027069,55.6517945 20.5087931,58.5270127 19.7339655,61.5037945 C11.2132759,58.35774 8.02948276,53.8115582 6.82258621,50.9121582 L6.82258621,50.8855582 C8.0512069,45.3479218 10.8294828,40.8742855 14.1098276,37.34374 C14.3994828,41.0701582 16.1881034,47.8628309 24.5856897,53.1102855" id="Fill-769" fill="#DE4638"></path>
                <path d="M36.848,31.3962218 C35.7135172,31.3962218 34.7962759,30.4773127 34.7962759,29.3383491 C34.7962759,28.18004 35.7135172,27.2611309 36.848,27.2611309 C38.0066207,27.2611309 38.9238621,28.18004 38.9238621,29.3383491 C38.9238621,30.4773127 38.0066207,31.3962218 36.848,31.3962218 M45.7066207,22.1805309 L33.9514483,25.3265855 C33.010069,25.5684036 32.0928276,25.8585855 31.1755862,26.1729491 C31.4676552,30.2596764 32.8893793,40.8247127 39.5755862,46.1688945 C39.6238621,46.1688945 39.648,46.1471309 39.6986897,46.1471309 C42.5928276,45.5909491 48.7238621,44.4785855 55.4342069,42.2054945 C46.7686897,35.1927673 45.7548966,25.6893127 45.7066207,22.1805309" id="Fill-771" fill="#DE4638"></path>
                <path d="M38.9248276,29.3393164 C38.9248276,30.47828 38.0075862,31.3971891 36.8489655,31.3971891 C35.7144828,31.3971891 34.7972414,30.47828 34.7972414,29.3393164 C34.7972414,28.1810073 35.7144828,27.2620982 36.8489655,27.2620982 C38.0075862,27.2620982 38.9248276,28.1810073 38.9248276,29.3393164" id="Fill-773" fill="#FFFFFF"></path>
                <path d="M72.5245862,24.0212509 C72.5245862,26.3161055 70.6659655,28.1563418 68.3728621,28.1563418 C66.0797586,28.1563418 64.2211379,26.3161055 64.2211379,24.0212509 C64.2211379,21.7239782 66.0797586,19.85956 68.3728621,19.85956 C70.6659655,19.85956 72.5245862,21.7239782 72.5245862,24.0212509" id="Fill-775" fill="#1C404F"></path>
                <path d="M72.5245862,24.0212509 C72.5245862,26.3161055 70.6659655,28.1563418 68.3728621,28.1563418 C66.0797586,28.1563418 64.2211379,26.3161055 64.2211379,24.0212509 C64.2211379,21.7239782 66.0797586,19.85956 68.3728621,19.85956 C70.6659655,19.85956 72.5245862,21.7239782 72.5245862,24.0212509" id="Fill-777" fill="#1C404F"></path>
                <path d="M29.5358966,34.5630727 C29.5358966,36.6668909 27.8221034,38.3596182 25.7462414,38.3596182 C23.6462414,38.3596182 21.9541724,36.6668909 21.9541724,34.5630727 C21.9541724,32.4592545 23.6462414,30.7689455 25.7462414,30.7689455 C27.8221034,30.7689455 29.5358966,32.4592545 29.5358966,34.5630727" id="Fill-779" fill="#FFFFFF"></path>
                <path d="M38.9248276,29.3393164 C38.9248276,30.47828 38.0075862,31.3971891 36.8489655,31.3971891 C35.7144828,31.3971891 34.7972414,30.47828 34.7972414,29.3393164 C34.7972414,28.1810073 35.7144828,27.2620982 36.8489655,27.2620982 C38.0075862,27.2620982 38.9248276,28.1810073 38.9248276,29.3393164" id="Fill-781" fill="#FFFFFF"></path>
                <path d="M25.7455172,38.3603436 C23.6455172,38.3603436 21.9558621,36.6676164 21.9558621,34.5637982 C21.9558621,32.45998 23.6455172,30.7672527 25.7455172,30.7672527 C27.8213793,30.7672527 29.5351724,32.45998 29.5351724,34.5637982 C29.5351724,36.6676164 27.8213793,38.3603436 25.7455172,38.3603436 M41.9662069,49.7741618 C41.5317241,48.3474345 40.2282759,47.0657982 39.2144828,46.2677982 C39.3351724,46.2194345 39.4558621,46.1952527 39.5741379,46.1686527 C32.8903448,40.8268891 31.4662069,30.2594345 31.1765517,26.1727073 C29.7258621,26.6805255 28.3041379,27.2850709 26.9282759,27.9621618 C23.3317241,29.7516164 18.3351724,32.7743436 14.1110345,37.3447073 C14.4006897,41.0687073 16.1868966,47.8637982 24.5868966,53.1112527 C24.8041379,52.8936164 25.0455172,52.6517982 25.3110345,52.4341618 C25.3110345,52.4341618 25.3593103,52.3857982 25.4558621,52.3374345 C26.6386207,53.8125255 29.0765517,56.5934345 31.1258621,57.5123436 C31.1258621,57.5123436 31.5868966,55.33598 27.5051724,50.9590709 C29.1731034,49.9676164 31.7293103,48.5868345 34.8455172,47.5010709 L34.8696552,47.5010709 C36.4603448,47.88798 39.2627586,48.7585255 40.0351724,50.2336164 C41.0972414,52.3132527 40.7810345,54.2477982 40.7810345,54.2477982 C40.7810345,54.2477982 42.6903448,52.1923436 41.9662069,49.7741618" id="Fill-783" fill="#F07E2B"></path>
                <path d="M64.2201724,24.0212509 C64.2201724,21.7239782 66.0812069,19.85956 68.3743103,19.85956 C70.6674138,19.85956 72.5236207,21.7239782 72.5236207,24.0212509 C72.5236207,26.3161055 70.6674138,28.1563418 68.3743103,28.1563418 C66.0812069,28.1563418 64.2201724,26.3161055 64.2201724,24.0212509 M78.7994828,0.637432727 L64.8501724,0.637432727 C64.3674138,0.637432727 63.957069,1.04852364 63.957069,1.52974182 C63.957069,2.03756 64.3674138,2.45106909 64.8501724,2.45106909 L78.7994828,2.45106909 C88.1915517,2.45106909 95.8191379,10.0901055 95.8191379,19.4992509 C95.8191379,28.9059782 88.1915517,36.5474327 78.7994828,36.5474327 L67.7201724,36.5474327 C75.8546552,31.5176145 82.2753448,23.9487055 81.457069,12.5832509 L45.7063793,22.1810145 C45.757069,25.6873782 46.7708621,35.1932509 55.4339655,42.2059782 C58.4753448,41.16616 61.6156897,39.8845236 64.632931,38.3102873 C64.702931,38.3610691 64.7753448,38.3610691 64.8501724,38.3610691 L78.7994828,38.3610691 C89.2053448,38.3610691 97.6294828,29.8974327 97.6294828,19.4992509 C97.6294828,9.10106909 89.2053448,0.637432727 78.7994828,0.637432727" id="Fill-785" fill="#F07E2B"></path>
                <path d="M48.3465862,49.2351491 C48.3465862,51.3389673 46.6327931,53.0316945 44.5593448,53.0316945 C42.4593448,53.0316945 40.7672759,51.3389673 40.7672759,49.2351491 C40.7672759,47.1313309 42.4593448,45.4386036 44.5593448,45.4386036 C46.6327931,45.4386036 48.3465862,47.1313309 48.3465862,49.2351491" id="Fill-787" fill="#FFFFFF"></path>
                <path d="M53.8741724,103.547271 C48.419,104.514544 44.2696897,111.019453 44.2696897,111.019453 L42.049,101.27418 C32.4638276,94.5516345 28.1914138,86.3298164 26.9845172,83.6698164 C26.7696897,83.1619982 26.5741724,82.65418 26.4293448,82.12218 C24.5948621,75.7623618 24.549,70.2972709 25.6327931,65.5818164 C26.8396897,68.4836345 30.0258966,73.0298164 38.5465862,76.1734527 C35.5534828,87.6114527 43.2052069,100.500362 43.2052069,100.500362 L53.8741724,103.547271 Z" id="Fill-789" fill="#F07E2B"></path>
                <path d="M43.3987931,67.7823618 C40.8401724,70.3214527 39.3218966,73.1990891 38.547069,76.1734527 C30.0263793,73.0298164 26.8401724,68.4836345 25.6332759,65.5818164 L25.6332759,65.5576345 C26.8643103,60.0199982 29.6401724,55.5463618 32.922931,52.0158164 C33.2125862,55.7398164 35.0012069,62.5349073 43.3987931,67.7823618" id="Fill-791" fill="#DE4638"></path>
                <path d="M55.6611034,46.06588 C54.5266207,46.06588 53.6093793,45.1469709 53.6093793,44.0104255 C53.6093793,42.8521164 54.5266207,41.9307891 55.6611034,41.9307891 C56.8197241,41.9307891 57.7369655,42.8521164 57.7369655,44.0104255 C57.7369655,45.1469709 56.8197241,46.06588 55.6611034,46.06588 M64.5197241,36.8526073 L52.7645517,39.9962436 C51.8231724,40.24048 50.905931,40.5306618 49.9886897,40.8450255 C50.2807586,44.9293345 51.7024828,55.4967891 58.3886897,60.8409709 C58.4369655,60.8409709 58.4611034,60.8192073 58.5093793,60.8192073 C61.405931,60.2606073 67.5369655,59.1482436 74.2473103,56.8775709 C65.5817931,49.8624255 64.568,40.3613891 64.5197241,36.8526073" id="Fill-793" fill="#DE4638"></path>
                <path d="M57.7376897,44.0113927 C57.7376897,45.1479382 56.8204483,46.0668473 55.6618276,46.0668473 C54.5273448,46.0668473 53.6101034,45.1479382 53.6101034,44.0113927 C53.6101034,42.8530836 54.5273448,41.9317564 55.6618276,41.9317564 C56.8204483,41.9317564 57.7376897,42.8530836 57.7376897,44.0113927" id="Fill-795" fill="#FFFFFF"></path>
                <path d="M91.3374483,38.6909091 C91.3374483,40.9881818 89.4764138,42.826 87.1833103,42.826 C84.8926207,42.826 83.034,40.9881818 83.034,38.6909091 C83.034,36.3936364 84.8926207,34.5316364 87.1833103,34.5316364 C89.4764138,34.5316364 91.3374483,36.3936364 91.3374483,38.6909091" id="Fill-797" fill="#1C404F"></path>
                <path d="M91.3374483,38.6909091 C91.3374483,40.9881818 89.4764138,42.826 87.1833103,42.826 C84.8926207,42.826 83.034,40.9881818 83.034,38.6909091 C83.034,36.3936364 84.8926207,34.5316364 87.1833103,34.5316364 C89.4764138,34.5316364 91.3374483,36.3936364 91.3374483,38.6909091" id="Fill-799" fill="#1C404F"></path>
                <path d="M48.3465862,49.2351491 C48.3465862,51.3389673 46.6327931,53.0316945 44.5593448,53.0316945 C42.4593448,53.0316945 40.7672759,51.3389673 40.7672759,49.2351491 C40.7672759,47.1313309 42.4593448,45.4386036 44.5593448,45.4386036 C46.6327931,45.4386036 48.3465862,47.1313309 48.3465862,49.2351491" id="Fill-801" fill="#FFFFFF"></path>
                <path d="M57.7376897,44.0113927 C57.7376897,45.1479382 56.8204483,46.0668473 55.6618276,46.0668473 C54.5273448,46.0668473 53.6101034,45.1479382 53.6101034,44.0113927 C53.6101034,42.8530836 54.5273448,41.9317564 55.6618276,41.9317564 C56.8204483,41.9317564 57.7376897,42.8530836 57.7376897,44.0113927" id="Fill-803" fill="#FFFFFF"></path>
                <path d="M44.5586207,53.03242 C42.4586207,53.03242 40.7689655,51.3396927 40.7689655,49.2358745 C40.7689655,47.1320564 42.4586207,45.4369109 44.5586207,45.4369109 C46.632069,45.4369109 48.3458621,47.1320564 48.3458621,49.2358745 C48.3458621,51.3396927 46.632069,53.03242 44.5586207,53.03242 M60.7793103,64.4462382 C60.3448276,63.0195109 59.0413793,61.7378745 58.0275862,60.9398745 C58.1482759,60.8915109 58.2689655,60.8649109 58.3872414,60.8407291 C51.7034483,55.4989655 50.2793103,44.9290927 49.9896552,40.8447836 C48.5389655,41.3526018 47.1172414,41.9571473 45.7389655,42.63182 C42.1448276,44.4212745 37.1482759,47.4440018 32.9241379,52.0167836 C33.2137931,55.7383655 35,62.5358745 43.4,67.7833291 C43.6148276,67.5656927 43.8586207,67.3214564 44.1217241,67.10382 C44.1217241,67.10382 44.1724138,67.0578745 44.2689655,67.0070927 C45.4517241,68.4846018 47.8896552,71.2655109 49.9389655,72.18442 C49.9389655,72.18442 50.4,70.0080564 46.3182759,65.6311473 C47.9862069,64.6396927 50.5424138,63.2589109 53.6586207,62.1707291 L53.6803448,62.1707291 C55.2734483,62.5576382 58.0758621,63.4306018 58.8482759,64.9032745 C59.907931,66.9853291 59.5941379,68.9174564 59.5941379,68.9174564 C59.5941379,68.9174564 61.5034483,66.86442 60.7793103,64.4462382" id="Fill-805" fill="#F07E2B"></path>
                <path d="M83.0330345,38.6909091 C83.0330345,36.3936364 84.894069,34.5316364 87.1847586,34.5316364 C89.4778621,34.5316364 91.3364828,36.3936364 91.3364828,38.6909091 C91.3364828,40.9881818 89.4778621,42.826 87.1847586,42.826 C84.894069,42.826 83.0330345,40.9881818 83.0330345,38.6909091 M97.6123448,15.3070909 L83.6606207,15.3070909 C83.1802759,15.3070909 82.769931,15.7181818 82.769931,16.2018182 C82.769931,16.7096364 83.1802759,17.1207273 83.6606207,17.1207273 L97.6123448,17.1207273 C107.004414,17.1207273 114.629586,24.7621818 114.629586,34.1689091 C114.629586,43.5780545 107.004414,51.2195091 97.6123448,51.2195091 L86.5330345,51.2195091 C94.6675172,46.1896909 101.088207,38.6207818 100.269931,27.2553273 L64.5192414,36.8530909 C64.569931,40.3594545 65.5837241,49.8629091 74.2468276,56.8780545 C77.2882069,55.8358182 80.4261379,54.5566 83.4433793,52.9823636 C83.5157931,53.0331455 83.5882069,53.0331455 83.6606207,53.0331455 L97.6123448,53.0331455 C108.018207,53.0331455 116.439931,44.5695091 116.439931,34.1689091 C116.439931,23.7707273 108.018207,15.3070909 97.6123448,15.3070909" id="Fill-807" fill="#F07E2B"></path>
            </g>
        </g>
    </g>
</svg>