<?xml version="1.0" ?><svg viewBox="0 0 64 64" xmlns="http://www.w3.org/2000/svg"><defs><style>.cls-1,.cls-11{fill:none;}.cls-1{stroke:#1a967e;stroke-linecap:round;stroke-linejoin:round;}.cls-2{fill:#fab8b0;}.cls-3{fill:#efaca8;}.cls-4{fill:#ffd4cf;}.cls-5{fill:#edbfbc;}.cls-6{fill:#f2c7c4;}.cls-7{fill:#1fad95;}.cls-8{fill:#28c2ad;}.cls-9{fill:#ea5044;}.cls-10{fill:#ec412e;}</style></defs><title/><g id="Outline"><line class="cls-1" x1="19.78" x2="20.95" y1="14.56" y2="15.72"/><line class="cls-1" x1="23.38" x2="24.78" y1="18.15" y2="19.56"/><line class="cls-1" x1="24.78" x2="23.45" y1="14.56" y2="15.88"/><line class="cls-1" x1="20.95" x2="19.78" y1="18.39" y2="19.56"/><path class="cls-2" d="M9.31,36.32S30.13,55.16,34,54s2.38-4.39,2.38-4.39a3.48,3.48,0,0,0,4.64.13c2.38-2,0-4,0-4s2.51,2.88,4.89,1.38.63-4,.63-4,2.26,3.53,5.14,1.26-.13-5.28-2.51-6.78L31.1,26.23S16,27.43,7.55,18v17Z"/><path class="cls-3" d="M34.77,53.75l.37-.18.13-.07a3.57,3.57,0,0,0,.37-.26l.14-.13.16-.15.15-.17.07-.1a2.64,2.64,0,0,0,.26-.44h0a197.51,197.51,0,0,1-28.88-23v5.82l1.76,1.27S30.13,55.16,34,54a5.94,5.94,0,0,0,.6-.21Z"/><path class="cls-4" d="M53.46,21.57a11.89,11.89,0,0,1-1.22.87c-2,1.24-8.07,2.88-11,3.43-3.54.66-8.59-.76-10.14.36s-7.65,4.29-7.24,6.92,4.85,2.67,6,1.9c2-1.34,3.17-2.68,5.06-2.44s5-.84,9.21,1.78S51.06,39,51.06,39l5.39-4V19.16Z"/><path class="cls-5" d="M56.45,29.15a46.49,46.49,0,0,1-10.5,6.41c3.13,2,5.12,3.46,5.12,3.46l5.39-4Z"/><path class="cls-6" d="M13.42,37.22s-4.28,4.05-1.27,6.36,5.69-2.5,6.29-3.7C19.45,37.87,16.91,34.87,13.42,37.22Z"/><path class="cls-6" d="M28,47.12s-3.39,3.52-1,5.51,4.5-2.17,5-3.21C32.8,47.68,30.79,45.08,28,47.12Z"/><path class="cls-6" d="M18.73,39.83s-4.19,4.3-1.24,6.75,5.57-2.65,6.16-3.93C24.63,40.52,22.14,37.33,18.73,39.83Z"/><path class="cls-6" d="M23.57,43.2s-4.19,4.3-1.24,6.75S27.9,47.3,28.49,46C29.47,43.89,27,40.7,23.57,43.2Z"/><line class="cls-1" x1="36.22" x2="36.22" y1="15" y2="18.8"/><line class="cls-1" x1="41.44" x2="37.11" y1="13.59" y2="13.59"/><line class="cls-1" x1="36.22" x2="36.22" y1="8.37" y2="12"/><line class="cls-1" x1="35.33" x2="31.01" y1="13.59" y2="13.59"/><line class="cls-1" x1="32.54" x2="34.19" y1="9.9" y2="11.55"/><line class="cls-1" x1="38.02" x2="39.91" y1="15.39" y2="17.28"/><line class="cls-1" x1="39.91" x2="37.81" y1="9.9" y2="12"/><line class="cls-1" x1="34.19" x2="32.54" y1="15.62" y2="17.28"/><circle class="cls-7" cx="36.22" cy="13.59" r="3.13"/><path class="cls-8" d="M36.22,10.46a3.1,3.1,0,0,0-.9.15,3.1,3.1,0,0,0-.15.9,3.13,3.13,0,0,0,3.13,3.13,3.1,3.1,0,0,0,.9-.15,3.1,3.1,0,0,0,.15-.9A3.13,3.13,0,0,0,36.22,10.46Z"/><circle class="cls-7" cx="22.28" cy="17.06" r="2.12"/><path class="cls-8" d="M24.34,16.56A2.12,2.12,0,0,0,22.77,15a1.29,1.29,0,0,0-1,1.25,1.31,1.31,0,0,0,1.31,1.31A1.29,1.29,0,0,0,24.34,16.56Z"/><path class="cls-9" d="M50,9.59h0a2,2,0,0,1,2,2v7a1,1,0,0,1-1,1H49a1,1,0,0,1-1-1v-7A2,2,0,0,1,50,9.59Z"/><rect class="cls-10" height="7" rx="1.03" ry="1.03" width="4" x="48" y="9.59"/><rect class="cls-9" height="4" rx="1" ry="1" width="4" x="48" y="22.59"/><path class="cls-10" d="M49,22.59h2a1,1,0,0,1,1,1v1a0,0,0,0,1,0,0H48a0,0,0,0,1,0,0v-1A1,1,0,0,1,49,22.59Z"/><rect class="cls-11" height="64" width="64"/></g></svg>