<?xml version="1.0" standalone="no"?><!DOCTYPE svg PUBLIC "-//W3C//DTD SVG 1.1//EN" "http://www.w3.org/Graphics/SVG/1.1/DTD/svg11.dtd"><svg t="1619302849534" class="icon" viewBox="0 0 1024 1024" version="1.1" xmlns="http://www.w3.org/2000/svg" p-id="44424" xmlns:xlink="http://www.w3.org/1999/xlink" width="200" height="200"><defs><style type="text/css"></style></defs><path d="M990.549333 1024l-955.733333 0 102.4-819.2 139.912533 0c16.6912-115.643733 115.3024-204.8 235.554133-204.8s218.760533 89.156267 235.451733 204.8l140.014933 0L990.549333 1024zM512.682667 68.266667c-82.500267 0-150.596267 58.743467-166.5024 136.533333l333.038933 0C663.278933 127.010133 595.1488 68.266667 512.682667 68.266667zM191.249067 273.066667 103.082667 955.733333l819.2 0-85.333333-682.666667L191.249067 273.066667zM666.282667 443.733333c-28.2624 0-51.2-22.9376-51.2-51.234133 0-28.2624 22.9376-51.165867 51.2-51.165867s51.2 22.903467 51.2 51.165867C717.482667 420.829867 694.545067 443.733333 666.282667 443.733333zM359.082667 443.733333c-28.296533 0-51.2-22.9376-51.2-51.234133 0-28.2624 22.903467-51.165867 51.2-51.165867s51.2 22.903467 51.2 51.165867C410.282667 420.829867 387.345067 443.733333 359.082667 443.733333z" p-id="44425"></path></svg>