<svg xmlns="http://www.w3.org/2000/svg" viewBox="0 0 64 64">
  <defs/>
  <defs/>
  <g id="Outline">
    <path fill="#ffd4cf" d="M19 29.81l7.1-5.61 14.33-.14s2.1 12.06 3.89 14.17 4 2.2 3.09 3.59-2.53 2.2-2.29 4.56a10.38 10.38 0 010 1.52l-4.8 1.46a.89.89 0 00-.32 1.49l2.85 2.8a6.92 6.92 0 01-3.91 1.84c-5.95.89-16-2.55-16-2.55l-5.17-11.32z"/>
    <path fill="#f27777" d="M18.65 33.21l.35-3.4 7.1-5.61 14.33-.14s.88 5.06 2 9.21a36.37 36.37 0 01-23.78-.06z"/>
    <path fill="#58595b" d="M43.12 19.1s2.35 8.72-5 11.15c0 0-.73-2.2-1.63-2.45 0 0-1.55 5.67-5.79 6 0 0-1.79-2.66-2.69-3.72 0 0-2 3.09-1.64 5.7s.81 5.7.81 5.7-2.36-3.83-4.48-2 1.21 6.92 3.57 7.5c0 0-3.1 8.57-5.38 9.06 0 0-.1-2.2-1.08-2.69s-8.19-7.2-9.24-13.64 1.65-17.1 9.47-20.51 16 1.73 20.36.84a12.42 12.42 0 002.72-.94z"/>
    <path fill="#6a6b6b" d="M10.6 39.66c-1-6.43 1.65-17.1 9.47-20.51 5.87-2.56 12-.3 16.47.61a31.51 31.51 0 01-9.62 6.68C21.28 28.84 16.38 40 15.19 48.62c-2.04-2.53-4.07-5.78-4.59-8.96z"/>
    <ellipse cx="30" cy="18.81" fill="none" stroke="#bbbdbf" stroke-linecap="round" stroke-linejoin="round" rx="20" ry="4"/>
    <path fill="none" stroke="#e5bbb7" stroke-linecap="round" stroke-linejoin="round" d="M39.46 35.72a4.65 4.65 0 004-1.51"/>
    <path d="M27.96 9.17l2.19-1.15-.42 2.44 1.78 1.73-2.45.36-1.1 2.22-1.1-2.22-2.45-.36 1.77-1.73-.41-2.44 2.19 1.15zM51.79 15.37l2.21.94-2.09 1.19-.2 2.39-1.78-1.62-2.34.54.99-2.19-1.24-2.05 2.39.26 1.57-1.81.49 2.35zM16.66 21.3l2.39.23-1.64 1.76.51 2.34-2.18-1.02-2.07 1.22.3-2.39-1.79-1.59 2.35-.46.97-2.2 1.16 2.11z" class="cls-7"/>
    <path fill="none" d="M0 0h64v64H0z"/>
  </g>
</svg>
