<svg xmlns="http://www.w3.org/2000/svg" viewBox="0 0 64 64">
  <defs/>
  <defs/>
  <g id="Outline">
    <path d="M11 20.18V26M11 16v4.18M11.82 21H6M16 21h-4.18M10.42 20.42l4.12 4.12M7.46 17.46l2.96 2.96M11.58 20.42l-4.12 4.12M14.54 17.46l-2.96 2.96M19 12l1.27 1.27M22.2 15.2L24 17M24 12l-1.33 1.33M20.62 15.55L19 17" class="cls-1"/>
    <path fill="#fee5cf" d="M34.32 20.69c-.1-2.32 1.05-12.05.57-14.51H29.1c-.48 2.46.68 12.19.57 14.51-.11 2.51-5 6.37-5 6.37l1.47 4.19s4.68-2.55 5.86-3.88c1.18 1.33 5.85 3.89 5.85 3.89l1.47-4.19s-4.89-3.87-5-6.38z"/>
    <path fill="#edcfb9" d="M29.68 20.69c-.11 2.51-5 6.37-5 6.37l.54 1.55c1.22-.75 5.26-4 6.07-5.54 1-1.75.32-7.55.24-9.69-.05-1.38-.23-4.89-.36-7.2H29.1c-.48 2.46.68 12.19.58 14.51z"/>
    <path fill="#9bc8c2" d="M43.87 23.05s9.22 9.86 10.61 17.09.74 16.36-2.48 15.27-14.16-6-14.69-10.8-1.28-21.74.95-23.37c1.18-.83 4.02.08 5.61 1.81z"/>
    <path fill="#5f8e85" d="M54.48 40.15c-1.4-7.23-10.61-17.09-10.61-17.09-1.59-1.73-4.43-2.64-5.56-1.81-2.23 1.63-1.47 18.61-.95 23.37a6.41 6.41 0 002.12 3.59c3.77-.06 7.42 1.4 10.89-1 2.28-1.54 3.49-4.3 4.13-7z"/>
    <path fill="#75a098" d="M38.31 21.24c-2.23 1.63-1.47 18.61-.95 23.37a3.91 3.91 0 00.3 1.09c4.56-.79 8.69.86 12.48-2.37a14.51 14.51 0 003.61-5.66c-2.6-6.81-9.88-14.61-9.88-14.61-1.59-1.74-4.43-2.65-5.56-1.82z"/>
    <path fill="#fb7b76" d="M20.13 23.05s-9.21 9.86-10.61 17.1S8.78 56.5 12 55.41s14.16-6 14.69-10.8 1.28-21.74-.95-23.37c-1.18-.83-4.02.08-5.61 1.81z"/>
    <path fill="#c64b66" d="M25.69 21.24c-1.13-.83-4 .09-5.56 1.81 0 0-9.22 9.86-10.61 17.09A37 37 0 009 50.7c4.39-1.61 7.51-6.2 9.64-10.09 1.66-3 5.64-6.68 8.56-9.12-.04-4.94-.41-9.49-1.51-10.25z"/>
    <path fill="#d75e72" d="M16.6 38.21c2-3.7 6.85-8.15 10.45-11.16-.2-3-.61-5.26-1.36-5.81-1.13-.83-4 .09-5.56 1.81 0 0-9.22 9.86-10.61 17.09a39.22 39.22 0 00-.68 8.14c3.31-2.66 5.86-6.59 7.76-10.07z"/>
    <path d="M16.9 26.86a7.66 7.66 0 004.1 2.75M11.59 34.76a13.75 13.75 0 006 1.73M8.83 42.51s3.2 1.05 4.62.75" class="cls-10"/>
    <circle cx="11" cy="21" r="3" class="cls-11"/>
    <path d="M11 18a3 3 0 00-.86.14A3 3 0 0010 19a3 3 0 003 3 3 3 0 00.86-.14A3 3 0 0014 21a3 3 0 00-3-3z" class="cls-12"/>
    <circle cx="21.5" cy="14.5" r="2.12" class="cls-11"/>
    <path d="M23.56 14A2.12 2.12 0 0022 12.44a1.29 1.29 0 00-1 1.25A1.31 1.31 0 0022.31 15a1.29 1.29 0 001.25-1z" class="cls-12"/>
    <path d="M32.18 10.42a9.85 9.85 0 002.77 0M29.42 15.81a8.27 8.27 0 002.27.08" class="cls-13"/>
    <path fill="none" d="M0 0h64v64H0z"/>
  </g>
</svg>
