<svg xmlns="http://www.w3.org/2000/svg" viewBox="0 0 64 64">
  <defs/>
  <defs/>
  <g id="Outline">
    <path d="M19 8.93h12a1 1 0 011 1v3a1 1 0 01-1 1H19a2 2 0 01-2-2v-1a2 2 0 012-2z" class="cls-1"/>
    <path fill="#b0eaf4" d="M25 11.43a1 1 0 00-1 1v1.5h7a1 1 0 001-1v-1.5z"/>
    <path fill="#dfe0e0" d="M21.01 13.93h6v7h-6z"/>
    <path fill="#edefef" d="M24 17.29a1 1 0 001 1h2v-4.36h-3z"/>
    <path fill="#81d3f4" d="M27.62 20.93h-7.23a8.37 8.37 0 00-8.3 7.33 8.37 8.37 0 00-.09 1.35l.68 18.27a8.37 8.37 0 008.36 8.06h5.88a8.37 8.37 0 008.36-8.06L36 29.61a8.37 8.37 0 00-.06-1.35 8.37 8.37 0 00-8.32-7.33z"/>
    <path d="M27.62 20.93h-7.23a8.37 8.37 0 00-1.16.09 8.3 8.3 0 00-1.18 4.59l.68 18.27a8.37 8.37 0 008.36 8.06H33a8.39 8.39 0 001.17-.09 8.32 8.32 0 001.17-4L36 29.61a8.37 8.37 0 00-8.36-8.68z" class="cls-1"/>
    <path fill="#3f95af" d="M12.09 31l.6 16.1a72 72 0 0011.31.83 71.86 71.86 0 0011.33-.82l.6-16.1a70.32 70.32 0 01-11.93.92A70.5 70.5 0 0112.09 31z"/>
    <path fill="#4ba7bc" d="M35.34 47.11l.6-16.1a70.32 70.32 0 01-11.94.92c-2.12 0-4-.08-5.73-.2l.45 12.14a8.32 8.32 0 001.17 4c1.28.06 2.64.1 4.11.1a71.86 71.86 0 0011.34-.86z"/>
    <path fill="#fff" d="M27.5 37.43H26v-1.5a1 1 0 00-1-1h-2a1 1 0 00-1 1v1.5h-1.5a1 1 0 00-1 1v2a1 1 0 001 1H22v1.5a1 1 0 001 1h2a1 1 0 001-1v-1.5h1.5a1 1 0 001-1v-2a1 1 0 00-1-1z"/>
    <rect width="17" height="4.43" x="32" y="51.57" fill="#c6c0b9" rx="1" ry="1"/>
    <path fill="#f2c577" d="M39.93 51.57a14.42 14.42 0 01-9.59-3.83 3 3 0 01.17-4.55 3.72 3.72 0 014.92.13 7.32 7.32 0 004.5 1.81 10.05 10.05 0 005.81-2 3.74 3.74 0 014.93.22 3 3 0 01-.19 4.51 17.08 17.08 0 01-10.55 3.71z"/>
    <path fill="#f8f091" d="M45.75 43.17a10.05 10.05 0 01-5.81 2 7.32 7.32 0 01-4.5-1.81 3.72 3.72 0 00-4.92-.13 3.23 3.23 0 00-.64.76 3.23 3.23 0 00.47.59 14.42 14.42 0 009.59 3.83 17.08 17.08 0 0010.55-3.67 3.21 3.21 0 00.63-.76 3.27 3.27 0 00-.44-.56 3.74 3.74 0 00-4.93-.25z"/>
    <path fill="none" d="M-.01.07h64v64h-64z"/>
  </g>
</svg>
