<?xml version="1.0" standalone="no"?><!DOCTYPE svg PUBLIC "-//W3C//DTD SVG 1.1//EN" "http://www.w3.org/Graphics/SVG/1.1/DTD/svg11.dtd"><svg t="1619570216314" class="icon" viewBox="0 0 1525 1024" version="1.1" xmlns="http://www.w3.org/2000/svg" p-id="3271" xmlns:xlink="http://www.w3.org/1999/xlink" width="297.8515625" height="200"><path d="M0 0m119.252294 0l1073.195694 0q119.252294 0 119.252294 119.252294l0 642.208458q0 119.252294-119.252294 119.252295l-1073.195694 0q-119.252294 0-119.252294-119.252295l0-642.208458q0-119.252294 119.252294-119.252294Z" fill="#ED5565" p-id="3272"></path><path d="M752.915962 545.086422c-10.680988 7.120659-16.677332 2.698355-13.117003-9.819014l13.117003-46.621576a42.705213 42.705213 0 0 0-10.868374-38.770112l-32.979893-30.974866c-9.369288-8.80713-6.745887-15.946528 6.18373-15.852834l47.970754 0.337294a34.553933 34.553933 0 0 0 30.731263-22.261428l17.052104-50.819016c3.935101-12.329983 10.493602-12.292506 14.428703 0l16.115175 51.287481a36.202928 36.202928 0 0 0 30.356492 23.573128l48.907682 2.22989c12.742231 0.599634 15.178246 7.75777 5.059416 15.946528l-38.41408 31.405852a40.681447 40.681447 0 0 0-12.36746 37.795707l10.306217 41.787023c2.998172 12.611061-3.185558 17.052104-13.866546 9.87523l-38.788851-26.065359a38.095524 38.095524 0 0 0-38.976237-0.112431z m18.925961 85.972584a3.260512 3.260512 0 0 0-0.936928 0.356033 210.73402 210.73402 0 0 1-32.792508 12.817185 204.250473 204.250473 0 0 1-255.032012-141.251381 211.595994 211.595994 0 0 1 264.213914-261.90907 203.444714 203.444714 0 0 1 32.042964 13.67916l0.936929 0.374772a7.120659 7.120659 0 0 0 6.371116-12.554846 252.970769 252.970769 0 0 0-88.820848-50.744062 263.445632 263.445632 0 0 0-341.416845 245.700201 267.718028 267.718028 0 0 0 9.74406 77.259147 257.16821 257.16821 0 0 0 411.311731 129.033831 7.026966 7.026966 0 0 0-5.621573-12.76097z" fill="#FFFFFF" p-id="3273"></path></svg>